AsbirSans-TextBlack.ufo
<glyph name="exclam" format="2">
  <advance width="780"/>
  <unicode hex="0021"/>
  <outline>
    <contour>
      <point x="208" y="466" type="line"/>
      <point x="572" y="466" type="line"/>
      <point x="602" y="1490" type="line"/>
      <point x="178" y="1490" type="line"/>
    </contour>
    <contour>
      <point x="390" y="-24" type="curve" smooth="yes"/>
      <point x="520" y="-24"/>
      <point x="604" y="52"/>
      <point x="604" y="175" type="curve" smooth="yes"/>
      <point x="604" y="298"/>
      <point x="520" y="374"/>
      <point x="390" y="374" type="curve" smooth="yes"/>
      <point x="260" y="374"/>
      <point x="176" y="298"/>
      <point x="176" y="175" type="curve" smooth="yes"/>
      <point x="176" y="52"/>
      <point x="260" y="-24"/>
    </contour>
  </outline>
</glyph>
<glyph name="numbersign" format="2">
  <advance width="1356"/>
  <unicode hex="0023"/>
  <outline>
    <contour>
      <point x="672" y="0" type="line"/>
      <point x="962" y="0" type="line"/>
      <point x="1208" y="1490" type="line"/>
      <point x="916" y="1490" type="line"/>
    </contour>
    <contour>
      <point x="12" y="340" type="line"/>
      <point x="1210" y="340" type="line"/>
      <point x="1260" y="632" type="line"/>
      <point x="62" y="632" type="line"/>
    </contour>
    <contour>
      <point x="148" y="0" type="line"/>
      <point x="440" y="0" type="line"/>
      <point x="684" y="1490" type="line"/>
      <point x="392" y="1490" type="line"/>
    </contour>
    <contour>
      <point x="96" y="858" type="line"/>
      <point x="1294" y="858" type="line"/>
      <point x="1344" y="1150" type="line"/>
      <point x="146" y="1150" type="line"/>
    </contour>
  </outline>
</glyph>
<glyph name="dollar" format="2">
  <advance width="1364"/>
  <unicode hex="0024"/>
  <anchor x="690" y="0" name="bottom"/>
  <anchor x="686" y="0" name="cedilla"/>
  <anchor x="684" y="1490" name="top"/>
  <outline>
    <contour>
      <point x="640" y="-186" type="line"/>
      <point x="760" y="-186" type="line"/>
      <point x="760" y="1676" type="line"/>
      <point x="640" y="1676" type="line"/>
    </contour>
    <component base="S"/>
  </outline>
</glyph>
<glyph name="ampersand" format="2">
  <advance width="1424"/>
  <unicode hex="0026"/>
  <outline>
    <contour>
      <point x="578" y="-24" type="curve" smooth="yes"/>
      <point x="703" y="-24"/>
      <point x="845" y="9"/>
      <point x="964" y="86" type="curve"/>
      <point x="1076" y="140" type="line"/>
      <point x="1270" y="276"/>
      <point x="1346" y="518"/>
      <point x="1346" y="776" type="curve"/>
      <point x="1028" y="776" type="line"/>
      <point x="1028" y="495"/>
      <point x="805" y="290"/>
      <point x="606" y="290" type="curve" smooth="yes"/>
      <point x="509" y="290"/>
      <point x="446" y="340"/>
      <point x="446" y="424" type="curve" smooth="yes"/>
      <point x="446" y="492"/>
      <point x="487" y="531"/>
      <point x="534" y="564" type="curve" smooth="yes"/>
      <point x="842" y="782" type="line" smooth="yes"/>
      <point x="970" y="873"/>
      <point x="1040" y="996"/>
      <point x="1040" y="1134" type="curve" smooth="yes"/>
      <point x="1040" y="1341"/>
      <point x="886" y="1512"/>
      <point x="636" y="1512" type="curve" smooth="yes"/>
      <point x="374" y="1512"/>
      <point x="200" y="1327"/>
      <point x="200" y="1100" type="curve" smooth="yes"/>
      <point x="200" y="896"/>
      <point x="340" y="735"/>
      <point x="430" y="640" type="curve" smooth="yes"/>
      <point x="1034" y="0" type="line"/>
      <point x="1436" y="0" type="line"/>
      <point x="714" y="794" type="line" smooth="yes"/>
      <point x="602" y="917"/>
      <point x="526" y="1007"/>
      <point x="526" y="1094" type="curve" smooth="yes"/>
      <point x="526" y="1156"/>
      <point x="568" y="1196"/>
      <point x="636" y="1196" type="curve" smooth="yes"/>
      <point x="709" y="1196"/>
      <point x="744" y="1153"/>
      <point x="744" y="1106" type="curve" smooth="yes"/>
      <point x="744" y="1069"/>
      <point x="724" y="1020"/>
      <point x="656" y="978" type="curve" smooth="yes"/>
      <point x="318" y="768" type="line" smooth="yes"/>
      <point x="160" y="670"/>
      <point x="62" y="563"/>
      <point x="62" y="396" type="curve" smooth="yes"/>
      <point x="62" y="165"/>
      <point x="257" y="-24"/>
    </contour>
  </outline>
</glyph>
<glyph name="quotesingle" format="2">
  <advance width="762"/>
  <unicode hex="0027"/>
  <outline>
    <contour>
      <point x="233" y="824" type="line"/>
      <point x="529" y="824" type="line"/>
      <point x="566" y="1490" type="line"/>
      <point x="196" y="1490" type="line"/>
    </contour>
  </outline>
</glyph>
<glyph name="parenleft" format="2">
  <advance width="794"/>
  <unicode hex="0028"/>
  <outline>
    <contour>
      <point x="128" y="607" type="curve" smooth="yes"/>
      <point x="128" y="301"/>
      <point x="217" y="-6"/>
      <point x="386" y="-279" type="curve"/>
      <point x="752" y="-279" type="line"/>
      <point x="595" y="112"/>
      <point x="538" y="347"/>
      <point x="538" y="607" type="curve" smooth="yes"/>
      <point x="538" y="914"/>
      <point x="617" y="1274"/>
      <point x="752" y="1581" type="curve"/>
      <point x="386" y="1581" type="line"/>
      <point x="234" y="1344"/>
      <point x="128" y="942"/>
    </contour>
  </outline>
</glyph>
<glyph name="parenright" format="2">
  <advance width="794"/>
  <unicode hex="0029"/>
  <outline>
    <contour>
      <point x="42" y="-279" type="curve"/>
      <point x="408" y="-279" type="line"/>
      <point x="577" y="-6"/>
      <point x="666" y="301"/>
      <point x="666" y="607" type="curve" smooth="yes"/>
      <point x="666" y="942"/>
      <point x="560" y="1344"/>
      <point x="408" y="1581" type="curve"/>
      <point x="42" y="1581" type="line"/>
      <point x="177" y="1274"/>
      <point x="256" y="914"/>
      <point x="256" y="607" type="curve" smooth="yes"/>
      <point x="256" y="347"/>
      <point x="199" y="112"/>
    </contour>
  </outline>
</glyph>
<glyph name="asterisk" format="2">
  <advance width="1246"/>
  <unicode hex="002A"/>
  <outline>
    <contour>
      <point x="506" y="652" type="line"/>
      <point x="738" y="652" type="line"/>
      <point x="716" y="908" type="line"/>
      <point x="928" y="760" type="line"/>
      <point x="1044" y="962" type="line"/>
      <point x="812" y="1070" type="line"/>
      <point x="1044" y="1178" type="line"/>
      <point x="928" y="1382" type="line"/>
      <point x="716" y="1234" type="line"/>
      <point x="738" y="1490" type="line"/>
      <point x="506" y="1490" type="line"/>
      <point x="530" y="1234" type="line"/>
      <point x="318" y="1382" type="line"/>
      <point x="200" y="1178" type="line"/>
      <point x="434" y="1070" type="line"/>
      <point x="200" y="962" type="line"/>
      <point x="318" y="760" type="line"/>
      <point x="530" y="908" type="line"/>
    </contour>
  </outline>
</glyph>
<glyph name="plus" format="2">
  <advance width="1420"/>
  <unicode hex="002B"/>
  <outline>
    <contour>
      <point x="547" y="66" type="line"/>
      <point x="873" y="66" type="line"/>
      <point x="873" y="1144" type="line"/>
      <point x="547" y="1144" type="line"/>
    </contour>
    <contour>
      <point x="172" y="450" type="line"/>
      <point x="1248" y="450" type="line"/>
      <point x="1248" y="760" type="line"/>
      <point x="172" y="760" type="line"/>
    </contour>
  </outline>
</glyph>
<glyph name="period" format="2">
  <advance width="764"/>
  <unicode hex="002E"/>
  <outline>
    <contour>
      <point x="382" y="-24" type="curve" smooth="yes"/>
      <point x="499" y="-24"/>
      <point x="588" y="63"/>
      <point x="588" y="179" type="curve" smooth="yes"/>
      <point x="588" y="295"/>
      <point x="499" y="382"/>
      <point x="382" y="382" type="curve" smooth="yes"/>
      <point x="265" y="382"/>
      <point x="176" y="295"/>
      <point x="176" y="179" type="curve" smooth="yes"/>
      <point x="176" y="63"/>
      <point x="265" y="-24"/>
    </contour>
  </outline>
</glyph>
<glyph name="slash" format="2">
  <advance width="844"/>
  <unicode hex="002F"/>
  <outline>
    <contour>
      <point x="832" y="1560" type="line"/>
      <point x="492" y="1560" type="line"/>
      <point x="12" y="-224" type="line"/>
      <point x="352" y="-224" type="line"/>
    </contour>
  </outline>
</glyph>
<glyph name="zero" format="2">
  <advance width="1456"/>
  <unicode hex="0030"/>
  <anchor x="728" y="745" name="center"/>
  <anchor x="728" y="1490" name="top"/>
  <outline>
    <contour>
      <point x="728" y="-20" type="curve" smooth="yes"/>
      <point x="1143" y="-20"/>
      <point x="1386" y="263"/>
      <point x="1386" y="744" type="curve" smooth="yes"/>
      <point x="1386" y="1225"/>
      <point x="1142" y="1510"/>
      <point x="728" y="1510" type="curve" smooth="yes"/>
      <point x="314" y="1510"/>
      <point x="70" y="1226"/>
      <point x="70" y="744" type="curve" smooth="yes"/>
      <point x="70" y="263"/>
      <point x="314" y="-20"/>
    </contour>
    <contour>
      <point x="728" y="308" type="curve" smooth="yes"/>
      <point x="573" y="308"/>
      <point x="490" y="461"/>
      <point x="490" y="744" type="curve" smooth="yes"/>
      <point x="490" y="1027"/>
      <point x="575" y="1184"/>
      <point x="728" y="1184" type="curve" smooth="yes"/>
      <point x="882" y="1184"/>
      <point x="966" y="1028"/>
      <point x="966" y="744" type="curve" smooth="yes"/>
      <point x="966" y="461"/>
      <point x="882" y="308"/>
    </contour>
  </outline>
</glyph>
<glyph name="one" format="2">
  <advance width="904"/>
  <unicode hex="0031"/>
  <outline>
    <contour>
      <point x="404" y="0" type="line"/>
      <point x="808" y="0" type="line"/>
      <point x="808" y="1490" type="line"/>
      <point x="466" y="1490" type="line"/>
      <point x="423" y="1337"/>
      <point x="284" y="1228"/>
      <point x="112" y="1228" type="curve" smooth="yes"/>
      <point x="94" y="1228" type="line"/>
      <point x="94" y="910" type="line"/>
      <point x="209" y="910"/>
      <point x="354" y="943"/>
      <point x="427" y="1047" type="curve"/>
      <point x="404" y="1061" type="line"/>
    </contour>
  </outline>
</glyph>
<glyph name="two" format="2">
  <advance width="1324"/>
  <unicode hex="0032"/>
  <anchor x="782" y="673" name="cross"/>
  <anchor x="662" y="1490" name="top"/>
  <outline>
    <contour>
      <point x="98" y="0" type="line"/>
      <point x="1242" y="0" type="line"/>
      <point x="1242" y="322" type="line"/>
      <point x="660" y="322" type="line"/>
      <point x="660" y="332" type="line"/>
      <point x="800" y="448" type="line" smooth="yes"/>
      <point x="1141" y="730"/>
      <point x="1226" y="878"/>
      <point x="1226" y="1050" type="curve" smooth="yes"/>
      <point x="1226" y="1328"/>
      <point x="999" y="1510"/>
      <point x="642" y="1510" type="curve" smooth="yes"/>
      <point x="295" y="1510"/>
      <point x="70" y="1317"/>
      <point x="70" y="1004" type="curve"/>
      <point x="454" y="1004" type="line"/>
      <point x="454" y="1129"/>
      <point x="529" y="1198"/>
      <point x="642" y="1198" type="curve" smooth="yes"/>
      <point x="753" y="1198"/>
      <point x="832" y="1129"/>
      <point x="832" y="1016" type="curve" smooth="yes"/>
      <point x="832" y="910"/>
      <point x="764" y="841"/>
      <point x="654" y="750" type="curve" smooth="yes"/>
      <point x="98" y="290" type="line"/>
    </contour>
  </outline>
</glyph>
<glyph name="three" format="2">
  <advance width="1370"/>
  <unicode hex="0033"/>
  <anchor x="688" y="1490" name="top"/>
  <outline>
    <contour>
      <point x="680" y="-20" type="curve" smooth="yes"/>
      <point x="1045" y="-20"/>
      <point x="1300" y="165"/>
      <point x="1300" y="428" type="curve" smooth="yes"/>
      <point x="1300" y="610"/>
      <point x="1180" y="739"/>
      <point x="940" y="766" type="curve"/>
      <point x="940" y="776" type="line"/>
      <point x="1117" y="796"/>
      <point x="1246" y="910"/>
      <point x="1246" y="1076" type="curve" smooth="yes"/>
      <point x="1246" y="1327"/>
      <point x="1014" y="1510"/>
      <point x="684" y="1510" type="curve" smooth="yes"/>
      <point x="346" y="1510"/>
      <point x="104" y="1317"/>
      <point x="104" y="1044" type="curve"/>
      <point x="492" y="1044" type="line"/>
      <point x="492" y="1135"/>
      <point x="572" y="1198"/>
      <point x="684" y="1198" type="curve" smooth="yes"/>
      <point x="785" y="1198"/>
      <point x="856" y="1137"/>
      <point x="856" y="1050" type="curve" smooth="yes"/>
      <point x="856" y="960"/>
      <point x="772" y="896"/>
      <point x="652" y="896" type="curve" smooth="yes"/>
      <point x="500" y="896" type="line"/>
      <point x="500" y="616" type="line"/>
      <point x="652" y="616" type="line" smooth="yes"/>
      <point x="783" y="616"/>
      <point x="872" y="553"/>
      <point x="872" y="462" type="curve" smooth="yes"/>
      <point x="872" y="370"/>
      <point x="796" y="306"/>
      <point x="684" y="306" type="curve" smooth="yes"/>
      <point x="567" y="306"/>
      <point x="482" y="367"/>
      <point x="482" y="454" type="curve"/>
      <point x="76" y="454" type="line"/>
      <point x="76" y="176"/>
      <point x="328" y="-20"/>
    </contour>
  </outline>
</glyph>
<glyph name="five" format="2">
  <advance width="1324"/>
  <unicode hex="0035"/>
  <outline>
    <contour>
      <point x="656" y="-20" type="curve" smooth="yes"/>
      <point x="1018" y="-20"/>
      <point x="1254" y="200"/>
      <point x="1254" y="512" type="curve" smooth="yes"/>
      <point x="1254" y="795"/>
      <point x="1057" y="994"/>
      <point x="792" y="994" type="curve" smooth="yes"/>
      <point x="641" y="994"/>
      <point x="519" y="928"/>
      <point x="472" y="838" type="curve"/>
      <point x="464" y="838" type="line"/>
      <point x="492" y="1166" type="line"/>
      <point x="1162" y="1166" type="line"/>
      <point x="1162" y="1490" type="line"/>
      <point x="160" y="1490" type="line"/>
      <point x="102" y="670" type="line"/>
      <point x="458" y="600" type="line"/>
      <point x="492" y="672"/>
      <point x="569" y="716"/>
      <point x="656" y="716" type="curve" smooth="yes"/>
      <point x="779" y="716"/>
      <point x="864" y="631"/>
      <point x="864" y="500" type="curve" smooth="yes"/>
      <point x="864" y="370"/>
      <point x="779" y="286"/>
      <point x="656" y="286" type="curve" smooth="yes"/>
      <point x="548" y="286"/>
      <point x="458" y="351"/>
      <point x="458" y="454" type="curve"/>
      <point x="64" y="454" type="line"/>
      <point x="67" y="176"/>
      <point x="312" y="-20"/>
    </contour>
  </outline>
</glyph>
<glyph name="six" format="2">
  <advance width="1382"/>
  <unicode hex="0036"/>
  <outline>
    <contour>
      <point x="716" y="-20" type="curve" smooth="yes"/>
      <point x="1067" y="-20"/>
      <point x="1312" y="191"/>
      <point x="1312" y="512" type="curve" smooth="yes"/>
      <point x="1312" y="785"/>
      <point x="1131" y="984"/>
      <point x="860" y="984" type="curve" smooth="yes"/>
      <point x="691" y="984"/>
      <point x="537" y="902"/>
      <point x="480" y="766" type="curve"/>
      <point x="472" y="766" type="line"/>
      <point x="472" y="1006"/>
      <point x="548" y="1166"/>
      <point x="718" y="1166" type="curve" smooth="yes"/>
      <point x="803" y="1166"/>
      <point x="878" y="1129"/>
      <point x="896" y="1044" type="curve"/>
      <point x="1294" y="1044" type="line"/>
      <point x="1269" y="1299"/>
      <point x="1047" y="1510"/>
      <point x="718" y="1510" type="curve" smooth="yes"/>
      <point x="328" y="1510"/>
      <point x="70" y="1210"/>
      <point x="70" y="728" type="curve" smooth="yes"/>
      <point x="70" y="186"/>
      <point x="368" y="-20"/>
    </contour>
    <contour>
      <point x="712" y="286" type="curve" smooth="yes"/>
      <point x="595" y="286"/>
      <point x="506" y="375"/>
      <point x="506" y="498" type="curve" smooth="yes"/>
      <point x="506" y="620"/>
      <point x="595" y="710"/>
      <point x="712" y="710" type="curve" smooth="yes"/>
      <point x="833" y="710"/>
      <point x="920" y="620"/>
      <point x="920" y="498" type="curve" smooth="yes"/>
      <point x="920" y="375"/>
      <point x="833" y="286"/>
    </contour>
  </outline>
</glyph>
<glyph name="seven" format="2">
  <advance width="1218"/>
  <unicode hex="0037"/>
  <outline>
    <contour>
      <point x="158" y="0" type="line"/>
      <point x="574" y="0" type="line"/>
      <point x="1162" y="1166" type="line"/>
      <point x="1162" y="1490" type="line"/>
      <point x="56" y="1490" type="line"/>
      <point x="56" y="1166" type="line"/>
      <point x="742" y="1166" type="line"/>
      <point x="742" y="1158" type="line"/>
    </contour>
  </outline>
</glyph>
<glyph name="eight" format="2">
  <advance width="1390"/>
  <unicode hex="0038"/>
  <outline>
    <contour>
      <point x="694" y="-20" type="curve" smooth="yes"/>
      <point x="1056" y="-20"/>
      <point x="1320" y="163"/>
      <point x="1320" y="404" type="curve" smooth="yes"/>
      <point x="1320" y="588"/>
      <point x="1165" y="736"/>
      <point x="974" y="766" type="curve"/>
      <point x="974" y="776" type="line"/>
      <point x="1141" y="806"/>
      <point x="1266" y="939"/>
      <point x="1266" y="1106" type="curve" smooth="yes"/>
      <point x="1266" y="1338"/>
      <point x="1024" y="1510"/>
      <point x="694" y="1510" type="curve" smooth="yes"/>
      <point x="366" y="1510"/>
      <point x="124" y="1339"/>
      <point x="124" y="1106" type="curve" smooth="yes"/>
      <point x="124" y="940"/>
      <point x="246" y="806"/>
      <point x="416" y="776" type="curve"/>
      <point x="416" y="766" type="line"/>
      <point x="221" y="736"/>
      <point x="70" y="588"/>
      <point x="70" y="404" type="curve" smooth="yes"/>
      <point x="70" y="163"/>
      <point x="334" y="-20"/>
    </contour>
    <contour>
      <point x="694" y="258" type="curve" smooth="yes"/>
      <point x="581" y="258"/>
      <point x="498" y="336"/>
      <point x="498" y="440" type="curve" smooth="yes"/>
      <point x="498" y="543"/>
      <point x="581" y="616"/>
      <point x="694" y="616" type="curve" smooth="yes"/>
      <point x="809" y="616"/>
      <point x="892" y="542"/>
      <point x="892" y="440" type="curve" smooth="yes"/>
      <point x="892" y="335"/>
      <point x="809" y="258"/>
    </contour>
    <contour>
      <point x="694" y="896" type="curve" smooth="yes"/>
      <point x="594" y="896"/>
      <point x="520" y="966"/>
      <point x="520" y="1058" type="curve" smooth="yes"/>
      <point x="520" y="1152"/>
      <point x="594" y="1218"/>
      <point x="694" y="1218" type="curve" smooth="yes"/>
      <point x="796" y="1218"/>
      <point x="870" y="1151"/>
      <point x="870" y="1058" type="curve" smooth="yes"/>
      <point x="870" y="965"/>
      <point x="796" y="896"/>
    </contour>
  </outline>
</glyph>
<glyph name="nine" format="2">
  <advance width="1382"/>
  <unicode hex="0039"/>
  <outline>
    <contour>
      <point x="664" y="-24" type="curve" smooth="yes"/>
      <point x="1054" y="-24"/>
      <point x="1312" y="280"/>
      <point x="1312" y="762" type="curve" smooth="yes"/>
      <point x="1312" y="1304"/>
      <point x="1014" y="1514"/>
      <point x="666" y="1514" type="curve" smooth="yes"/>
      <point x="315" y="1514"/>
      <point x="70" y="1299"/>
      <point x="70" y="978" type="curve" smooth="yes"/>
      <point x="70" y="705"/>
      <point x="251" y="506"/>
      <point x="522" y="506" type="curve" smooth="yes"/>
      <point x="691" y="506"/>
      <point x="845" y="588"/>
      <point x="902" y="724" type="curve"/>
      <point x="910" y="724" type="line"/>
      <point x="910" y="484"/>
      <point x="834" y="320"/>
      <point x="664" y="320" type="curve" smooth="yes"/>
      <point x="579" y="320"/>
      <point x="504" y="361"/>
      <point x="486" y="446" type="curve"/>
      <point x="88" y="446" type="line"/>
      <point x="113" y="191"/>
      <point x="335" y="-24"/>
    </contour>
    <contour>
      <point x="670" y="780" type="curve" smooth="yes"/>
      <point x="550" y="780"/>
      <point x="462" y="869"/>
      <point x="462" y="992" type="curve" smooth="yes"/>
      <point x="462" y="1114"/>
      <point x="551" y="1204"/>
      <point x="670" y="1204" type="curve" smooth="yes"/>
      <point x="789" y="1204"/>
      <point x="876" y="1114"/>
      <point x="876" y="992" type="curve" smooth="yes"/>
      <point x="876" y="870"/>
      <point x="789" y="780"/>
    </contour>
  </outline>
</glyph>
<glyph name="less" format="2">
  <advance width="1420"/>
  <unicode hex="003C"/>
  <outline>
    <contour>
      <point x="160" y="430" type="line"/>
      <point x="1242" y="-2" type="line"/>
      <point x="1242" y="364" type="line"/>
      <point x="554" y="602" type="line"/>
      <point x="566" y="584" type="line"/>
      <point x="566" y="626" type="line"/>
      <point x="554" y="608" type="line"/>
      <point x="1242" y="846" type="line"/>
      <point x="1242" y="1214" type="line"/>
      <point x="160" y="780" type="line"/>
    </contour>
  </outline>
</glyph>
<glyph name="equal" format="2">
  <advance width="1420"/>
  <unicode hex="003D"/>
  <outline>
    <contour>
      <point x="172" y="702" type="line"/>
      <point x="1248" y="702" type="line"/>
      <point x="1248" y="1026" type="line"/>
      <point x="172" y="1026" type="line"/>
    </contour>
    <contour>
      <point x="172" y="184" type="line"/>
      <point x="1248" y="184" type="line"/>
      <point x="1248" y="510" type="line"/>
      <point x="172" y="510" type="line"/>
    </contour>
  </outline>
</glyph>
<glyph name="greater" format="2">
  <advance width="1420"/>
  <unicode hex="003E"/>
  <outline>
    <contour>
      <point x="1260" y="430" type="line"/>
      <point x="1260" y="780" type="line"/>
      <point x="178" y="1214" type="line"/>
      <point x="178" y="846" type="line"/>
      <point x="868" y="608" type="line"/>
      <point x="856" y="626" type="line"/>
      <point x="856" y="584" type="line"/>
      <point x="868" y="602" type="line"/>
      <point x="178" y="364" type="line"/>
      <point x="178" y="-2" type="line"/>
    </contour>
  </outline>
</glyph>
<glyph name="question" format="2">
  <advance width="1230"/>
  <unicode hex="003F"/>
  <outline>
    <contour>
      <point x="396" y="466" type="line"/>
      <point x="738" y="466" type="line"/>
      <point x="738" y="500" type="line" smooth="yes"/>
      <point x="738" y="616"/>
      <point x="793" y="674"/>
      <point x="898" y="736" type="curve" smooth="yes"/>
      <point x="1041" y="819"/>
      <point x="1138" y="923"/>
      <point x="1138" y="1100" type="curve" smooth="yes"/>
      <point x="1138" y="1373"/>
      <point x="907" y="1510"/>
      <point x="596" y="1510" type="curve" smooth="yes"/>
      <point x="313" y="1510"/>
      <point x="76" y="1376"/>
      <point x="76" y="1056" type="curve"/>
      <point x="448" y="1056" type="line"/>
      <point x="448" y="1140"/>
      <point x="515" y="1198"/>
      <point x="594" y="1198" type="curve" smooth="yes"/>
      <point x="666" y="1198"/>
      <point x="724" y="1149"/>
      <point x="724" y="1076" type="curve" smooth="yes"/>
      <point x="724" y="995"/>
      <point x="654" y="945"/>
      <point x="562" y="884" type="curve" smooth="yes"/>
      <point x="453" y="814"/>
      <point x="396" y="740"/>
      <point x="396" y="500" type="curve" smooth="yes"/>
    </contour>
    <contour>
      <point x="567" y="-24" type="curve" smooth="yes"/>
      <point x="697" y="-24"/>
      <point x="781" y="52"/>
      <point x="781" y="175" type="curve" smooth="yes"/>
      <point x="781" y="298"/>
      <point x="697" y="374"/>
      <point x="567" y="374" type="curve" smooth="yes"/>
      <point x="437" y="374"/>
      <point x="353" y="298"/>
      <point x="353" y="175" type="curve" smooth="yes"/>
      <point x="353" y="52"/>
      <point x="437" y="-24"/>
    </contour>
  </outline>
</glyph>
<glyph name="at" format="2">
  <advance width="2168"/>
  <unicode hex="0040"/>
  <outline>
    <contour>
      <point x="1078" y="-456" type="curve" smooth="yes"/>
      <point x="1331" y="-456"/>
      <point x="1527" y="-399"/>
      <point x="1634" y="-342" type="curve"/>
      <point x="1524" y="-77" type="line"/>
      <point x="1421" y="-124"/>
      <point x="1281" y="-154"/>
      <point x="1114" y="-154" type="curve" smooth="yes"/>
      <point x="645" y="-154"/>
      <point x="396" y="82"/>
      <point x="396" y="524" type="curve" smooth="yes"/>
      <point x="396" y="956"/>
      <point x="634" y="1214"/>
      <point x="1119" y="1214" type="curve" smooth="yes"/>
      <point x="1554" y="1214"/>
      <point x="1784" y="1007"/>
      <point x="1784" y="566" type="curve" smooth="yes"/>
      <point x="1784" y="363"/>
      <point x="1735" y="267"/>
      <point x="1625" y="267" type="curve" smooth="yes"/>
      <point x="1583" y="267"/>
      <point x="1571" y="281"/>
      <point x="1571" y="333" type="curve" smooth="yes"/>
      <point x="1571" y="1021" type="line"/>
      <point x="1323" y="1021" type="line"/>
      <point x="1323" y="903" type="line"/>
      <point x="1312" y="903" type="line"/>
      <point x="1270" y="995"/>
      <point x="1162" y="1043"/>
      <point x="1029" y="1043" type="curve" smooth="yes"/>
      <point x="754" y="1043"/>
      <point x="575" y="836"/>
      <point x="575" y="518" type="curve" smooth="yes"/>
      <point x="575" y="206"/>
      <point x="747" y="16"/>
      <point x="1027" y="16" type="curve" smooth="yes"/>
      <point x="1189" y="16"/>
      <point x="1316" y="79"/>
      <point x="1354" y="191" type="curve"/>
      <point x="1362" y="191" type="line"/>
      <point x="1381" y="82"/>
      <point x="1472" y="24"/>
      <point x="1625" y="24" type="curve" smooth="yes"/>
      <point x="1914" y="24"/>
      <point x="2098" y="230"/>
      <point x="2098" y="605" type="curve" smooth="yes"/>
      <point x="2098" y="1167"/>
      <point x="1684" y="1514"/>
      <point x="1081" y="1514" type="curve" smooth="yes"/>
      <point x="413" y="1514"/>
      <point x="70" y="1088"/>
      <point x="70" y="508" type="curve" smooth="yes"/>
      <point x="70" y="-102"/>
      <point x="449" y="-456"/>
    </contour>
    <contour>
      <point x="1074" y="280" type="curve" smooth="yes"/>
      <point x="933" y="280"/>
      <point x="854" y="368"/>
      <point x="854" y="520" type="curve" smooth="yes"/>
      <point x="854" y="671"/>
      <point x="933" y="751"/>
      <point x="1074" y="751" type="curve" smooth="yes"/>
      <point x="1215" y="751"/>
      <point x="1294" y="670"/>
      <point x="1294" y="519" type="curve" smooth="yes"/>
      <point x="1294" y="368"/>
      <point x="1214" y="280"/>
    </contour>
  </outline>
</glyph>
<glyph name="A" format="2">
  <advance width="1628"/>
  <unicode hex="0041"/>
  <anchor x="810" y="0" name="bottom"/>
  <anchor x="1582" y="0" name="ogonek"/>
  <anchor x="476" y="1490" name="tonos"/>
  <anchor x="810" y="1490" name="top"/>
  <outline>
    <contour>
      <point x="46" y="0" type="line"/>
      <point x="498" y="0" type="line"/>
      <point x="663" y="578" type="line" smooth="yes"/>
      <point x="735" y="829"/>
      <point x="789" y="1104"/>
      <point x="845" y="1371" type="curve"/>
      <point x="753" y="1371" type="line"/>
      <point x="812" y="1104"/>
      <point x="876" y="829"/>
      <point x="951" y="578" type="curve" smooth="yes"/>
      <point x="1124" y="0" type="line"/>
      <point x="1582" y="0" type="line"/>
      <point x="1081" y="1490" type="line"/>
      <point x="529" y="1490" type="line"/>
    </contour>
    <contour>
      <point x="404" y="286" type="line"/>
      <point x="1224" y="286" type="line"/>
      <point x="1224" y="588" type="line"/>
      <point x="404" y="588" type="line"/>
    </contour>
  </outline>
</glyph>
<glyph name="B" format="2">
  <advance width="1368"/>
  <unicode hex="0042"/>
  <anchor x="664" y="0" name="bottom"/>
  <anchor x="322" y="480" name="cross"/>
  <anchor x="666" y="1490" name="top"/>
  <anchor x="96" y="1490" name="topl"/>
  <outline>
    <contour>
      <point x="96" y="0" type="line"/>
      <point x="798" y="0" type="line" smooth="yes"/>
      <point x="1121" y="0"/>
      <point x="1320" y="177"/>
      <point x="1320" y="422" type="curve" smooth="yes"/>
      <point x="1320" y="632"/>
      <point x="1166" y="769"/>
      <point x="974" y="776" type="curve"/>
      <point x="974" y="792" type="line"/>
      <point x="1147" y="825"/>
      <point x="1262" y="953"/>
      <point x="1262" y="1118" type="curve" smooth="yes"/>
      <point x="1262" y="1344"/>
      <point x="1082" y="1490"/>
      <point x="742" y="1490" type="curve" smooth="yes"/>
      <point x="96" y="1490" type="line"/>
    </contour>
    <contour>
      <point x="500" y="322" type="line"/>
      <point x="500" y="638" type="line"/>
      <point x="696" y="638" type="line" smooth="yes"/>
      <point x="818" y="638"/>
      <point x="894" y="579"/>
      <point x="894" y="474" type="curve" smooth="yes"/>
      <point x="894" y="375"/>
      <point x="825" y="322"/>
      <point x="690" y="322" type="curve" smooth="yes"/>
    </contour>
    <contour>
      <point x="500" y="888" type="line"/>
      <point x="500" y="1172" type="line"/>
      <point x="672" y="1172" type="line" smooth="yes"/>
      <point x="772" y="1172"/>
      <point x="846" y="1121"/>
      <point x="846" y="1030" type="curve" smooth="yes"/>
      <point x="846" y="938"/>
      <point x="772" y="888"/>
      <point x="666" y="888" type="curve" smooth="yes"/>
    </contour>
  </outline>
</glyph>
<glyph name="C" format="2">
  <advance width="1531"/>
  <unicode hex="0043"/>
  <anchor x="780" y="6" name="cedilla"/>
  <anchor x="784" y="745" name="center"/>
  <anchor x="788" y="1490" name="top"/>
  <anchor x="1464" y="946" name="topr"/>
  <outline>
    <contour>
      <point x="788" y="-20" type="curve" smooth="yes"/>
      <point x="1225" y="-20"/>
      <point x="1446" y="290"/>
      <point x="1466" y="544" type="curve"/>
      <point x="1056" y="544" type="line"/>
      <point x="1036" y="417"/>
      <point x="946" y="332"/>
      <point x="798" y="332" type="curve" smooth="yes"/>
      <point x="600" y="332"/>
      <point x="486" y="471"/>
      <point x="486" y="744" type="curve" smooth="yes"/>
      <point x="486" y="1004"/>
      <point x="597" y="1158"/>
      <point x="800" y="1158" type="curve" smooth="yes"/>
      <point x="950" y="1158"/>
      <point x="1038" y="1073"/>
      <point x="1054" y="946" type="curve"/>
      <point x="1464" y="946" type="line"/>
      <point x="1427" y="1306"/>
      <point x="1159" y="1510"/>
      <point x="788" y="1510" type="curve" smooth="yes"/>
      <point x="387" y="1510"/>
      <point x="70" y="1242"/>
      <point x="70" y="744" type="curve" smooth="yes"/>
      <point x="70" y="249"/>
      <point x="379" y="-20"/>
    </contour>
  </outline>
</glyph>
<glyph name="D" format="2">
  <advance width="1480"/>
  <unicode hex="0044"/>
  <anchor x="674" y="0" name="bottom"/>
  <anchor x="360" y="745" name="cross"/>
  <anchor x="594" y="1490" name="top"/>
  <anchor x="96" y="1490" name="topl"/>
  <outline>
    <contour>
      <point x="670" y="0" type="line"/>
      <point x="1123" y="0"/>
      <point x="1410" y="279"/>
      <point x="1410" y="744" type="curve" smooth="yes"/>
      <point x="1410" y="1210"/>
      <point x="1123" y="1490"/>
      <point x="664" y="1490" type="curve" smooth="yes"/>
      <point x="256" y="1490" type="line"/>
      <point x="256" y="1146" type="line"/>
      <point x="642" y="1146" type="line" smooth="yes"/>
      <point x="876" y="1146"/>
      <point x="1004" y="1056"/>
      <point x="1004" y="744" type="curve" smooth="yes"/>
      <point x="1004" y="433"/>
      <point x="876" y="344"/>
      <point x="654" y="344" type="curve" smooth="yes"/>
      <point x="262" y="344" type="line"/>
      <point x="262" y="0" type="line"/>
    </contour>
    <contour>
      <point x="500" y="1490" type="line"/>
      <point x="96" y="1490" type="line"/>
      <point x="96" y="0" type="line"/>
      <point x="500" y="0" type="line"/>
    </contour>
  </outline>
</glyph>
<glyph name="E" format="2">
  <advance width="1255"/>
  <unicode hex="0045"/>
  <anchor x="633" y="0" name="bottom"/>
  <anchor x="635" y="0" name="cedilla"/>
  <anchor x="1166" y="0" name="ogonek"/>
  <anchor x="96" y="1490" name="tonos"/>
  <anchor x="633" y="1490" name="top"/>
  <outline>
    <contour>
      <point x="96" y="0" type="line"/>
      <point x="1166" y="0" type="line"/>
      <point x="1166" y="326" type="line"/>
      <point x="500" y="326" type="line"/>
      <point x="500" y="594" type="line"/>
      <point x="1114" y="594" type="line"/>
      <point x="1114" y="912" type="line"/>
      <point x="500" y="912" type="line"/>
      <point x="500" y="1164" type="line"/>
      <point x="1170" y="1164" type="line"/>
      <point x="1170" y="1490" type="line"/>
      <point x="96" y="1490" type="line"/>
    </contour>
  </outline>
</glyph>
<glyph name="F" format="2">
  <advance width="1196"/>
  <unicode hex="0046"/>
  <anchor x="298" y="0" name="bottom"/>
  <anchor x="298" y="250" name="cross"/>
  <anchor x="96" y="0" name="lfthook"/>
  <anchor x="622" y="1490" name="top"/>
  <outline>
    <contour>
      <point x="96" y="0" type="line"/>
      <point x="500" y="0" type="line"/>
      <point x="500" y="510" type="line"/>
      <point x="1080" y="510" type="line"/>
      <point x="1080" y="828" type="line"/>
      <point x="500" y="828" type="line"/>
      <point x="500" y="1164" type="line"/>
      <point x="1144" y="1164" type="line"/>
      <point x="1144" y="1490" type="line"/>
      <point x="96" y="1490" type="line"/>
    </contour>
  </outline>
</glyph>
<glyph name="G" format="2">
  <advance width="1562"/>
  <unicode hex="0047"/>
  <anchor x="782" y="0" name="bottom"/>
  <anchor x="1201" y="434" name="cross"/>
  <anchor x="786" y="1490" name="top"/>
  <anchor x="1452" y="998" name="topr"/>
  <outline>
    <contour>
      <point x="752" y="-20" type="curve" smooth="yes"/>
      <point x="1059" y="-20"/>
      <point x="1182" y="172"/>
      <point x="1182" y="444" type="curve" smooth="yes"/>
      <point x="1182" y="552" type="line"/>
      <point x="1080" y="552" type="line"/>
      <point x="1080" y="417"/>
      <point x="981" y="332"/>
      <point x="812" y="332" type="curve" smooth="yes"/>
      <point x="595" y="332"/>
      <point x="486" y="486"/>
      <point x="486" y="748" type="curve" smooth="yes"/>
      <point x="486" y="1006"/>
      <point x="603" y="1158"/>
      <point x="806" y="1158" type="curve" smooth="yes"/>
      <point x="933" y="1158"/>
      <point x="1019" y="1100"/>
      <point x="1044" y="998" type="curve"/>
      <point x="1452" y="998" type="line"/>
      <point x="1421" y="1297"/>
      <point x="1149" y="1510"/>
      <point x="798" y="1510" type="curve" smooth="yes"/>
      <point x="396" y="1510"/>
      <point x="70" y="1233"/>
      <point x="70" y="742" type="curve" smooth="yes"/>
      <point x="70" y="271"/>
      <point x="376" y="-20"/>
    </contour>
    <contour>
      <point x="1221" y="0" type="line"/>
      <point x="1470" y="0" type="line"/>
      <point x="1470" y="832" type="line"/>
      <point x="810" y="832" type="line"/>
      <point x="810" y="544" type="line"/>
      <point x="1174" y="544" type="line"/>
      <point x="1174" y="336" type="line"/>
    </contour>
  </outline>
</glyph>
<glyph name="H" format="2">
  <advance width="1536"/>
  <unicode hex="0048"/>
  <anchor x="768" y="0" name="bottom"/>
  <anchor x="296" y="0" name="cedilla"/>
  <anchor x="1440" y="0" name="cyrtic"/>
  <anchor x="1036" y="0" name="lfthook"/>
  <anchor x="1440" y="0" name="right"/>
  <anchor x="96" y="1490" name="tonos"/>
  <anchor x="768" y="1490" name="top"/>
  <outline>
    <contour>
      <point x="96" y="0" type="line"/>
      <point x="500" y="0" type="line"/>
      <point x="500" y="598" type="line"/>
      <point x="1036" y="598" type="line"/>
      <point x="1036" y="0" type="line"/>
      <point x="1440" y="0" type="line"/>
      <point x="1440" y="1490" type="line"/>
      <point x="1036" y="1490" type="line"/>
      <point x="1036" y="924" type="line"/>
      <point x="500" y="924" type="line"/>
      <point x="500" y="1490" type="line"/>
      <point x="96" y="1490" type="line"/>
    </contour>
  </outline>
</glyph>
<glyph name="I" format="2">
  <advance width="596"/>
  <unicode hex="0049"/>
  <anchor x="296" y="0" name="bottom"/>
  <anchor x="296" y="788" name="cross"/>
  <anchor x="500" y="0" name="ogonek"/>
  <anchor x="526" y="0" name="right"/>
  <anchor x="96" y="1490" name="tonos"/>
  <anchor x="300" y="1490" name="top"/>
  <outline>
    <contour>
      <point x="558" y="1490" type="line"/>
      <point x="38" y="1490" type="line"/>
      <point x="38" y="1382" type="line"/>
      <point x="96" y="1382" type="line"/>
      <point x="96" y="108" type="line"/>
      <point x="38" y="108" type="line"/>
      <point x="38" y="0" type="line"/>
      <point x="558" y="0" type="line"/>
      <point x="558" y="108" type="line"/>
      <point x="500" y="108" type="line"/>
      <point x="500" y="1382" type="line"/>
      <point x="558" y="1382" type="line"/>
    </contour>
  </outline>
</glyph>
<glyph name="J" format="2">
  <advance width="1220"/>
  <unicode hex="004A"/>
  <anchor x="920" y="884" name="cross"/>
  <anchor x="924" y="1490" name="top"/>
  <outline>
    <contour>
      <point x="586" y="-20" type="curve" smooth="yes"/>
      <point x="931" y="-20"/>
      <point x="1124" y="155"/>
      <point x="1124" y="468" type="curve" smooth="yes"/>
      <point x="1124" y="1490" type="line"/>
      <point x="726" y="1490" type="line"/>
      <point x="726" y="460" type="line" smooth="yes"/>
      <point x="726" y="348"/>
      <point x="676" y="294"/>
      <point x="586" y="294" type="curve" smooth="yes"/>
      <point x="495" y="294"/>
      <point x="444" y="348"/>
      <point x="444" y="458" type="curve" smooth="yes"/>
      <point x="444" y="559" type="line"/>
      <point x="40" y="559" type="line"/>
      <point x="40" y="466" type="line" smooth="yes"/>
      <point x="40" y="154"/>
      <point x="236" y="-20"/>
    </contour>
  </outline>
</glyph>
<glyph name="L" format="2">
  <advance width="1158"/>
  <unicode hex="004C"/>
  <anchor x="600" y="0" name="bottom"/>
  <anchor x="360" y="745" name="cross"/>
  <anchor x="606" y="872" name="dot"/>
  <anchor x="704" y="1490" name="raccent"/>
  <anchor x="294" y="1490" name="top"/>
  <outline>
    <contour>
      <point x="96" y="0" type="line"/>
      <point x="1102" y="0" type="line"/>
      <point x="1102" y="326" type="line"/>
      <point x="500" y="326" type="line"/>
      <point x="500" y="1490" type="line"/>
      <point x="96" y="1490" type="line"/>
    </contour>
  </outline>
</glyph>
<glyph name="M" format="2">
  <advance width="1958"/>
  <unicode hex="004D"/>
  <anchor x="979" y="0" name="bottom"/>
  <anchor x="1862" y="0" name="cyrtic"/>
  <anchor x="979" y="1490" name="top"/>
  <outline>
    <contour>
      <point x="96" y="0" type="line"/>
      <point x="504" y="0" type="line"/>
      <point x="504" y="576" type="line" smooth="yes"/>
      <point x="504" y="712"/>
      <point x="488" y="1059"/>
      <point x="488" y="1288" type="curve"/>
      <point x="459" y="1288" type="line"/>
      <point x="510" y="1035"/>
      <point x="592" y="719"/>
      <point x="636" y="576" type="curve" smooth="yes"/>
      <point x="812" y="0" type="line"/>
      <point x="1148" y="0" type="line"/>
      <point x="1321" y="576" type="line" smooth="yes"/>
      <point x="1364" y="719"/>
      <point x="1444" y="1035"/>
      <point x="1493" y="1288" type="curve"/>
      <point x="1470" y="1288" type="line"/>
      <point x="1470" y="1059"/>
      <point x="1454" y="712"/>
      <point x="1454" y="576" type="curve" smooth="yes"/>
      <point x="1454" y="0" type="line"/>
      <point x="1862" y="0" type="line"/>
      <point x="1862" y="1490" type="line"/>
      <point x="1223" y="1490" type="line"/>
      <point x="1091" y="1024" type="line" smooth="yes"/>
      <point x="1046" y="864"/>
      <point x="969" y="449"/>
      <point x="943" y="258" type="curve"/>
      <point x="1018" y="258" type="line"/>
      <point x="992" y="449"/>
      <point x="914" y="864"/>
      <point x="868" y="1024" type="curve" smooth="yes"/>
      <point x="734" y="1490" type="line"/>
      <point x="96" y="1490" type="line"/>
    </contour>
  </outline>
</glyph>
<glyph name="N" format="2">
  <advance width="1576"/>
  <unicode hex="004E"/>
  <anchor x="788" y="0" name="bottom"/>
  <anchor x="96" y="0" name="lfthook"/>
  <anchor x="1480" y="0" name="lfthook2"/>
  <anchor x="788" y="1490" name="top"/>
  <outline>
    <contour>
      <point x="96" y="0" type="line"/>
      <point x="512" y="0" type="line"/>
      <point x="512" y="544" type="line" smooth="yes"/>
      <point x="512" y="665"/>
      <point x="496" y="885"/>
      <point x="480" y="1096" type="curve"/>
      <point x="438" y="1096" type="line"/>
      <point x="539" y="859"/>
      <point x="596" y="729"/>
      <point x="709" y="544" type="curve" smooth="yes"/>
      <point x="1040" y="0" type="line"/>
      <point x="1480" y="0" type="line"/>
      <point x="1480" y="1490" type="line"/>
      <point x="1064" y="1490" type="line"/>
      <point x="1064" y="944" type="line" smooth="yes"/>
      <point x="1064" y="801"/>
      <point x="1086" y="534"/>
      <point x="1096" y="372" type="curve"/>
      <point x="1131" y="372" type="line"/>
      <point x="1053" y="616"/>
      <point x="983" y="753"/>
      <point x="891" y="905" type="curve" smooth="yes"/>
      <point x="536" y="1490" type="line"/>
      <point x="96" y="1490" type="line"/>
    </contour>
  </outline>
</glyph>
<glyph name="O" format="2">
  <advance width="1588"/>
  <unicode hex="004F"/>
  <anchor x="794" y="0" name="bottom"/>
  <anchor x="794" y="745" name="center"/>
  <anchor x="1518" y="744" name="ogonek"/>
  <anchor x="208" y="1490" name="tonos"/>
  <anchor x="794" y="1490" name="top"/>
  <anchor x="794" y="1510" name="tophorn"/>
  <outline>
    <contour>
      <point x="794" y="-20" type="curve" smooth="yes"/>
      <point x="1199" y="-20"/>
      <point x="1518" y="247"/>
      <point x="1518" y="744" type="curve" smooth="yes"/>
      <point x="1518" y="1242"/>
      <point x="1199" y="1510"/>
      <point x="794" y="1510" type="curve" smooth="yes"/>
      <point x="387" y="1510"/>
      <point x="70" y="1242"/>
      <point x="70" y="744" type="curve" smooth="yes"/>
      <point x="70" y="250"/>
      <point x="387" y="-20"/>
    </contour>
    <contour>
      <point x="794" y="332" type="curve" smooth="yes"/>
      <point x="594" y="332"/>
      <point x="486" y="477"/>
      <point x="486" y="744" type="curve" smooth="yes"/>
      <point x="486" y="1012"/>
      <point x="594" y="1158"/>
      <point x="794" y="1158" type="curve" smooth="yes"/>
      <point x="995" y="1158"/>
      <point x="1102" y="1012"/>
      <point x="1102" y="744" type="curve" smooth="yes"/>
      <point x="1102" y="477"/>
      <point x="995" y="332"/>
    </contour>
  </outline>
</glyph>
<glyph name="P" format="2">
  <advance width="1344"/>
  <unicode hex="0050"/>
  <anchor x="76" y="1490" name="tonos"/>
  <anchor x="658" y="1490" name="top"/>
  <anchor x="96" y="1490" name="topl"/>
  <outline>
    <contour>
      <point x="96" y="0" type="line"/>
      <point x="500" y="0" type="line"/>
      <point x="500" y="1166" type="line"/>
      <point x="642" y="1166" type="line" smooth="yes"/>
      <point x="785" y="1166"/>
      <point x="870" y="1091"/>
      <point x="870" y="962" type="curve" smooth="yes"/>
      <point x="870" y="836"/>
      <point x="785" y="756"/>
      <point x="642" y="756" type="curve" smooth="yes"/>
      <point x="340" y="756" type="line"/>
      <point x="340" y="442" type="line"/>
      <point x="724" y="442" type="line" smooth="yes"/>
      <point x="1064" y="442"/>
      <point x="1292" y="642"/>
      <point x="1292" y="962" type="curve" smooth="yes"/>
      <point x="1292" y="1280"/>
      <point x="1070" y="1490"/>
      <point x="738" y="1490" type="curve" smooth="yes"/>
      <point x="96" y="1490" type="line"/>
    </contour>
  </outline>
</glyph>
<glyph name="Q" format="2">
  <advance width="1612"/>
  <unicode hex="0051"/>
  <anchor x="794" y="0" name="bottom"/>
  <anchor x="794" y="745" name="center"/>
  <anchor x="1518" y="744" name="ogonek"/>
  <anchor x="208" y="1490" name="tonos"/>
  <anchor x="794" y="1490" name="top"/>
  <anchor x="794" y="1510" name="tophorn"/>
  <outline>
    <contour>
      <point x="672" y="552" type="line"/>
      <point x="888" y="268" type="line"/>
      <point x="1006" y="96" type="line"/>
      <point x="1184" y="-110" type="line"/>
      <point x="1542" y="-110" type="line"/>
      <point x="1292" y="192" type="line"/>
      <point x="1100" y="410" type="line"/>
      <point x="986" y="552" type="line"/>
    </contour>
    <component base="O"/>
  </outline>
</glyph>
<glyph name="R" format="2">
  <advance width="1368"/>
  <unicode hex="0052"/>
  <anchor x="698" y="0" name="bottom"/>
  <anchor x="674" y="1490" name="top"/>
  <outline>
    <contour>
      <point x="96" y="0" type="line"/>
      <point x="500" y="0" type="line"/>
      <point x="500" y="1166" type="line"/>
      <point x="642" y="1166" type="line" smooth="yes"/>
      <point x="785" y="1166"/>
      <point x="870" y="1111"/>
      <point x="870" y="984" type="curve" smooth="yes"/>
      <point x="870" y="856"/>
      <point x="785" y="806"/>
      <point x="642" y="806" type="curve" smooth="yes"/>
      <point x="340" y="806" type="line"/>
      <point x="340" y="492" type="line"/>
      <point x="724" y="492" type="line" smooth="yes"/>
      <point x="1064" y="492"/>
      <point x="1292" y="663"/>
      <point x="1292" y="984" type="curve" smooth="yes"/>
      <point x="1292" y="1300"/>
      <point x="1070" y="1490"/>
      <point x="738" y="1490" type="curve" smooth="yes"/>
      <point x="96" y="1490" type="line"/>
    </contour>
    <contour>
      <point x="902" y="0" type="line"/>
      <point x="1342" y="0" type="line"/>
      <point x="968" y="684" type="line"/>
      <point x="538" y="684" type="line"/>
    </contour>
  </outline>
</glyph>
<glyph name="S" format="2">
  <advance width="1364"/>
  <unicode hex="0053"/>
  <anchor x="690" y="0" name="bottom"/>
  <anchor x="686" y="0" name="cedilla"/>
  <anchor x="684" y="1490" name="top"/>
  <outline>
    <contour>
      <point x="702" y="-18" type="curve" smooth="yes"/>
      <point x="1079" y="-18"/>
      <point x="1306" y="145"/>
      <point x="1306" y="440" type="curve" smooth="yes"/>
      <point x="1306" y="666"/>
      <point x="1169" y="826"/>
      <point x="840" y="896" type="curve" smooth="yes"/>
      <point x="718" y="922" type="line" smooth="yes"/>
      <point x="577" y="952"/>
      <point x="518" y="993"/>
      <point x="518" y="1064" type="curve" smooth="yes"/>
      <point x="518" y="1130"/>
      <point x="573" y="1178"/>
      <point x="698" y="1178" type="curve" smooth="yes"/>
      <point x="829" y="1178"/>
      <point x="891" y="1121"/>
      <point x="898" y="1024" type="curve"/>
      <point x="1286" y="1024" type="line"/>
      <point x="1284" y="1316"/>
      <point x="1059" y="1510"/>
      <point x="698" y="1510" type="curve" smooth="yes"/>
      <point x="344" y="1510"/>
      <point x="96" y="1319"/>
      <point x="96" y="1036" type="curve" smooth="yes"/>
      <point x="96" y="803"/>
      <point x="257" y="672"/>
      <point x="520" y="616" type="curve" smooth="yes"/>
      <point x="670" y="584" type="line" smooth="yes"/>
      <point x="835" y="549"/>
      <point x="894" y="507"/>
      <point x="894" y="440" type="curve" smooth="yes" name="hr00"/>
      <point x="894" y="366"/>
      <point x="825" y="314"/>
      <point x="696" y="314" type="curve" smooth="yes"/>
      <point x="540" y="314"/>
      <point x="449" y="387"/>
      <point x="442" y="524" type="curve"/>
      <point x="58" y="524" type="line"/>
      <point x="60" y="150"/>
      <point x="313" y="-18"/>
    </contour>
  </outline>
</glyph>
<glyph name="T" format="2">
  <advance width="1406"/>
  <unicode hex="0054"/>
  <anchor x="703" y="0" name="bottom"/>
  <anchor x="905" y="0" name="bottomr"/>
  <anchor x="704" y="0" name="cedilla"/>
  <anchor x="703" y="666" name="cross"/>
  <anchor x="905" y="0" name="cyrtic"/>
  <anchor x="856" y="0" name="right"/>
  <anchor x="703" y="1490" name="top"/>
  <outline>
    <contour>
      <point x="56" y="1164" type="line"/>
      <point x="501" y="1164" type="line"/>
      <point x="501" y="0" type="line"/>
      <point x="905" y="0" type="line"/>
      <point x="905" y="1164" type="line"/>
      <point x="1350" y="1164" type="line"/>
      <point x="1350" y="1490" type="line"/>
      <point x="56" y="1490" type="line"/>
    </contour>
  </outline>
</glyph>
<glyph name="U" format="2">
  <advance width="1478"/>
  <unicode hex="0055"/>
  <anchor x="738" y="0" name="bottom"/>
  <anchor x="1382" y="536" name="ogonek"/>
  <anchor x="866" y="0" name="right"/>
  <anchor x="978" y="1490" name="rtophorn"/>
  <anchor x="738" y="1490" name="top"/>
  <outline>
    <contour>
      <point x="738" y="-18" type="curve" smooth="yes"/>
      <point x="1121" y="-18"/>
      <point x="1382" y="195"/>
      <point x="1382" y="536" type="curve" smooth="yes"/>
      <point x="1382" y="1490" type="line"/>
      <point x="978" y="1490" type="line"/>
      <point x="978" y="570" type="line" smooth="yes"/>
      <point x="978" y="431"/>
      <point x="878" y="332"/>
      <point x="738" y="332" type="curve" smooth="yes"/>
      <point x="600" y="332"/>
      <point x="500" y="431"/>
      <point x="500" y="570" type="curve" smooth="yes"/>
      <point x="500" y="1490" type="line"/>
      <point x="96" y="1490" type="line"/>
      <point x="96" y="536" type="line" smooth="yes"/>
      <point x="96" y="195"/>
      <point x="353" y="-18"/>
    </contour>
  </outline>
</glyph>
<glyph name="V" format="2">
  <advance width="1628"/>
  <unicode hex="0056"/>
  <anchor x="814" y="0" name="bottom"/>
  <anchor x="814" y="1490" name="top"/>
  <outline>
    <contour>
      <point x="546" y="0" type="line"/>
      <point x="1098" y="0" type="line"/>
      <point x="1582" y="1490" type="line"/>
      <point x="1130" y="1490" type="line"/>
      <point x="965" y="912" type="line" smooth="yes"/>
      <point x="893" y="661"/>
      <point x="837" y="402"/>
      <point x="781" y="135" type="curve"/>
      <point x="871" y="135" type="line"/>
      <point x="812" y="402"/>
      <point x="752" y="661"/>
      <point x="677" y="912" type="curve" smooth="yes"/>
      <point x="504" y="1490" type="line"/>
      <point x="46" y="1490" type="line"/>
    </contour>
  </outline>
</glyph>
<glyph name="W" format="2">
  <advance width="2216"/>
  <unicode hex="0057"/>
  <anchor x="1108" y="0" name="bottom"/>
  <anchor x="1108" y="1490" name="top"/>
  <outline>
    <contour>
      <point x="441" y="0" type="line"/>
      <point x="898" y="0" type="line"/>
      <point x="1047" y="607" type="line" smooth="yes"/>
      <point x="1099" y="819"/>
      <point x="1110" y="1072"/>
      <point x="1161" y="1296" type="curve"/>
      <point x="1055" y="1296" type="line"/>
      <point x="1098" y="1072"/>
      <point x="1119" y="816"/>
      <point x="1170" y="607" type="curve" smooth="yes"/>
      <point x="1318" y="0" type="line"/>
      <point x="1775" y="0" type="line"/>
      <point x="2170" y="1490" type="line"/>
      <point x="1718" y="1490" type="line"/>
      <point x="1598" y="912" type="line" smooth="yes"/>
      <point x="1553" y="693"/>
      <point x="1523" y="395"/>
      <point x="1486" y="176" type="curve"/>
      <point x="1567" y="176" type="line"/>
      <point x="1525" y="395"/>
      <point x="1492" y="693"/>
      <point x="1442" y="912" type="curve" smooth="yes"/>
      <point x="1310" y="1490" type="line"/>
      <point x="906" y="1490" type="line"/>
      <point x="774" y="912" type="line" smooth="yes"/>
      <point x="724" y="693"/>
      <point x="691" y="395"/>
      <point x="649" y="176" type="curve"/>
      <point x="729" y="176" type="line"/>
      <point x="692" y="395"/>
      <point x="662" y="693"/>
      <point x="617" y="912" type="curve" smooth="yes"/>
      <point x="498" y="1490" type="line"/>
      <point x="46" y="1490" type="line"/>
    </contour>
  </outline>
</glyph>
<glyph name="X" format="2">
  <advance width="1610"/>
  <unicode hex="0058"/>
  <anchor x="803" y="-6" name="bottom"/>
  <anchor x="803" y="744" name="cross"/>
  <anchor x="1485" y="0" name="cyrtic"/>
  <anchor x="803" y="1490" name="top"/>
  <outline>
    <contour>
      <point x="46" y="0" type="line"/>
      <point x="516" y="0" type="line"/>
      <point x="687" y="256" type="line" smooth="yes"/>
      <point x="771" y="382"/>
      <point x="784" y="439"/>
      <point x="831" y="515" type="curve"/>
      <point x="777" y="515" type="line"/>
      <point x="824" y="439"/>
      <point x="839" y="383"/>
      <point x="919" y="256" type="curve" smooth="yes"/>
      <point x="1081" y="0" type="line"/>
      <point x="1564" y="0" type="line"/>
      <point x="942" y="915" type="line"/>
      <point x="942" y="626" type="line"/>
      <point x="1506" y="1490" type="line"/>
      <point x="1049" y="1490" type="line"/>
      <point x="928" y="1296" type="line" smooth="yes"/>
      <point x="840" y="1154"/>
      <point x="807" y="1031"/>
      <point x="748" y="931" type="curve"/>
      <point x="870" y="931" type="line"/>
      <point x="813" y="1031"/>
      <point x="781" y="1154"/>
      <point x="694" y="1296" type="curve" smooth="yes"/>
      <point x="575" y="1490" type="line"/>
      <point x="106" y="1490" type="line"/>
      <point x="688" y="602" type="line"/>
      <point x="688" y="911" type="line"/>
    </contour>
  </outline>
</glyph>
<glyph name="Y" format="2">
  <advance width="1588"/>
  <unicode hex="0059"/>
  <anchor x="799" y="0" name="bottom"/>
  <anchor x="800" y="323" name="cross"/>
  <anchor x="1003" y="0" name="ogonek"/>
  <anchor x="46" y="1490" name="tonos"/>
  <anchor x="794" y="1490" name="top"/>
  <outline>
    <contour>
      <point x="601" y="0" type="line"/>
      <point x="1003" y="0" type="line"/>
      <point x="1003" y="518" type="line"/>
      <point x="1542" y="1490" type="line"/>
      <point x="1069" y="1490" type="line"/>
      <point x="868" y="1040" type="line" smooth="yes"/>
      <point x="831" y="958"/>
      <point x="805" y="877"/>
      <point x="776" y="768" type="curve"/>
      <point x="835" y="768" type="line"/>
      <point x="803" y="877"/>
      <point x="775" y="958"/>
      <point x="736" y="1040" type="curve" smooth="yes"/>
      <point x="521" y="1490" type="line"/>
      <point x="46" y="1490" type="line"/>
      <point x="601" y="518" type="line"/>
    </contour>
  </outline>
</glyph>
<glyph name="Z" format="2">
  <advance width="1422"/>
  <unicode hex="005A"/>
  <anchor x="712" y="0" name="bottom"/>
  <anchor x="1318" y="0" name="bottomr"/>
  <anchor x="710" y="745" name="cross"/>
  <anchor x="716" y="1490" name="top"/>
  <outline>
    <contour>
      <point x="102" y="0" type="line"/>
      <point x="1318" y="0" type="line"/>
      <point x="1318" y="326" type="line"/>
      <point x="896" y="326" type="line" smooth="yes"/>
      <point x="742" y="326"/>
      <point x="588" y="326"/>
      <point x="434" y="310" type="curve"/>
      <point x="459" y="180" type="line"/>
      <point x="574" y="301"/>
      <point x="689" y="423"/>
      <point x="780" y="544" type="curve" smooth="yes"/>
      <point x="1320" y="1266" type="line"/>
      <point x="1320" y="1490" type="line"/>
      <point x="104" y="1490" type="line"/>
      <point x="104" y="1164" type="line"/>
      <point x="560" y="1164" type="line" smooth="yes"/>
      <point x="703" y="1164"/>
      <point x="845" y="1164"/>
      <point x="988" y="1180" type="curve"/>
      <point x="963" y="1310" type="line"/>
      <point x="852" y="1194"/>
      <point x="741" y="1077"/>
      <point x="654" y="961" type="curve" smooth="yes"/>
      <point x="102" y="224" type="line"/>
    </contour>
  </outline>
</glyph>
<glyph name="bracketleft" format="2">
  <advance width="794"/>
  <unicode hex="005B"/>
  <anchor x="339" y="651" name="cross"/>
  <outline>
    <contour>
      <point x="144" y="-279" type="line"/>
      <point x="710" y="-279" type="line"/>
      <point x="710" y="13" type="line"/>
      <point x="534" y="13" type="line"/>
      <point x="534" y="1289" type="line"/>
      <point x="710" y="1289" type="line"/>
      <point x="710" y="1581" type="line"/>
      <point x="144" y="1581" type="line"/>
    </contour>
  </outline>
</glyph>
<glyph name="backslash" format="2">
  <advance width="844"/>
  <unicode hex="005C"/>
  <outline>
    <contour>
      <point x="492" y="-224" type="line"/>
      <point x="832" y="-224" type="line"/>
      <point x="352" y="1560" type="line"/>
      <point x="12" y="1560" type="line"/>
    </contour>
  </outline>
</glyph>
<glyph name="bracketright" format="2">
  <advance width="794"/>
  <unicode hex="005D"/>
  <anchor x="455" y="651" name="cross"/>
  <outline>
    <contour>
      <point x="84" y="-279" type="line"/>
      <point x="650" y="-279" type="line"/>
      <point x="650" y="1581" type="line"/>
      <point x="84" y="1581" type="line"/>
      <point x="84" y="1289" type="line"/>
      <point x="260" y="1289" type="line"/>
      <point x="260" y="13" type="line"/>
      <point x="84" y="13" type="line"/>
    </contour>
  </outline>
</glyph>
<glyph name="asciicircum" format="2">
  <advance width="1024"/>
  <unicode hex="005E"/>
  <outline>
    <contour>
      <point x="486" y="1306" type="line"/>
      <point x="486" y="1222" type="line"/>
      <point x="538" y="1222" type="line"/>
      <point x="538" y="1306" type="line"/>
    </contour>
    <contour>
      <point x="58" y="814" type="line"/>
      <point x="334" y="814" type="line"/>
      <point x="518" y="1250" type="line"/>
      <point x="506" y="1250" type="line"/>
      <point x="690" y="814" type="line"/>
      <point x="966" y="814" type="line"/>
      <point x="654" y="1466" type="line"/>
      <point x="370" y="1466" type="line"/>
    </contour>
  </outline>
</glyph>
<glyph name="b" format="2">
  <advance width="1322"/>
  <unicode hex="0062"/>
  <anchor x="670" y="0" name="bottom"/>
  <anchor x="384" y="1304" name="cross"/>
  <anchor x="838" y="1304" name="top"/>
  <anchor x="102" y="1490" name="topbar"/>
  <outline>
    <contour>
      <point x="820" y="-14" type="curve" smooth="yes"/>
      <point x="1059" y="-14"/>
      <point x="1260" y="172"/>
      <point x="1260" y="558" type="curve" smooth="yes"/>
      <point x="1260" y="963"/>
      <point x="1045" y="1132"/>
      <point x="824" y="1132" type="curve" smooth="yes"/>
      <point x="658" y="1132"/>
      <point x="553" y="1036"/>
      <point x="510" y="922" type="curve"/>
      <point x="504" y="922" type="line"/>
      <point x="504" y="1490" type="line"/>
      <point x="102" y="1490" type="line"/>
      <point x="102" y="0" type="line"/>
      <point x="500" y="0" type="line"/>
      <point x="500" y="184" type="line"/>
      <point x="510" y="184" type="line"/>
      <point x="556" y="70"/>
      <point x="663" y="-14"/>
    </contour>
    <contour>
      <point x="672" y="294" type="curve" smooth="yes"/>
      <point x="562" y="294"/>
      <point x="494" y="396"/>
      <point x="494" y="558" type="curve" smooth="yes"/>
      <point x="494" y="724"/>
      <point x="562" y="824"/>
      <point x="672" y="824" type="curve" smooth="yes"/>
      <point x="783" y="824"/>
      <point x="846" y="724"/>
      <point x="846" y="558" type="curve" smooth="yes"/>
      <point x="846" y="393"/>
      <point x="783" y="294"/>
    </contour>
  </outline>
</glyph>
<glyph name="c" format="2">
  <advance width="1235"/>
  <unicode hex="0063"/>
  <anchor x="640" y="0" name="bottom"/>
  <anchor x="640" y="0" name="cedilla"/>
  <anchor x="640" y="559" name="center"/>
  <anchor x="640" y="1118" name="top"/>
  <anchor x="1175" y="707" name="topr"/>
  <outline>
    <contour>
      <point x="640" y="-20" type="curve" smooth="yes"/>
      <point x="950" y="-20"/>
      <point x="1148" y="146"/>
      <point x="1175" y="412" type="curve"/>
      <point x="806" y="466" type="line"/>
      <point x="789" y="345"/>
      <point x="734" y="280"/>
      <point x="646" y="280" type="curve" smooth="yes"/>
      <point x="540" y="280"/>
      <point x="472" y="375"/>
      <point x="472" y="558" type="curve" smooth="yes"/>
      <point x="472" y="742"/>
      <point x="540" y="832"/>
      <point x="646" y="832" type="curve" smooth="yes"/>
      <point x="735" y="832"/>
      <point x="787" y="769"/>
      <point x="806" y="652" type="curve"/>
      <point x="1175" y="707" type="line"/>
      <point x="1149" y="966"/>
      <point x="948" y="1132"/>
      <point x="640" y="1132" type="curve" smooth="yes"/>
      <point x="276" y="1132"/>
      <point x="62" y="899"/>
      <point x="62" y="556" type="curve" smooth="yes"/>
      <point x="62" y="212"/>
      <point x="276" y="-20"/>
    </contour>
  </outline>
</glyph>
<glyph name="e" format="2">
  <advance width="1242"/>
  <unicode hex="0065"/>
  <anchor x="622" y="0" name="bottom"/>
  <anchor x="628" y="0" name="cedilla"/>
  <anchor x="1168" y="307" name="ogonek"/>
  <anchor x="622" y="1118" name="top"/>
  <outline>
    <contour>
      <point x="638" y="-20" type="curve" smooth="yes"/>
      <point x="923" y="-20"/>
      <point x="1111" y="106"/>
      <point x="1168" y="307" type="curve"/>
      <point x="814" y="359" type="line"/>
      <point x="790" y="297"/>
      <point x="728" y="262"/>
      <point x="646" y="262" type="curve" smooth="yes"/>
      <point x="531" y="262"/>
      <point x="456" y="332"/>
      <point x="456" y="480" type="curve" smooth="yes"/>
      <point x="456" y="640" type="line" smooth="yes"/>
      <point x="456" y="775"/>
      <point x="516" y="850"/>
      <point x="632" y="850" type="curve" smooth="yes"/>
      <point x="748" y="850"/>
      <point x="808" y="775"/>
      <point x="808" y="640" type="curve"/>
      <point x="996" y="686" type="line"/>
      <point x="186" y="686" type="line"/>
      <point x="186" y="466" type="line"/>
      <point x="1184" y="466" type="line"/>
      <point x="1184" y="558" type="line" smooth="yes"/>
      <point x="1184" y="914"/>
      <point x="966" y="1132"/>
      <point x="628" y="1132" type="curve" smooth="yes"/>
      <point x="282" y="1132"/>
      <point x="62" y="902"/>
      <point x="62" y="556" type="curve" smooth="yes"/>
      <point x="62" y="194"/>
      <point x="279" y="-20"/>
    </contour>
  </outline>
</glyph>
<glyph name="f" format="2">
  <advance width="864"/>
  <unicode hex="0066"/>
  <anchor x="398" y="0" name="bottom"/>
  <anchor x="398" y="768" name="cross"/>
  <anchor x="455" y="1552" name="top"/>
  <outline>
    <contour>
      <point x="811" y="1118" type="line"/>
      <point x="20" y="1118" type="line"/>
      <point x="20" y="826" type="line"/>
      <point x="811" y="826" type="line"/>
    </contour>
    <component base="_part.f_base" xOffset="14"/>
  </outline>
</glyph>
<glyph name="g" format="2">
  <advance width="1326"/>
  <unicode hex="0067"/>
  <anchor x="636" y="-416" name="bottom"/>
  <anchor x="1020" y="568" name="cross"/>
  <anchor x="651" y="1118" name="top"/>
  <anchor x="1224" y="1118" name="topr"/>
  <outline>
    <contour>
      <point x="636" y="-442" type="curve" smooth="yes"/>
      <point x="989" y="-442"/>
      <point x="1224" y="-273"/>
      <point x="1224" y="42" type="curve" smooth="yes"/>
      <point x="1224" y="1118" type="line"/>
      <point x="826" y="1118" type="line"/>
      <point x="826" y="922" type="line"/>
      <point x="818" y="922" type="line"/>
      <point x="774" y="1036"/>
      <point x="665" y="1132"/>
      <point x="500" y="1132" type="curve" smooth="yes"/>
      <point x="278" y="1132"/>
      <point x="62" y="963"/>
      <point x="62" y="558" type="curve" smooth="yes"/>
      <point x="62" y="172"/>
      <point x="264" y="14"/>
      <point x="502" y="14" type="curve" smooth="yes"/>
      <point x="653" y="14"/>
      <point x="756" y="79"/>
      <point x="799" y="192" type="curve"/>
      <point x="828" y="192" type="line"/>
      <point x="828" y="2" type="line" smooth="yes"/>
      <point x="828" y="-115"/>
      <point x="764" y="-172"/>
      <point x="634" y="-172" type="curve" smooth="yes"/>
      <point x="531" y="-172"/>
      <point x="463" y="-136"/>
      <point x="451" y="-76" type="curve"/>
      <point x="98" y="-128" type="line"/>
      <point x="130" y="-320"/>
      <point x="330" y="-442"/>
    </contour>
    <contour>
      <point x="650" y="300" type="curve" smooth="yes"/>
      <point x="540" y="300"/>
      <point x="476" y="393"/>
      <point x="476" y="558" type="curve" smooth="yes"/>
      <point x="476" y="724"/>
      <point x="540" y="824"/>
      <point x="650" y="824" type="curve" smooth="yes"/>
      <point x="761" y="824"/>
      <point x="828" y="724"/>
      <point x="828" y="558" type="curve" smooth="yes"/>
      <point x="828" y="396"/>
      <point x="761" y="300"/>
    </contour>
  </outline>
</glyph>
<glyph name="h" format="2">
  <advance width="1330"/>
  <unicode hex="0068"/>
  <anchor x="664" y="0" name="bottom"/>
  <anchor x="302" y="0" name="cedilla"/>
  <anchor x="368" y="1304" name="cross"/>
  <anchor x="826" y="0" name="lfthook"/>
  <anchor x="295" y="1490" name="top"/>
  <outline>
    <contour>
      <point x="504" y="628" type="line" smooth="yes"/>
      <point x="504" y="739"/>
      <point x="567" y="806"/>
      <point x="666" y="806" type="curve" smooth="yes"/>
      <point x="767" y="806"/>
      <point x="826" y="739"/>
      <point x="826" y="628" type="curve" smooth="yes"/>
      <point x="826" y="0" type="line"/>
      <point x="1228" y="0" type="line"/>
      <point x="1228" y="712" type="line" smooth="yes"/>
      <point x="1228" y="956"/>
      <point x="1075" y="1132"/>
      <point x="838" y="1132" type="curve" smooth="yes"/>
      <point x="633" y="1132"/>
      <point x="526" y="1001"/>
      <point x="475" y="832" type="curve"/>
      <point x="494" y="832" type="line"/>
      <point x="494" y="1490" type="line"/>
      <point x="102" y="1490" type="line"/>
      <point x="102" y="0" type="line"/>
      <point x="504" y="0" type="line"/>
    </contour>
  </outline>
</glyph>
<glyph name="k" format="2">
  <advance width="1242"/>
  <unicode hex="006B"/>
  <anchor x="628" y="0" name="bottom"/>
  <anchor x="303" y="1490" name="top"/>
  <outline>
    <contour>
      <point x="462" y="264" type="line"/>
      <point x="672" y="532" type="line"/>
      <point x="786" y="532" type="line"/>
      <point x="1240" y="1118" type="line"/>
      <point x="788" y="1118" type="line"/>
      <point x="518" y="742" type="line"/>
      <point x="462" y="742" type="line"/>
    </contour>
    <contour>
      <point x="102" y="0" type="line"/>
      <point x="504" y="0" type="line"/>
      <point x="504" y="1490" type="line"/>
      <point x="102" y="1490" type="line"/>
    </contour>
    <contour>
      <point x="792" y="0" type="line"/>
      <point x="1250" y="0" type="line"/>
      <point x="798" y="728" type="line"/>
      <point x="536" y="442" type="line"/>
    </contour>
  </outline>
</glyph>
<glyph name="l" format="2">
  <advance width="606"/>
  <unicode hex="006C"/>
  <anchor x="302" y="0" name="bottom"/>
  <anchor x="504" y="0" name="bottomr"/>
  <anchor x="504" y="745" name="centerr"/>
  <anchor x="302" y="768" name="cross"/>
  <anchor x="620" y="1490" name="raccent"/>
  <anchor x="303" y="1490" name="top"/>
  <outline>
    <contour>
      <point x="504" y="1490" type="line"/>
      <point x="102" y="1490" type="line"/>
      <point x="102" y="0" type="line"/>
      <point x="504" y="0" type="line"/>
    </contour>
  </outline>
</glyph>
<glyph name="m" format="2">
  <advance width="1932"/>
  <unicode hex="006D"/>
  <anchor x="966" y="0" name="bottom"/>
  <anchor x="1428" y="0" name="lfthook"/>
  <anchor x="966" y="1118" name="top"/>
  <outline>
    <contour>
      <point x="102" y="0" type="line"/>
      <point x="504" y="0" type="line"/>
      <point x="504" y="652" type="line" smooth="yes"/>
      <point x="504" y="749"/>
      <point x="554" y="808"/>
      <point x="638" y="808" type="curve" smooth="yes"/>
      <point x="720" y="808"/>
      <point x="774" y="749"/>
      <point x="774" y="652" type="curve" smooth="yes"/>
      <point x="774" y="0" type="line"/>
      <point x="1158" y="0" type="line"/>
      <point x="1158" y="652" type="line" smooth="yes"/>
      <point x="1158" y="749"/>
      <point x="1209" y="808"/>
      <point x="1292" y="808" type="curve" smooth="yes"/>
      <point x="1375" y="808"/>
      <point x="1428" y="749"/>
      <point x="1428" y="652" type="curve" smooth="yes"/>
      <point x="1428" y="0" type="line"/>
      <point x="1830" y="0" type="line"/>
      <point x="1830" y="754" type="line" smooth="yes"/>
      <point x="1830" y="983"/>
      <point x="1683" y="1132"/>
      <point x="1470" y="1132" type="curve" smooth="yes"/>
      <point x="1303" y="1132"/>
      <point x="1139" y="1040"/>
      <point x="1081" y="784" type="curve"/>
      <point x="1125" y="784" type="line"/>
      <point x="1064" y="1040"/>
      <point x="972" y="1132"/>
      <point x="814" y="1132" type="curve" smooth="yes"/>
      <point x="660" y="1132"/>
      <point x="520" y="1044"/>
      <point x="467" y="816" type="curve"/>
      <point x="495" y="816" type="line"/>
      <point x="469" y="1118" type="line"/>
      <point x="102" y="1118" type="line"/>
    </contour>
  </outline>
</glyph>
<glyph name="o" format="2">
  <advance width="1280"/>
  <unicode hex="006F"/>
  <anchor x="640" y="0" name="bottom"/>
  <anchor x="640" y="559" name="center"/>
  <anchor x="1218" y="556" name="ogonek"/>
  <anchor x="640" y="1118" name="top"/>
  <anchor x="640" y="1132" name="tophorn"/>
  <outline>
    <contour>
      <point x="641" y="-20" type="curve" smooth="yes"/>
      <point x="1004" y="-20"/>
      <point x="1218" y="212"/>
      <point x="1218" y="556" type="curve" smooth="yes"/>
      <point x="1218" y="899"/>
      <point x="1004" y="1132"/>
      <point x="641" y="1132" type="curve" smooth="yes"/>
      <point x="276" y="1132"/>
      <point x="62" y="899"/>
      <point x="62" y="556" type="curve" smooth="yes"/>
      <point x="62" y="212"/>
      <point x="276" y="-20"/>
    </contour>
    <contour>
      <point x="641" y="280" type="curve" smooth="yes"/>
      <point x="535" y="280"/>
      <point x="472" y="383"/>
      <point x="472" y="558" type="curve" smooth="yes"/>
      <point x="472" y="734"/>
      <point x="535" y="832"/>
      <point x="641" y="832" type="curve" smooth="yes"/>
      <point x="745" y="832"/>
      <point x="808" y="734"/>
      <point x="808" y="558" type="curve" smooth="yes"/>
      <point x="808" y="383"/>
      <point x="745" y="280"/>
    </contour>
  </outline>
</glyph>
<glyph name="p" format="2">
  <advance width="1322"/>
  <unicode hex="0070"/>
  <anchor x="306" y="-402" name="bottom"/>
  <anchor x="300" y="-162" name="cross"/>
  <anchor x="728" y="1118" name="top"/>
  <anchor x="504" y="1118" name="topr"/>
  <outline>
    <contour>
      <point x="102" y="-418" type="line"/>
      <point x="504" y="-418" type="line"/>
      <point x="504" y="184" type="line"/>
      <point x="510" y="184" type="line"/>
      <point x="556" y="70"/>
      <point x="663" y="-14"/>
      <point x="820" y="-14" type="curve" smooth="yes"/>
      <point x="1059" y="-14"/>
      <point x="1260" y="172"/>
      <point x="1260" y="558" type="curve" smooth="yes"/>
      <point x="1260" y="963"/>
      <point x="1045" y="1132"/>
      <point x="824" y="1132" type="curve" smooth="yes"/>
      <point x="658" y="1132"/>
      <point x="553" y="1036"/>
      <point x="510" y="922" type="curve"/>
      <point x="500" y="922" type="line"/>
      <point x="500" y="1118" type="line"/>
      <point x="102" y="1118" type="line"/>
    </contour>
    <contour>
      <point x="672" y="294" type="curve" smooth="yes"/>
      <point x="562" y="294"/>
      <point x="494" y="396"/>
      <point x="494" y="558" type="curve" smooth="yes"/>
      <point x="494" y="724"/>
      <point x="562" y="824"/>
      <point x="672" y="824" type="curve" smooth="yes"/>
      <point x="783" y="824"/>
      <point x="846" y="724"/>
      <point x="846" y="558" type="curve" smooth="yes"/>
      <point x="846" y="393"/>
      <point x="783" y="294"/>
    </contour>
  </outline>
</glyph>
<glyph name="r" format="2">
  <advance width="888"/>
  <unicode hex="0072"/>
  <anchor x="306" y="0" name="bottom"/>
  <anchor x="504" y="0" name="bottomr"/>
  <anchor x="302" y="536" name="cross"/>
  <anchor x="482" y="1118" name="top"/>
  <outline>
    <contour>
      <point x="102" y="0" type="line"/>
      <point x="504" y="0" type="line"/>
      <point x="504" y="582" type="line" smooth="yes"/>
      <point x="504" y="710"/>
      <point x="591" y="794"/>
      <point x="710" y="794" type="curve" smooth="yes"/>
      <point x="751" y="794"/>
      <point x="818" y="788"/>
      <point x="858" y="774" type="curve"/>
      <point x="858" y="1116" type="line"/>
      <point x="826" y="1126"/>
      <point x="791" y="1132"/>
      <point x="756" y="1132" type="curve"/>
      <point x="637" y="1132"/>
      <point x="544" y="1062"/>
      <point x="504" y="904" type="curve"/>
      <point x="492" y="904" type="line"/>
      <point x="492" y="1118" type="line"/>
      <point x="102" y="1118" type="line"/>
    </contour>
  </outline>
</glyph>
<glyph name="s" format="2">
  <advance width="1204"/>
  <unicode hex="0073"/>
  <anchor x="601" y="0" name="bottom"/>
  <anchor x="608" y="0" name="cedilla"/>
  <anchor x="52" y="335" name="rthook"/>
  <anchor x="597" y="1118" name="top"/>
  <outline>
    <contour>
      <point x="601" y="-20" type="curve" smooth="yes"/>
      <point x="920" y="-20"/>
      <point x="1152" y="130"/>
      <point x="1152" y="370" type="curve" smooth="yes"/>
      <point x="1152" y="535"/>
      <point x="1040" y="632"/>
      <point x="812" y="672" type="curve" smooth="yes"/>
      <point x="584" y="712" type="line" smooth="yes"/>
      <point x="500" y="727"/>
      <point x="478" y="759"/>
      <point x="478" y="792" type="curve" smooth="yes"/>
      <point x="478" y="838"/>
      <point x="533" y="864"/>
      <point x="602" y="864" type="curve" smooth="yes"/>
      <point x="680" y="864"/>
      <point x="744" y="831"/>
      <point x="762" y="758" type="curve"/>
      <point x="1116" y="809" type="line"/>
      <point x="1081" y="1012"/>
      <point x="890" y="1132"/>
      <point x="594" y="1132" type="curve" smooth="yes"/>
      <point x="274" y="1132"/>
      <point x="78" y="1001"/>
      <point x="78" y="768" type="curve" smooth="yes"/>
      <point x="78" y="592"/>
      <point x="191" y="481"/>
      <point x="418" y="440" type="curve" smooth="yes"/>
      <point x="616" y="404" type="line" smooth="yes"/>
      <point x="704" y="388"/>
      <point x="744" y="365"/>
      <point x="744" y="322" type="curve" smooth="yes"/>
      <point x="744" y="276"/>
      <point x="698" y="252"/>
      <point x="619" y="252" type="curve" smooth="yes"/>
      <point x="505" y="252"/>
      <point x="450" y="301"/>
      <point x="424" y="389" type="curve"/>
      <point x="52" y="335" type="line"/>
      <point x="90" y="115"/>
      <point x="297" y="-20"/>
    </contour>
  </outline>
</glyph>
<glyph name="t" format="2">
  <advance width="758"/>
  <unicode hex="0074"/>
  <anchor x="392" y="0" name="bottom"/>
  <anchor x="435" y="0" name="cedilla"/>
  <anchor x="726" y="15" name="lfthook"/>
  <anchor x="303" y="1384" name="top"/>
  <anchor x="634" y="1562" name="raccent"/>
  <outline>
    <contour>
      <point x="696" y="1118" type="line"/>
      <point x="308" y="1118" type="line"/>
      <point x="308" y="826" type="line"/>
      <point x="696" y="826" type="line"/>
    </contour>
    <component base="_part.t_base" xOffset="-72"/>
  </outline>
</glyph>
<glyph name="u" format="2">
  <advance width="1330"/>
  <unicode hex="0075"/>
  <anchor x="681" y="0" name="bottom"/>
  <anchor x="1228" y="0" name="ogonek"/>
  <anchor x="826" y="1118" name="rtophorn"/>
  <anchor x="666" y="1118" name="top"/>
  <outline>
    <contour>
      <point x="492" y="-14" type="curve" smooth="yes"/>
      <point x="697" y="-14"/>
      <point x="804" y="117"/>
      <point x="855" y="286" type="curve"/>
      <point x="843" y="286" type="line"/>
      <point x="851" y="0" type="line"/>
      <point x="1228" y="0" type="line"/>
      <point x="1228" y="1118" type="line"/>
      <point x="826" y="1118" type="line"/>
      <point x="826" y="490" type="line" smooth="yes"/>
      <point x="826" y="379"/>
      <point x="763" y="312"/>
      <point x="664" y="312" type="curve" smooth="yes"/>
      <point x="563" y="312"/>
      <point x="504" y="379"/>
      <point x="504" y="490" type="curve" smooth="yes"/>
      <point x="504" y="1118" type="line"/>
      <point x="102" y="1118" type="line"/>
      <point x="102" y="406" type="line" smooth="yes"/>
      <point x="102" y="162"/>
      <point x="255" y="-14"/>
    </contour>
  </outline>
</glyph>
<glyph name="v" format="2">
  <advance width="1294"/>
  <unicode hex="0076"/>
  <anchor x="647" y="0" name="bottom"/>
  <anchor x="647" y="1118" name="top"/>
  <outline>
    <contour>
      <point x="410" y="0" type="line"/>
      <point x="882" y="0" type="line"/>
      <point x="1282" y="1118" type="line"/>
      <point x="866" y="1118" type="line"/>
      <point x="725" y="608" type="line" smooth="yes"/>
      <point x="683" y="456"/>
      <point x="654" y="304"/>
      <point x="622" y="120" type="curve"/>
      <point x="685" y="120" type="line"/>
      <point x="652" y="304"/>
      <point x="622" y="457"/>
      <point x="579" y="608" type="curve" smooth="yes"/>
      <point x="434" y="1118" type="line"/>
      <point x="12" y="1118" type="line"/>
    </contour>
  </outline>
</glyph>
<glyph name="w" format="2">
  <advance width="1796"/>
  <unicode hex="0077"/>
  <anchor x="888" y="0" name="bottom"/>
  <anchor x="896" y="1118" name="top"/>
  <outline>
    <contour>
      <point x="320" y="0" type="line"/>
      <point x="732" y="0" type="line"/>
      <point x="838" y="368" type="line" smooth="yes"/>
      <point x="869" y="474"/>
      <point x="899" y="677"/>
      <point x="928" y="792" type="curve"/>
      <point x="864" y="792" type="line"/>
      <point x="893" y="677"/>
      <point x="923" y="474"/>
      <point x="954" y="368" type="curve" smooth="yes"/>
      <point x="1060" y="0" type="line"/>
      <point x="1472" y="0" type="line"/>
      <point x="1798" y="1118" type="line"/>
      <point x="1370" y="1118" type="line"/>
      <point x="1306" y="768" type="line" smooth="yes"/>
      <point x="1277" y="608"/>
      <point x="1242" y="432"/>
      <point x="1218" y="224" type="curve"/>
      <point x="1253" y="224" type="line"/>
      <point x="1222" y="432"/>
      <point x="1175" y="608"/>
      <point x="1143" y="768" type="curve" smooth="yes"/>
      <point x="1072" y="1118" type="line"/>
      <point x="724" y="1118" type="line"/>
      <point x="649" y="768" type="line" smooth="yes"/>
      <point x="615" y="609"/>
      <point x="570" y="432"/>
      <point x="539" y="224" type="curve"/>
      <point x="576" y="224" type="line"/>
      <point x="550" y="432"/>
      <point x="511" y="608"/>
      <point x="482" y="768" type="curve" smooth="yes"/>
      <point x="418" y="1118" type="line"/>
      <point x="-2" y="1118" type="line"/>
    </contour>
  </outline>
</glyph>
<glyph name="x" format="2">
  <advance width="1248"/>
  <unicode hex="0078"/>
  <anchor x="623" y="0" name="bottom"/>
  <anchor x="1159" y="0" name="cyrtic"/>
  <anchor x="991" y="0" name="right"/>
  <anchor x="623" y="1118" name="top"/>
  <outline>
    <contour>
      <point x="23" y="0" type="line"/>
      <point x="435" y="0" type="line"/>
      <point x="522" y="176" type="line" smooth="yes"/>
      <point x="581" y="295"/>
      <point x="631" y="429"/>
      <point x="681" y="548" type="curve"/>
      <point x="550" y="548" type="line"/>
      <point x="603" y="429"/>
      <point x="656" y="295"/>
      <point x="717" y="176" type="curve" smooth="yes"/>
      <point x="807" y="0" type="line"/>
      <point x="1225" y="0" type="line"/>
      <point x="794" y="731" type="line"/>
      <point x="794" y="418" type="line"/>
      <point x="1211" y="1118" type="line"/>
      <point x="798" y="1118" type="line"/>
      <point x="724" y="976" type="line" smooth="yes"/>
      <point x="663" y="859"/>
      <point x="611" y="726"/>
      <point x="558" y="609" type="curve"/>
      <point x="689" y="609" type="line"/>
      <point x="639" y="727"/>
      <point x="590" y="858"/>
      <point x="533" y="976" type="curve" smooth="yes"/>
      <point x="464" y="1118" type="line"/>
      <point x="43" y="1118" type="line"/>
      <point x="448" y="417" type="line"/>
      <point x="448" y="731" type="line"/>
    </contour>
  </outline>
</glyph>
<glyph name="y" format="2">
  <advance width="1302"/>
  <unicode hex="0079"/>
  <anchor x="1034" y="0" name="bottom"/>
  <anchor x="865" y="0" name="ogonek"/>
  <anchor x="655" y="1118" name="top"/>
  <outline>
    <contour>
      <point x="103" y="-388" type="line"/>
      <point x="166" y="-412"/>
      <point x="261" y="-426"/>
      <point x="353" y="-426" type="curve" smooth="yes"/>
      <point x="634" y="-426"/>
      <point x="760" y="-285"/>
      <point x="829" y="-102" type="curve" smooth="yes"/>
      <point x="1290" y="1118" type="line"/>
      <point x="874" y="1118" type="line"/>
      <point x="714" y="608" type="line" smooth="yes"/>
      <point x="667" y="457"/>
      <point x="633" y="307"/>
      <point x="599" y="120" type="curve"/>
      <point x="672" y="120" type="line"/>
      <point x="637" y="307"/>
      <point x="622" y="455"/>
      <point x="579" y="608" type="curve" smooth="yes"/>
      <point x="434" y="1118" type="line"/>
      <point x="12" y="1118" type="line"/>
      <point x="426" y="-1" type="line"/>
      <point x="437" y="-33" type="line" smooth="yes"/>
      <point x="461" y="-103"/>
      <point x="374" y="-151"/>
      <point x="243" y="-116" type="curve" smooth="yes"/>
      <point x="191" y="-102" type="line"/>
    </contour>
  </outline>
</glyph>
<glyph name="z" format="2">
  <advance width="1208"/>
  <unicode hex="007A"/>
  <anchor x="610" y="0" name="bottom"/>
  <anchor x="1094" y="0" name="bottomr"/>
  <anchor x="602" y="558" name="cross"/>
  <anchor x="606" y="1118" name="top"/>
  <outline>
    <contour>
      <point x="114" y="0" type="line"/>
      <point x="1094" y="0" type="line"/>
      <point x="1094" y="306" type="line"/>
      <point x="632" y="306" type="line"/>
      <point x="632" y="312" type="line"/>
      <point x="1076" y="872" type="line"/>
      <point x="1076" y="1118" type="line"/>
      <point x="130" y="1118" type="line"/>
      <point x="130" y="812" type="line"/>
      <point x="602" y="812" type="line"/>
      <point x="602" y="806" type="line"/>
      <point x="114" y="222" type="line"/>
    </contour>
  </outline>
</glyph>
<glyph name="braceleft" format="2">
  <advance width="1035"/>
  <unicode hex="007B"/>
  <outline>
    <contour>
      <point x="137" y="627" type="line"/>
      <point x="653" y="627"/>
      <point x="737" y="804"/>
      <point x="737" y="949" type="curve" smooth="yes"/>
      <point x="737" y="1109" type="line" smooth="yes"/>
      <point x="737" y="1231"/>
      <point x="776" y="1289"/>
      <point x="951" y="1289" type="curve"/>
      <point x="951" y="1581" type="line"/>
      <point x="651" y="1581"/>
      <point x="363" y="1580"/>
      <point x="363" y="1161" type="curve" smooth="yes"/>
      <point x="363" y="1033" type="line" smooth="yes"/>
      <point x="363" y="890"/>
      <point x="306" y="825"/>
      <point x="137" y="825" type="curve"/>
    </contour>
    <contour>
      <point x="951" y="-279" type="curve"/>
      <point x="951" y="13" type="line"/>
      <point x="776" y="13"/>
      <point x="737" y="71"/>
      <point x="737" y="193" type="curve" smooth="yes"/>
      <point x="737" y="353" type="line" smooth="yes"/>
      <point x="737" y="498"/>
      <point x="653" y="675"/>
      <point x="137" y="675" type="curve"/>
      <point x="137" y="477" type="line"/>
      <point x="306" y="477"/>
      <point x="363" y="412"/>
      <point x="363" y="269" type="curve" smooth="yes"/>
      <point x="363" y="141" type="line" smooth="yes"/>
      <point x="363" y="-278"/>
      <point x="651" y="-279"/>
    </contour>
    <contour>
      <point x="137" y="477" type="line"/>
      <point x="477" y="477" type="line"/>
      <point x="477" y="825" type="line"/>
      <point x="137" y="825" type="line"/>
    </contour>
  </outline>
</glyph>
<glyph name="bar" format="2">
  <advance width="830"/>
  <unicode hex="007C"/>
  <outline>
    <contour>
      <point x="610" y="1970" type="line"/>
      <point x="218" y="1970" type="line"/>
      <point x="218" y="-480" type="line"/>
      <point x="610" y="-480" type="line"/>
    </contour>
  </outline>
</glyph>
<glyph name="braceright" format="2">
  <advance width="1035"/>
  <unicode hex="007D"/>
  <outline>
    <contour>
      <point x="898" y="627" type="curve"/>
      <point x="898" y="825" type="line"/>
      <point x="729" y="825"/>
      <point x="672" y="890"/>
      <point x="672" y="1033" type="curve" smooth="yes"/>
      <point x="672" y="1161" type="line" smooth="yes"/>
      <point x="672" y="1580"/>
      <point x="384" y="1581"/>
      <point x="84" y="1581" type="curve"/>
      <point x="84" y="1289" type="line"/>
      <point x="259" y="1289"/>
      <point x="298" y="1231"/>
      <point x="298" y="1109" type="curve" smooth="yes"/>
      <point x="298" y="949" type="line" smooth="yes"/>
      <point x="298" y="804"/>
      <point x="382" y="627"/>
    </contour>
    <contour>
      <point x="84" y="-279" type="line"/>
      <point x="384" y="-279"/>
      <point x="672" y="-278"/>
      <point x="672" y="141" type="curve" smooth="yes"/>
      <point x="672" y="269" type="line" smooth="yes"/>
      <point x="672" y="412"/>
      <point x="729" y="477"/>
      <point x="898" y="477" type="curve"/>
      <point x="898" y="675" type="line"/>
      <point x="382" y="675"/>
      <point x="298" y="498"/>
      <point x="298" y="353" type="curve" smooth="yes"/>
      <point x="298" y="193" type="line" smooth="yes"/>
      <point x="298" y="71"/>
      <point x="259" y="13"/>
      <point x="84" y="13" type="curve"/>
    </contour>
    <contour>
      <point x="898" y="477" type="line"/>
      <point x="898" y="825" type="line"/>
      <point x="558" y="825" type="line"/>
      <point x="558" y="477" type="line"/>
    </contour>
  </outline>
</glyph>
<glyph name="exclamdown" format="2">
  <advance width="780"/>
  <unicode hex="00A1"/>
  <outline>
    <contour>
      <point x="178" y="-372" type="line"/>
      <point x="602" y="-372" type="line"/>
      <point x="572" y="652" type="line"/>
      <point x="208" y="652" type="line"/>
    </contour>
    <contour>
      <point x="390" y="744" type="curve" smooth="yes"/>
      <point x="520" y="744"/>
      <point x="604" y="820"/>
      <point x="604" y="943" type="curve" smooth="yes"/>
      <point x="604" y="1066"/>
      <point x="520" y="1142"/>
      <point x="390" y="1142" type="curve" smooth="yes"/>
      <point x="260" y="1142"/>
      <point x="176" y="1066"/>
      <point x="176" y="943" type="curve" smooth="yes"/>
      <point x="176" y="820"/>
      <point x="260" y="744"/>
    </contour>
  </outline>
</glyph>
<glyph name="cent" format="2">
  <advance width="1235"/>
  <unicode hex="00A2"/>
  <anchor x="640" y="190" name="bottom"/>
  <anchor x="640" y="190" name="cedilla"/>
  <anchor x="640" y="749" name="center"/>
  <anchor x="640" y="1308" name="top"/>
  <anchor x="1175" y="897" name="topr"/>
  <outline>
    <contour>
      <point x="584" y="0" type="line"/>
      <point x="704" y="0" type="line"/>
      <point x="704" y="1490" type="line"/>
      <point x="584" y="1490" type="line"/>
    </contour>
    <component base="c" yOffset="190"/>
  </outline>
</glyph>
<glyph name="currency" format="2">
  <advance width="1624"/>
  <unicode hex="00A4"/>
  <outline>
    <contour>
      <point x="814" y="-20" type="curve" smooth="yes"/>
      <point x="1153" y="-20"/>
      <point x="1436" y="253"/>
      <point x="1438" y="608" type="curve" smooth="yes"/>
      <point x="1436" y="963"/>
      <point x="1153" y="1234"/>
      <point x="814" y="1234" type="curve" smooth="yes"/>
      <point x="470" y="1234"/>
      <point x="188" y="963"/>
      <point x="190" y="608" type="curve"/>
      <point x="188" y="253"/>
      <point x="470" y="-20"/>
    </contour>
    <contour>
      <point x="814" y="190" type="curve" smooth="yes"/>
      <point x="575" y="189"/>
      <point x="392" y="369"/>
      <point x="392" y="608" type="curve"/>
      <point x="392" y="849"/>
      <point x="575" y="1026"/>
      <point x="814" y="1026" type="curve" smooth="yes"/>
      <point x="1046" y="1026"/>
      <point x="1236" y="849"/>
      <point x="1236" y="608" type="curve" smooth="yes"/>
      <point x="1236" y="369"/>
      <point x="1046" y="189"/>
    </contour>
    <contour>
      <point x="1272" y="908" type="line"/>
      <point x="1484" y="1114" type="line"/>
      <point x="1326" y="1272" type="line"/>
      <point x="1118" y="1064" type="line"/>
    </contour>
    <contour>
      <point x="1326" y="-32" type="line"/>
      <point x="1484" y="126" type="line"/>
      <point x="1272" y="328" type="line"/>
      <point x="1118" y="174" type="line"/>
    </contour>
    <contour>
      <point x="302" y="-32" type="line"/>
      <point x="514" y="174" type="line"/>
      <point x="358" y="328" type="line"/>
      <point x="148" y="126" type="line"/>
    </contour>
    <contour>
      <point x="358" y="908" type="line"/>
      <point x="514" y="1064" type="line"/>
      <point x="302" y="1272" type="line"/>
      <point x="148" y="1114" type="line"/>
    </contour>
  </outline>
</glyph>
<glyph name="yen" format="2">
  <advance width="1204"/>
  <unicode hex="00A5"/>
  <outline>
    <contour>
      <point x="434" y="1490" type="line"/>
      <point x="30" y="1490" type="line"/>
      <point x="430" y="562" type="line"/>
      <point x="692" y="792" type="line"/>
    </contour>
    <contour>
      <point x="518" y="802" type="line"/>
      <point x="770" y="562" type="line"/>
      <point x="1176" y="1490" type="line"/>
      <point x="770" y="1490" type="line"/>
    </contour>
    <contour>
      <point x="794" y="786" type="line"/>
      <point x="396" y="786" type="line"/>
      <point x="396" y="0" type="line"/>
      <point x="794" y="0" type="line"/>
    </contour>
    <contour>
      <point x="1068" y="786" type="line"/>
      <point x="84" y="786" type="line"/>
      <point x="84" y="574" type="line"/>
      <point x="1068" y="574" type="line"/>
    </contour>
    <contour>
      <point x="1068" y="498" type="line"/>
      <point x="84" y="498" type="line"/>
      <point x="84" y="286" type="line"/>
      <point x="1068" y="286" type="line"/>
    </contour>
  </outline>
</glyph>
<glyph name="brokenbar" format="2">
  <advance width="814"/>
  <unicode hex="00A6"/>
  <outline>
    <contour>
      <point x="230" y="424" type="line"/>
      <point x="230" y="-280" type="line"/>
      <point x="584" y="-280" type="line"/>
      <point x="584" y="424" type="line"/>
    </contour>
    <contour>
      <point x="584" y="1490" type="line"/>
      <point x="230" y="1490" type="line"/>
      <point x="230" y="788" type="line"/>
      <point x="584" y="788" type="line"/>
    </contour>
  </outline>
</glyph>
<glyph name="section" format="2">
  <advance width="1164"/>
  <unicode hex="00A7"/>
  <outline>
    <contour>
      <point x="583" y="-300" type="curve" smooth="yes"/>
      <point x="866" y="-300"/>
      <point x="1058" y="-143"/>
      <point x="1058" y="96" type="curve" smooth="yes"/>
      <point x="1058" y="218"/>
      <point x="1008" y="367"/>
      <point x="838" y="430" type="curve"/>
      <point x="838" y="431" type="line"/>
      <point x="986" y="434"/>
      <point x="1094" y="502"/>
      <point x="1094" y="649" type="curve" smooth="yes"/>
      <point x="1094" y="786"/>
      <point x="1002" y="891"/>
      <point x="852" y="926" type="curve" smooth="yes"/>
      <point x="607" y="983" type="line" smooth="yes"/>
      <point x="497" y="1009"/>
      <point x="450" y="1046"/>
      <point x="450" y="1113" type="curve" smooth="yes"/>
      <point x="450" y="1179"/>
      <point x="490" y="1214"/>
      <point x="566" y="1214" type="curve" smooth="yes"/>
      <point x="644" y="1214"/>
      <point x="684" y="1181"/>
      <point x="694" y="1108" type="curve"/>
      <point x="1028" y="1157" type="line"/>
      <point x="996" y="1380"/>
      <point x="835" y="1514"/>
      <point x="564" y="1514" type="curve" smooth="yes"/>
      <point x="278" y="1514"/>
      <point x="104" y="1363"/>
      <point x="104" y="1114" type="curve" smooth="yes"/>
      <point x="104" y="956"/>
      <point x="175" y="840"/>
      <point x="328" y="770" type="curve"/>
      <point x="328" y="769" type="line"/>
      <point x="181" y="775"/>
      <point x="70" y="721"/>
      <point x="70" y="568" type="curve" smooth="yes"/>
      <point x="70" y="425"/>
      <point x="166" y="314"/>
      <point x="323" y="275" type="curve" smooth="yes"/>
      <point x="570" y="214" type="line" smooth="yes"/>
      <point x="669" y="190"/>
      <point x="710" y="153"/>
      <point x="710" y="99" type="curve" smooth="yes"/>
      <point x="710" y="39"/>
      <point x="666" y="4"/>
      <point x="582" y="4" type="curve" smooth="yes"/>
      <point x="492" y="4"/>
      <point x="440" y="45"/>
      <point x="430" y="116" type="curve"/>
      <point x="99" y="67" type="line"/>
      <point x="131" y="-155"/>
      <point x="312" y="-300"/>
    </contour>
    <contour>
      <point x="685" y="470" type="curve" smooth="yes"/>
      <point x="481" y="514" type="line" smooth="yes"/>
      <point x="399" y="532"/>
      <point x="347" y="593"/>
      <point x="364" y="659" type="curve" smooth="yes"/>
      <point x="380" y="721"/>
      <point x="442" y="734"/>
      <point x="480" y="725" type="curve" smooth="yes"/>
      <point x="678" y="677" type="line" smooth="yes"/>
      <point x="781" y="652"/>
      <point x="804" y="588"/>
      <point x="792" y="539" type="curve" smooth="yes"/>
      <point x="778" y="481"/>
      <point x="721" y="462"/>
    </contour>
  </outline>
</glyph>
<glyph name="copyright" format="2">
  <advance width="1872"/>
  <unicode hex="00A9"/>
  <outline>
    <contour>
      <point x="546" y="744" type="curve" smooth="yes"/>
      <point x="545" y="527"/>
      <point x="723" y="350"/>
      <point x="942" y="350" type="curve" smooth="yes"/>
      <point x="1135" y="350"/>
      <point x="1297" y="490"/>
      <point x="1316" y="674" type="curve"/>
      <point x="1074" y="674" type="line"/>
      <point x="1062" y="620"/>
      <point x="1006" y="582"/>
      <point x="942" y="582" type="curve" smooth="yes"/>
      <point x="852" y="582"/>
      <point x="778" y="656"/>
      <point x="778" y="746" type="curve" smooth="yes"/>
      <point x="778" y="836"/>
      <point x="852" y="908"/>
      <point x="942" y="908" type="curve" smooth="yes"/>
      <point x="1006" y="908"/>
      <point x="1062" y="870"/>
      <point x="1074" y="814" type="curve"/>
      <point x="1316" y="814" type="line"/>
      <point x="1297" y="999"/>
      <point x="1135" y="1140"/>
      <point x="942" y="1140" type="curve" smooth="yes"/>
      <point x="723" y="1140"/>
      <point x="545" y="963"/>
    </contour>
    <component base="circlewhite"/>
  </outline>
</glyph>
<glyph name="ordfeminine" format="2">
  <advance width="967"/>
  <unicode hex="00AA"/>
  <anchor x="476" y="673" name="bottom"/>
  <anchor x="878" y="673" name="ogonek"/>
  <anchor x="485" y="1512" name="top"/>
  <outline>
    <contour>
      <point x="340" y="659" type="curve" smooth="yes"/>
      <point x="465" y="659"/>
      <point x="550" y="701"/>
      <point x="599" y="791" type="curve"/>
      <point x="606" y="791" type="line"/>
      <point x="606" y="673" type="line"/>
      <point x="878" y="673" type="line"/>
      <point x="878" y="1246" type="line" smooth="yes"/>
      <point x="878" y="1408"/>
      <point x="705" y="1522"/>
      <point x="475" y="1522" type="curve" smooth="yes"/>
      <point x="243" y="1522"/>
      <point x="104" y="1411"/>
      <point x="72" y="1271" type="curve"/>
      <point x="335" y="1243" type="line"/>
      <point x="348" y="1292"/>
      <point x="396" y="1321"/>
      <point x="472" y="1321" type="curve" smooth="yes"/>
      <point x="544" y="1321"/>
      <point x="588" y="1294"/>
      <point x="588" y="1247" type="curve" smooth="yes"/>
      <point x="588" y="1244" type="line" smooth="yes"/>
      <point x="588" y="1195"/>
      <point x="533" y="1181"/>
      <point x="378" y="1170" type="curve" smooth="yes"/>
      <point x="193" y="1157"/>
      <point x="46" y="1087"/>
      <point x="46" y="905" type="curve" smooth="yes"/>
      <point x="46" y="738"/>
      <point x="168" y="659"/>
    </contour>
    <contour>
      <point x="430" y="845" type="curve" smooth="yes"/>
      <point x="367" y="845"/>
      <point x="321" y="871"/>
      <point x="321" y="921" type="curve" smooth="yes"/>
      <point x="321" y="965"/>
      <point x="360" y="999"/>
      <point x="441" y="1011" type="curve" smooth="yes"/>
      <point x="495" y="1019"/>
      <point x="558" y="1029"/>
      <point x="591" y="1043" type="curve"/>
      <point x="591" y="970" type="line" smooth="yes"/>
      <point x="591" y="892"/>
      <point x="517" y="845"/>
    </contour>
  </outline>
</glyph>
<glyph name="logicalnot" format="2">
  <advance width="1420"/>
  <unicode hex="00AC"/>
  <outline>
    <contour>
      <point x="846" y="259" type="line"/>
      <point x="1172" y="259" type="line"/>
      <point x="1172" y="814" type="line"/>
      <point x="208" y="814" type="line"/>
      <point x="208" y="504" type="line"/>
      <point x="846" y="504" type="line"/>
    </contour>
  </outline>
</glyph>
<glyph name="registered" format="2">
  <advance width="1350"/>
  <unicode hex="00AE"/>
  <outline>
    <contour>
      <point x="674" y="346" type="curve" smooth="yes"/>
      <point x="997" y="346"/>
      <point x="1256" y="607"/>
      <point x="1256" y="928" type="curve" smooth="yes"/>
      <point x="1256" y="1249"/>
      <point x="996" y="1510"/>
      <point x="674" y="1510" type="curve" smooth="yes"/>
      <point x="353" y="1510"/>
      <point x="94" y="1249"/>
      <point x="94" y="928" type="curve" smooth="yes"/>
      <point x="94" y="607"/>
      <point x="353" y="346"/>
    </contour>
    <contour>
      <point x="674" y="510" type="curve" smooth="yes"/>
      <point x="444" y="510"/>
      <point x="256" y="697"/>
      <point x="256" y="928" type="curve" smooth="yes"/>
      <point x="256" y="1159"/>
      <point x="444" y="1346"/>
      <point x="674" y="1346" type="curve" smooth="yes"/>
      <point x="906" y="1346"/>
      <point x="1094" y="1159"/>
      <point x="1094" y="928" type="curve" smooth="yes"/>
      <point x="1094" y="696"/>
      <point x="907" y="510"/>
    </contour>
    <contour>
      <point x="760" y="666" type="line"/>
      <point x="930" y="666" type="line"/>
      <point x="814" y="910" type="line"/>
      <point x="658" y="910" type="line"/>
    </contour>
    <contour>
      <point x="460" y="666" type="line"/>
      <point x="614" y="666" type="line"/>
      <point x="614" y="1090" type="line"/>
      <point x="686" y="1090" type="line" smooth="yes"/>
      <point x="733" y="1090"/>
      <point x="758" y="1064"/>
      <point x="758" y="1015" type="curve" smooth="yes"/>
      <point x="758" y="966"/>
      <point x="733" y="940"/>
      <point x="686" y="940" type="curve" smooth="yes"/>
      <point x="542" y="940" type="line"/>
      <point x="542" y="846" type="line"/>
      <point x="712" y="846" type="line" smooth="yes"/>
      <point x="839" y="846"/>
      <point x="916" y="909"/>
      <point x="916" y="1022" type="curve" smooth="yes"/>
      <point x="916" y="1132"/>
      <point x="842" y="1202"/>
      <point x="716" y="1202" type="curve" smooth="yes"/>
      <point x="460" y="1202" type="line"/>
    </contour>
  </outline>
</glyph>
<glyph name="degree" format="2">
  <advance width="948"/>
  <unicode hex="00B0"/>
  <outline>
    <contour>
      <point x="474" y="754" type="curve" smooth="yes"/>
      <point x="680" y="753"/>
      <point x="846" y="920"/>
      <point x="846" y="1126" type="curve" smooth="yes"/>
      <point x="846" y="1332"/>
      <point x="680" y="1498"/>
      <point x="474" y="1498" type="curve" smooth="yes"/>
      <point x="268" y="1498"/>
      <point x="102" y="1332"/>
      <point x="102" y="1126" type="curve" smooth="yes"/>
      <point x="102" y="920"/>
      <point x="268" y="753"/>
    </contour>
    <contour>
      <point x="474" y="1000" type="curve" smooth="yes"/>
      <point x="405" y="1001"/>
      <point x="350" y="1057"/>
      <point x="350" y="1126" type="curve" smooth="yes"/>
      <point x="350" y="1195"/>
      <point x="405" y="1250"/>
      <point x="474" y="1250" type="curve" smooth="yes"/>
      <point x="543" y="1250"/>
      <point x="600" y="1195"/>
      <point x="600" y="1126" type="curve" smooth="yes"/>
      <point x="600" y="1057"/>
      <point x="543" y="1001"/>
    </contour>
  </outline>
</glyph>
<glyph name="plusminus" format="2">
  <advance width="1420"/>
  <unicode hex="00B1"/>
  <outline>
    <contour>
      <point x="168" y="46" type="line"/>
      <point x="1250" y="46" type="line"/>
      <point x="1250" y="350" type="line"/>
      <point x="168" y="350" type="line"/>
    </contour>
    <contour>
      <point x="168" y="664" type="line"/>
      <point x="1250" y="664" type="line"/>
      <point x="1250" y="954" type="line"/>
      <point x="168" y="954" type="line"/>
    </contour>
    <contour>
      <point x="546" y="442" type="line"/>
      <point x="872" y="442" type="line"/>
      <point x="872" y="1176" type="line"/>
      <point x="546" y="1176" type="line"/>
    </contour>
  </outline>
</glyph>
<glyph name="two.sups" format="2">
  <advance width="973"/>
  <unicode hex="00B2"/>
  <anchor x="579" y="1283" name="cross"/>
  <anchor x="488" y="1728" name="top"/>
  <outline>
    <contour>
      <point x="110" y="886" type="line"/>
      <point x="879" y="886" type="line"/>
      <point x="879" y="1108" type="line"/>
      <point x="504" y="1108" type="line"/>
      <point x="504" y="1117" type="line"/>
      <point x="525" y="1126" type="line" smooth="yes"/>
      <point x="845" y="1263"/>
      <point x="865" y="1375"/>
      <point x="865" y="1472" type="curve" smooth="yes"/>
      <point x="865" y="1633"/>
      <point x="717" y="1738"/>
      <point x="464" y="1738" type="curve" smooth="yes"/>
      <point x="236" y="1738"/>
      <point x="84" y="1634"/>
      <point x="84" y="1456" type="curve"/>
      <point x="354" y="1456" type="line"/>
      <point x="354" y="1505"/>
      <point x="397" y="1526"/>
      <point x="465" y="1526" type="curve" smooth="yes"/>
      <point x="534" y="1526"/>
      <point x="585" y="1497"/>
      <point x="585" y="1442" type="curve" smooth="yes"/>
      <point x="585" y="1404"/>
      <point x="554" y="1380"/>
      <point x="481" y="1332" type="curve" smooth="yes"/>
      <point x="110" y="1088" type="line"/>
    </contour>
  </outline>
</glyph>
<glyph name="three.sups" format="2">
  <advance width="1012"/>
  <unicode hex="00B3"/>
  <anchor x="504" y="1728" name="top"/>
  <outline>
    <contour>
      <point x="496" y="876" type="curve" smooth="yes"/>
      <point x="742" y="876"/>
      <point x="917" y="980"/>
      <point x="917" y="1137" type="curve" smooth="yes"/>
      <point x="917" y="1236"/>
      <point x="843" y="1299"/>
      <point x="670" y="1314" type="curve"/>
      <point x="670" y="1323" type="line"/>
      <point x="791" y="1329"/>
      <point x="878" y="1390"/>
      <point x="878" y="1477" type="curve" smooth="yes"/>
      <point x="878" y="1629"/>
      <point x="721" y="1738"/>
      <point x="499" y="1738" type="curve" smooth="yes"/>
      <point x="282" y="1738"/>
      <point x="108" y="1629"/>
      <point x="108" y="1466" type="curve"/>
      <point x="380" y="1466" type="line"/>
      <point x="380" y="1497"/>
      <point x="426" y="1518"/>
      <point x="494" y="1518" type="curve" smooth="yes"/>
      <point x="563" y="1518"/>
      <point x="601" y="1496"/>
      <point x="601" y="1454" type="curve" smooth="yes"/>
      <point x="601" y="1411"/>
      <point x="561" y="1382"/>
      <point x="502" y="1382" type="curve" smooth="yes"/>
      <point x="370" y="1382" type="line"/>
      <point x="370" y="1240" type="line"/>
      <point x="502" y="1240" type="line" smooth="yes"/>
      <point x="566" y="1240"/>
      <point x="610" y="1211"/>
      <point x="610" y="1167" type="curve" smooth="yes"/>
      <point x="610" y="1123"/>
      <point x="565" y="1099"/>
      <point x="495" y="1099" type="curve" smooth="yes"/>
      <point x="425" y="1099"/>
      <point x="381" y="1123"/>
      <point x="381" y="1161" type="curve"/>
      <point x="90" y="1161" type="line"/>
      <point x="90" y="995"/>
      <point x="290" y="876"/>
    </contour>
  </outline>
</glyph>
<glyph name="micro" format="2">
  <advance width="1360"/>
  <unicode hex="00B5"/>
  <outline>
    <contour>
      <point x="102" y="-418" type="line"/>
      <point x="502" y="-418" type="line"/>
      <point x="502" y="417" type="line"/>
      <point x="446" y="417" type="line"/>
      <point x="446" y="119"/>
      <point x="567" y="32"/>
      <point x="681" y="32" type="curve" smooth="yes"/>
      <point x="788" y="32"/>
      <point x="904" y="119"/>
      <point x="904" y="417" type="curve"/>
      <point x="848" y="417" type="line"/>
      <point x="848" y="316" type="line" smooth="yes"/>
      <point x="848" y="113"/>
      <point x="945" y="0"/>
      <point x="1146" y="0" type="curve" smooth="yes"/>
      <point x="1350" y="0" type="line"/>
      <point x="1350" y="304" type="line"/>
      <point x="1292" y="304" type="line" smooth="yes"/>
      <point x="1250" y="304"/>
      <point x="1228" y="328"/>
      <point x="1228" y="370" type="curve" smooth="yes"/>
      <point x="1228" y="1118" type="line"/>
      <point x="828" y="1118" type="line"/>
      <point x="828" y="472" type="line" smooth="yes"/>
      <point x="828" y="364"/>
      <point x="762" y="298"/>
      <point x="665" y="298" type="curve" smooth="yes"/>
      <point x="568" y="298"/>
      <point x="502" y="364"/>
      <point x="502" y="472" type="curve" smooth="yes"/>
      <point x="502" y="1118" type="line"/>
      <point x="102" y="1118" type="line"/>
    </contour>
  </outline>
</glyph>
<glyph name="paragraph" format="2">
  <advance width="1220"/>
  <unicode hex="00B6"/>
  <outline>
    <contour>
      <point x="1104" y="1198" type="line"/>
      <point x="1104" y="1490" type="line"/>
      <point x="566" y="1490" type="line" smooth="yes"/>
      <point x="231" y="1490"/>
      <point x="52" y="1289"/>
      <point x="52" y="1022" type="curve" smooth="yes"/>
      <point x="52" y="751"/>
      <point x="231" y="552"/>
      <point x="566" y="552" type="curve" smooth="yes"/>
      <point x="654" y="552" type="line"/>
      <point x="654" y="1198" type="line"/>
    </contour>
    <contour>
      <point x="834" y="0" type="line"/>
      <point x="1124" y="0" type="line"/>
      <point x="1124" y="1490" type="line"/>
      <point x="834" y="1490" type="line"/>
    </contour>
  </outline>
</glyph>
<glyph name="one.sups" format="2">
  <advance width="733"/>
  <unicode hex="00B9"/>
  <outline>
    <contour>
      <point x="629" y="1728" type="line"/>
      <point x="330" y="1728" type="line"/>
      <point x="122" y="1604" type="line"/>
      <point x="122" y="1370" type="line"/>
      <point x="333" y="1493" type="line"/>
      <point x="344" y="1493" type="line"/>
      <point x="344" y="886" type="line"/>
      <point x="629" y="886" type="line"/>
    </contour>
  </outline>
</glyph>
<glyph name="ordmasculine" format="2">
  <advance width="1016"/>
  <unicode hex="00BA"/>
  <anchor x="508" y="673" name="bottom"/>
  <anchor x="508" y="1092" name="center"/>
  <anchor x="961" y="1090" name="ogonek"/>
  <anchor x="508" y="1512" name="top"/>
  <anchor x="508" y="1522" name="tophorn"/>
  <outline>
    <contour>
      <point x="508" y="658" type="curve" smooth="yes"/>
      <point x="791" y="658"/>
      <point x="961" y="832"/>
      <point x="961" y="1090" type="curve" smooth="yes"/>
      <point x="961" y="1347"/>
      <point x="791" y="1522"/>
      <point x="508" y="1522" type="curve" smooth="yes"/>
      <point x="225" y="1522"/>
      <point x="55" y="1347"/>
      <point x="55" y="1090" type="curve" smooth="yes"/>
      <point x="55" y="832"/>
      <point x="225" y="658"/>
    </contour>
    <contour>
      <point x="508" y="876" type="curve" smooth="yes"/>
      <point x="407" y="876"/>
      <point x="351" y="958"/>
      <point x="351" y="1091" type="curve" smooth="yes"/>
      <point x="351" y="1225"/>
      <point x="407" y="1304"/>
      <point x="508" y="1304" type="curve" smooth="yes"/>
      <point x="609" y="1304"/>
      <point x="665" y="1225"/>
      <point x="665" y="1091" type="curve" smooth="yes"/>
      <point x="665" y="958"/>
      <point x="609" y="876"/>
    </contour>
  </outline>
</glyph>
<glyph name="AE" format="2">
  <advance width="2145"/>
  <unicode hex="00C6"/>
  <anchor x="1352" y="1490" name="top"/>
  <outline>
    <contour>
      <point x="46" y="0" type="line"/>
      <point x="492" y="0" type="line"/>
      <point x="941" y="1236" type="line"/>
      <point x="1002" y="1236" type="line"/>
      <point x="1002" y="0" type="line"/>
      <point x="2056" y="0" type="line"/>
      <point x="2056" y="326" type="line"/>
      <point x="1390" y="326" type="line"/>
      <point x="1390" y="594" type="line"/>
      <point x="2004" y="594" type="line"/>
      <point x="2004" y="912" type="line"/>
      <point x="1390" y="912" type="line"/>
      <point x="1390" y="1164" type="line"/>
      <point x="2060" y="1164" type="line"/>
      <point x="2060" y="1490" type="line"/>
      <point x="628" y="1490" type="line"/>
    </contour>
    <contour>
      <point x="404" y="302" type="line"/>
      <point x="1224" y="302" type="line"/>
      <point x="1224" y="572" type="line"/>
      <point x="404" y="572" type="line"/>
    </contour>
  </outline>
</glyph>
<glyph name="multiply" format="2">
  <advance width="1420"/>
  <unicode hex="00D7"/>
  <outline>
    <contour>
      <point x="1039" y="32" type="line"/>
      <point x="1283" y="276" type="line"/>
      <point x="383" y="1178" type="line"/>
      <point x="137" y="930" type="line"/>
    </contour>
    <contour>
      <point x="383" y="32" type="line"/>
      <point x="1283" y="930" type="line"/>
      <point x="1039" y="1178" type="line"/>
      <point x="137" y="276" type="line"/>
    </contour>
  </outline>
</glyph>
<glyph name="Thorn" format="2">
  <advance width="1428"/>
  <unicode hex="00DE"/>
  <outline>
    <contour>
      <point x="98" y="1490" type="line"/>
      <point x="98" y="0" type="line"/>
      <point x="504" y="0" type="line"/>
      <point x="504" y="1490" type="line"/>
    </contour>
    <contour>
      <point x="286" y="1240" type="line"/>
      <point x="286" y="940" type="line"/>
      <point x="674" y="940" type="line" smooth="yes"/>
      <point x="835" y="940"/>
      <point x="888" y="844"/>
      <point x="888" y="762" type="curve" smooth="yes"/>
      <point x="888" y="684"/>
      <point x="835" y="591"/>
      <point x="674" y="590" type="curve" smooth="yes"/>
      <point x="286" y="590" type="line"/>
      <point x="286" y="294" type="line"/>
      <point x="674" y="294" type="line" smooth="yes"/>
      <point x="1062" y="294"/>
      <point x="1274" y="486"/>
      <point x="1274" y="766" type="curve" smooth="yes"/>
      <point x="1274" y="1044"/>
      <point x="1062" y="1239"/>
      <point x="674" y="1240" type="curve" smooth="yes"/>
    </contour>
  </outline>
</glyph>
<glyph name="germandbls" format="2">
  <advance width="1418"/>
  <unicode hex="00DF"/>
  <outline>
    <contour>
      <point x="96" y="0" type="line"/>
      <point x="498" y="0" type="line"/>
      <point x="498" y="1012" type="line" smooth="yes"/>
      <point x="498" y="1119"/>
      <point x="566" y="1184"/>
      <point x="678" y="1184" type="curve" smooth="yes"/>
      <point x="785" y="1184"/>
      <point x="846" y="1124"/>
      <point x="846" y="1036" type="curve" smooth="yes"/>
      <point x="846" y="956"/>
      <point x="793" y="898"/>
      <point x="716" y="898" type="curve" smooth="yes"/>
      <point x="648" y="898" type="line"/>
      <point x="648" y="606" type="line"/>
      <point x="754" y="606" type="line" smooth="yes"/>
      <point x="882" y="606"/>
      <point x="962" y="552"/>
      <point x="962" y="460" type="curve" smooth="yes"/>
      <point x="962" y="369"/>
      <point x="890" y="314"/>
      <point x="776" y="314" type="curve" smooth="yes"/>
      <point x="642" y="314" type="line"/>
      <point x="642" y="0" type="line"/>
      <point x="862" y="0" type="line" smooth="yes"/>
      <point x="1158" y="0"/>
      <point x="1370" y="132"/>
      <point x="1370" y="410" type="curve" smooth="yes"/>
      <point x="1370" y="620"/>
      <point x="1255" y="779"/>
      <point x="1058" y="788" type="curve"/>
      <point x="1058" y="806" type="line"/>
      <point x="1188" y="836"/>
      <point x="1260" y="951"/>
      <point x="1260" y="1094" type="curve" smooth="yes"/>
      <point x="1260" y="1377"/>
      <point x="981" y="1510"/>
      <point x="664" y="1510" type="curve" smooth="yes"/>
      <point x="315" y="1510"/>
      <point x="96" y="1351"/>
      <point x="96" y="1088" type="curve" smooth="yes"/>
    </contour>
  </outline>
</glyph>
<glyph name="ae" format="2">
  <advance width="1852"/>
  <unicode hex="00E6"/>
  <anchor x="902" y="1118" name="top"/>
  <outline>
    <contour>
      <point x="442" y="-18" type="curve" smooth="yes"/>
      <point x="629" y="-18"/>
      <point x="808" y="42"/>
      <point x="876" y="192" type="curve"/>
      <point x="1018" y="192" type="line"/>
      <point x="1018" y="766" type="line"/>
      <point x="1018" y="971"/>
      <point x="916" y="1132"/>
      <point x="598" y="1132" type="curve" smooth="yes"/>
      <point x="284" y="1132"/>
      <point x="113" y="979"/>
      <point x="82" y="792" type="curve"/>
      <point x="444" y="756" type="line"/>
      <point x="457" y="824"/>
      <point x="516" y="856"/>
      <point x="592" y="856" type="curve" smooth="yes"/>
      <point x="669" y="856"/>
      <point x="722" y="823"/>
      <point x="722" y="766" type="curve" smooth="yes"/>
      <point x="722" y="396" type="line" smooth="yes"/>
      <point x="722" y="294"/>
      <point x="635" y="236"/>
      <point x="544" y="236" type="curve" smooth="yes"/>
      <point x="476" y="236"/>
      <point x="428" y="269"/>
      <point x="428" y="340" type="curve" smooth="yes"/>
      <point x="428" y="397"/>
      <point x="468" y="466"/>
      <point x="608" y="466" type="curve" smooth="yes"/>
      <point x="1794" y="466" type="line"/>
      <point x="1794" y="558" type="line" smooth="yes"/>
      <point x="1794" y="914"/>
      <point x="1576" y="1132"/>
      <point x="1238" y="1132" type="curve" smooth="yes"/>
      <point x="1044" y="1132"/>
      <point x="890" y="1060"/>
      <point x="792" y="936" type="curve"/>
      <point x="792" y="169" type="line"/>
      <point x="891" y="47"/>
      <point x="1047" y="-20"/>
      <point x="1248" y="-20" type="curve" smooth="yes"/>
      <point x="1557" y="-20"/>
      <point x="1752" y="128"/>
      <point x="1790" y="360" type="curve"/>
      <point x="1424" y="360" type="line"/>
      <point x="1400" y="297"/>
      <point x="1338" y="262"/>
      <point x="1256" y="262" type="curve" smooth="yes"/>
      <point x="1141" y="262"/>
      <point x="1066" y="324"/>
      <point x="1066" y="480" type="curve" smooth="yes"/>
      <point x="1066" y="640" type="line" smooth="yes"/>
      <point x="1066" y="775"/>
      <point x="1126" y="850"/>
      <point x="1242" y="850" type="curve" smooth="yes"/>
      <point x="1358" y="850"/>
      <point x="1418" y="775"/>
      <point x="1418" y="640" type="curve"/>
      <point x="1480" y="686" type="line"/>
      <point x="568" y="686" type="line" smooth="yes"/>
      <point x="273" y="686"/>
      <point x="50" y="561"/>
      <point x="50" y="308" type="curve" smooth="yes"/>
      <point x="50" y="87"/>
      <point x="199" y="-18"/>
    </contour>
  </outline>
</glyph>
<glyph name="eth" format="2">
  <advance width="1256"/>
  <unicode hex="00F0"/>
  <outline>
    <contour>
      <point x="942" y="1394" type="line"/>
      <point x="942" y="1556" type="line"/>
      <point x="204" y="1170" type="line"/>
      <point x="204" y="1006" type="line"/>
    </contour>
    <contour>
      <point x="620" y="-24" type="curve" smooth="yes"/>
      <point x="979" y="-23"/>
      <point x="1194" y="225"/>
      <point x="1194" y="590" type="curve" smooth="yes"/>
      <point x="1194" y="1135"/>
      <point x="725" y="1496"/>
      <point x="204" y="1564" type="curve"/>
      <point x="204" y="1370" type="line"/>
      <point x="406" y="1311"/>
      <point x="689" y="1154"/>
      <point x="804" y="930" type="curve"/>
      <point x="788" y="930" type="line"/>
      <point x="725" y="989"/>
      <point x="634" y="1026"/>
      <point x="520" y="1026" type="curve" smooth="yes"/>
      <point x="236" y="1026"/>
      <point x="62" y="794"/>
      <point x="62" y="512" type="curve" smooth="yes"/>
      <point x="62" y="189"/>
      <point x="287" y="-23"/>
    </contour>
    <contour>
      <point x="632" y="270" type="curve" smooth="yes"/>
      <point x="515" y="269"/>
      <point x="440" y="371"/>
      <point x="440" y="542" type="curve" smooth="yes"/>
      <point x="440" y="703"/>
      <point x="504" y="798"/>
      <point x="632" y="798" type="curve" smooth="yes"/>
      <point x="759" y="798"/>
      <point x="826" y="704"/>
      <point x="826" y="542" type="curve" smooth="yes"/>
      <point x="826" y="369"/>
      <point x="749" y="269"/>
    </contour>
  </outline>
</glyph>
<glyph name="divide" format="2">
  <advance width="1420"/>
  <unicode hex="00F7"/>
  <outline>
    <contour>
      <point x="1248" y="756" type="line"/>
      <point x="172" y="756" type="line"/>
      <point x="172" y="454" type="line"/>
      <point x="1248" y="454" type="line"/>
    </contour>
    <contour>
      <point x="710" y="-24" type="curve" smooth="yes"/>
      <point x="822" y="-23"/>
      <point x="914" y="68"/>
      <point x="914" y="184" type="curve" smooth="yes"/>
      <point x="914" y="295"/>
      <point x="822" y="386"/>
      <point x="710" y="386" type="curve" smooth="yes"/>
      <point x="595" y="386"/>
      <point x="504" y="295"/>
      <point x="504" y="184" type="curve" smooth="yes"/>
      <point x="504" y="68"/>
      <point x="595" y="-23"/>
    </contour>
    <contour>
      <point x="710" y="824" type="curve" smooth="yes"/>
      <point x="823" y="823"/>
      <point x="914" y="916"/>
      <point x="914" y="1030" type="curve" smooth="yes"/>
      <point x="914" y="1143"/>
      <point x="823" y="1234"/>
      <point x="710" y="1234" type="curve" smooth="yes"/>
      <point x="596" y="1234"/>
      <point x="504" y="1143"/>
      <point x="504" y="1030" type="curve" smooth="yes"/>
      <point x="504" y="916"/>
      <point x="596" y="823"/>
    </contour>
  </outline>
</glyph>
<glyph name="idotless" format="2">
  <advance width="606"/>
  <unicode hex="0131"/>
  <anchor x="306" y="0" name="bottom"/>
  <anchor x="300" y="610" name="cross"/>
  <anchor x="504" y="0" name="ogonek"/>
  <anchor x="302" y="1118" name="top"/>
  <outline>
    <contour>
      <point x="102" y="0" type="line"/>
      <point x="504" y="0" type="line"/>
      <point x="504" y="1118" type="line"/>
      <point x="102" y="1118" type="line"/>
    </contour>
  </outline>
</glyph>
<glyph name="OE" format="2">
  <advance width="2107"/>
  <unicode hex="0152"/>
  <anchor x="1485" y="0" name="bottom"/>
  <anchor x="1487" y="0" name="cedilla"/>
  <anchor x="2018" y="0" name="ogonek"/>
  <anchor x="948" y="1490" name="tonos"/>
  <anchor x="1485" y="1490" name="top"/>
  <outline>
    <contour>
      <point x="810" y="0" type="curve"/>
      <point x="1186" y="0" type="line"/>
      <point x="1186" y="344" type="line"/>
      <point x="826" y="344" type="line"/>
      <point x="604" y="344"/>
      <point x="476" y="433"/>
      <point x="476" y="744" type="curve"/>
      <point x="476" y="1056"/>
      <point x="604" y="1146"/>
      <point x="838" y="1146" type="curve"/>
      <point x="1192" y="1146" type="line"/>
      <point x="1192" y="1490" type="line"/>
      <point x="816" y="1490" type="line"/>
      <point x="357" y="1490"/>
      <point x="70" y="1210"/>
      <point x="70" y="744" type="curve"/>
      <point x="70" y="279"/>
      <point x="357" y="0"/>
    </contour>
    <component base="E" xOffset="852"/>
  </outline>
</glyph>
<glyph name="tbar" format="2">
  <advance width="818"/>
  <unicode hex="0167"/>
  <anchor x="452" y="0" name="bottom"/>
  <anchor x="495" y="0" name="cedilla"/>
  <anchor x="786" y="15" name="lfthook"/>
  <anchor x="363" y="1384" name="top"/>
  <anchor x="694" y="1562" name="raccent"/>
  <outline>
    <contour>
      <point x="756" y="703" type="line"/>
      <point x="20" y="703" type="line"/>
      <point x="20" y="483" type="line"/>
      <point x="756" y="483" type="line"/>
    </contour>
    <component base="t"/>
  </outline>
</glyph>
<glyph name="Btopbar" format="2">
  <advance width="1340"/>
  <unicode hex="0182"/>
  <outline>
    <contour>
      <point x="96" y="0" type="line"/>
      <point x="652" y="0" type="line" smooth="yes"/>
      <point x="1027" y="0"/>
      <point x="1278" y="204"/>
      <point x="1278" y="500" type="curve" smooth="yes"/>
      <point x="1278" y="797"/>
      <point x="1027" y="989"/>
      <point x="652" y="990" type="curve" smooth="yes"/>
      <point x="500" y="990" type="line"/>
      <point x="500" y="1164" type="line"/>
      <point x="1144" y="1164" type="line"/>
      <point x="1144" y="1490" type="line"/>
      <point x="96" y="1490" type="line"/>
    </contour>
    <contour>
      <point x="500" y="318" type="line"/>
      <point x="500" y="680" type="line"/>
      <point x="652" y="680" type="line" smooth="yes"/>
      <point x="797" y="680"/>
      <point x="876" y="605"/>
      <point x="876" y="504" type="curve" smooth="yes"/>
      <point x="876" y="396"/>
      <point x="797" y="317"/>
      <point x="652" y="318" type="curve" smooth="yes"/>
    </contour>
  </outline>
</glyph>
<glyph name="Tonesix" format="2">
  <advance width="1842"/>
  <unicode hex="0184"/>
  <anchor x="828" y="1237" name="cross"/>
  <outline>
    <contour>
      <point x="324" y="891" type="line"/>
      <point x="678" y="1490" type="line"/>
      <point x="286" y="1490" type="line"/>
      <point x="46" y="1045" type="line"/>
    </contour>
    <component base="Softsign-cy" xOffset="462"/>
  </outline>
</glyph>
<glyph name="tonesix" format="2">
  <advance width="1641"/>
  <unicode hex="0185"/>
  <outline>
    <contour>
      <point x="252" y="551" type="line"/>
      <point x="599" y="1118" type="line"/>
      <point x="235" y="1118" type="line"/>
      <point x="12" y="673" type="line"/>
    </contour>
    <component base="softsigncyrillic" xOffset="379"/>
  </outline>
</glyph>
<glyph name="Dtopbar" format="2">
  <advance width="1428"/>
  <unicode hex="018B"/>
  <outline>
    <contour>
      <point x="1306" y="0" type="line"/>
      <point x="1306" y="1502" type="line"/>
      <point x="258" y="1502" type="line"/>
      <point x="258" y="1184" type="line"/>
      <point x="916" y="1184" type="line"/>
      <point x="916" y="990" type="line"/>
      <point x="750" y="990" type="line" smooth="yes"/>
      <point x="375" y="990"/>
      <point x="126" y="794"/>
      <point x="126" y="500" type="curve" smooth="yes"/>
      <point x="126" y="207"/>
      <point x="375" y="0"/>
      <point x="750" y="0" type="curve" smooth="yes"/>
    </contour>
    <contour>
      <point x="916" y="312" type="line"/>
      <point x="750" y="312" type="line" smooth="yes"/>
      <point x="602" y="312"/>
      <point x="514" y="396"/>
      <point x="514" y="504" type="curve" smooth="yes"/>
      <point x="514" y="605"/>
      <point x="602" y="681"/>
      <point x="750" y="680" type="curve" smooth="yes"/>
      <point x="916" y="680" type="line"/>
    </contour>
  </outline>
</glyph>
<glyph name="deltaturn" format="2">
  <advance width="1498"/>
  <unicode hex="018D"/>
  <outline>
    <contour>
      <point x="1184" y="-376" type="line"/>
      <point x="1184" y="-192" type="line"/>
      <point x="1135" y="-145"/>
      <point x="963" y="29"/>
      <point x="888" y="84" type="curve"/>
      <point x="902" y="84"/>
      <point x="926" y="84"/>
      <point x="926" y="84" type="curve" smooth="yes"/>
      <point x="1120" y="122"/>
      <point x="1306" y="311"/>
      <point x="1306" y="608" type="curve" smooth="yes"/>
      <point x="1306" y="628" type="line" smooth="yes"/>
      <point x="1306" y="931"/>
      <point x="1108" y="1132"/>
      <point x="750" y="1132" type="curve" smooth="yes"/>
      <point x="390" y="1132"/>
      <point x="195" y="905"/>
      <point x="194" y="570" type="curve" smooth="yes"/>
      <point x="194" y="550" type="line" smooth="yes"/>
      <point x="194" y="340"/>
      <point x="332" y="169"/>
      <point x="526" y="24" type="curve" smooth="yes"/>
      <point x="620" y="-47"/>
      <point x="666" y="-55"/>
      <point x="702" y="-76" type="curve"/>
      <point x="296" y="-76" type="line"/>
      <point x="296" y="-376" type="line"/>
    </contour>
    <contour>
      <point x="930" y="550" type="line"/>
      <point x="931" y="387"/>
      <point x="890" y="262"/>
      <point x="754" y="262" type="curve" smooth="yes"/>
      <point x="742" y="262"/>
      <point x="730" y="262"/>
      <point x="718" y="268" type="curve"/>
      <point x="637" y="308"/>
      <point x="570" y="404"/>
      <point x="570" y="550" type="curve" smooth="yes"/>
      <point x="570" y="570" type="line" smooth="yes"/>
      <point x="570" y="721"/>
      <point x="602" y="832"/>
      <point x="750" y="832" type="curve" smooth="yes"/>
      <point x="911" y="832"/>
      <point x="931" y="704"/>
      <point x="930" y="570" type="curve" smooth="yes"/>
    </contour>
  </outline>
</glyph>
<glyph name="Schwa" format="2">
  <advance width="1545"/>
  <unicode hex="018F"/>
  <outline>
    <contour>
      <point x="753" y="-20" type="curve" smooth="yes"/>
      <point x="1188" y="-20"/>
      <point x="1475" y="271"/>
      <point x="1475" y="742" type="curve" smooth="yes"/>
      <point x="1475" y="1233"/>
      <point x="1149" y="1510"/>
      <point x="747" y="1510" type="curve" smooth="yes"/>
      <point x="396" y="1510"/>
      <point x="124" y="1297"/>
      <point x="93" y="998" type="curve"/>
      <point x="501" y="998" type="line"/>
      <point x="526" y="1100"/>
      <point x="620" y="1158"/>
      <point x="747" y="1158" type="curve" smooth="yes"/>
      <point x="950" y="1158"/>
      <point x="1059" y="1006"/>
      <point x="1059" y="748" type="curve" smooth="yes"/>
      <point x="1059" y="486"/>
      <point x="959" y="332"/>
      <point x="749" y="332" type="curve" smooth="yes"/>
      <point x="565" y="332"/>
      <point x="465" y="417"/>
      <point x="465" y="552" type="curve"/>
      <point x="395" y="544" type="line"/>
      <point x="1149" y="544" type="line"/>
      <point x="1149" y="832" type="line"/>
      <point x="75" y="832" type="line"/>
      <point x="75" y="626" type="line" smooth="yes"/>
      <point x="75" y="218"/>
      <point x="363" y="-20"/>
    </contour>
  </outline>
</glyph>
<glyph name="florin" format="2">
  <advance width="1074"/>
  <unicode hex="0192"/>
  <outline>
    <contour>
      <point x="928" y="1082" type="line"/>
      <point x="702" y="1082" type="line"/>
      <point x="702" y="1160" type="line" smooth="yes"/>
      <point x="702" y="1228"/>
      <point x="755" y="1262"/>
      <point x="832" y="1262" type="curve" smooth="yes"/>
      <point x="889" y="1262"/>
      <point x="915" y="1260"/>
      <point x="946" y="1254" type="curve"/>
      <point x="966" y="1538" type="line"/>
      <point x="909" y="1548"/>
      <point x="860" y="1556"/>
      <point x="792" y="1556" type="curve" smooth="yes"/>
      <point x="493" y="1556"/>
      <point x="321" y="1420"/>
      <point x="320" y="1160" type="curve" smooth="yes"/>
      <point x="320" y="1082" type="line"/>
      <point x="160" y="1082" type="line"/>
      <point x="160" y="814" type="line"/>
      <point x="320" y="814" type="line"/>
      <point x="320" y="6" type="line" smooth="yes"/>
      <point x="320" y="-70"/>
      <point x="316" y="-120"/>
      <point x="216" y="-120" type="curve" smooth="yes"/>
      <point x="185" y="-120"/>
      <point x="147" y="-113"/>
      <point x="122" y="-108" type="curve"/>
      <point x="108" y="-404" type="line"/>
      <point x="173" y="-416"/>
      <point x="225" y="-418"/>
      <point x="282" y="-418" type="curve" smooth="yes"/>
      <point x="545" y="-418"/>
      <point x="701" y="-271"/>
      <point x="702" y="6" type="curve" smooth="yes"/>
      <point x="702" y="814" type="line"/>
      <point x="928" y="814" type="line"/>
    </contour>
  </outline>
</glyph>
<glyph name="Gamma1" format="2">
  <advance width="1682"/>
  <unicode hex="0194"/>
  <outline>
    <contour>
      <point x="98" y="1490" type="line"/>
      <point x="802" y="168" type="line" smooth="yes"/>
      <point x="850" y="79"/>
      <point x="882" y="-36"/>
      <point x="882" y="-116" type="curve" smooth="yes"/>
      <point x="882" y="-165"/>
      <point x="869" y="-186"/>
      <point x="840" y="-186" type="curve" smooth="yes"/>
      <point x="812" y="-186"/>
      <point x="800" y="-164"/>
      <point x="800" y="-118" type="curve" smooth="yes"/>
      <point x="800" y="-38"/>
      <point x="831" y="74"/>
      <point x="882" y="168" type="curve" smooth="yes"/>
      <point x="1582" y="1490" type="line"/>
      <point x="1114" y="1490" type="line"/>
      <point x="738" y="688" type="line" smooth="yes"/>
      <point x="438" y="46"/>
      <point x="402" y="-55"/>
      <point x="402" y="-140" type="curve" smooth="yes"/>
      <point x="402" y="-327"/>
      <point x="581" y="-442"/>
      <point x="840" y="-442" type="curve" smooth="yes"/>
      <point x="1095" y="-442"/>
      <point x="1266" y="-315"/>
      <point x="1266" y="-152" type="curve" smooth="yes"/>
      <point x="1266" y="-28"/>
      <point x="1159" y="245"/>
      <point x="948" y="686" type="curve" smooth="yes"/>
      <point x="564" y="1490" type="line"/>
    </contour>
  </outline>
</glyph>
<glyph name="hv" format="2">
  <advance width="2062"/>
  <unicode hex="0195"/>
  <outline>
    <contour>
      <point x="1330" y="-20" type="curve" smooth="yes"/>
      <point x="1801" y="-20"/>
      <point x="1961" y="339"/>
      <point x="1960" y="1012" type="curve" smooth="yes"/>
      <point x="1960" y="1118" type="line"/>
      <point x="1560" y="1118" type="line"/>
      <point x="1560" y="1012" type="line" smooth="yes"/>
      <point x="1560" y="573"/>
      <point x="1508" y="306"/>
      <point x="1342" y="306" type="curve" smooth="yes"/>
      <point x="1271" y="306"/>
      <point x="1228" y="353"/>
      <point x="1228" y="430" type="curve" smooth="yes"/>
      <point x="1228" y="712" type="line" smooth="yes"/>
      <point x="1228" y="957"/>
      <point x="1074" y="1132"/>
      <point x="838" y="1132" type="curve" smooth="yes"/>
      <point x="673" y="1132"/>
      <point x="551" y="1047"/>
      <point x="500" y="904" type="curve"/>
      <point x="488" y="904" type="line"/>
      <point x="488" y="1490" type="line"/>
      <point x="102" y="1490" type="line"/>
      <point x="102" y="0" type="line"/>
      <point x="504" y="0" type="line"/>
      <point x="504" y="628" type="line" smooth="yes"/>
      <point x="504" y="739"/>
      <point x="568" y="806"/>
      <point x="666" y="806" type="curve" smooth="yes"/>
      <point x="769" y="806"/>
      <point x="826" y="739"/>
      <point x="826" y="628" type="curve" smooth="yes"/>
      <point x="826" y="430" type="line" smooth="yes"/>
      <point x="826" y="164"/>
      <point x="991" y="-20"/>
    </contour>
  </outline>
</glyph>
<glyph name="Khook" format="2">
  <advance width="1570"/>
  <unicode hex="0198"/>
  <outline>
    <contour>
      <point x="96" y="0" type="line"/>
      <point x="500" y="0" type="line"/>
      <point x="500" y="318" type="line"/>
      <point x="680" y="504" type="line"/>
      <point x="1064" y="0" type="line"/>
      <point x="1548" y="0" type="line"/>
      <point x="940" y="792" type="line"/>
      <point x="1242" y="1096" type="line" smooth="yes"/>
      <point x="1305" y="1159"/>
      <point x="1347" y="1196"/>
      <point x="1440" y="1152" type="curve"/>
      <point x="1560" y="1434" type="line"/>
      <point x="1327" y="1562"/>
      <point x="1120" y="1521"/>
      <point x="942" y="1342" type="curve" smooth="yes"/>
      <point x="520" y="914" type="line"/>
      <point x="500" y="914" type="line"/>
      <point x="500" y="1490" type="line"/>
      <point x="96" y="1490" type="line"/>
    </contour>
  </outline>
</glyph>
<glyph name="mcapturn" format="2">
  <advance width="2022"/>
  <unicode hex="019C"/>
  <outline>
    <contour>
      <point x="1490" y="286" type="line"/>
      <point x="1534" y="0" type="line"/>
      <point x="1868" y="0" type="line"/>
      <point x="1868" y="1490" type="line"/>
      <point x="1490" y="1490" type="line"/>
    </contour>
    <contour>
      <point x="1538" y="504" type="line"/>
      <point x="1539" y="375"/>
      <point x="1484" y="280"/>
      <point x="1332" y="280" type="curve" smooth="yes"/>
      <point x="1239" y="280"/>
      <point x="1196" y="335"/>
      <point x="1196" y="414" type="curve"/>
      <point x="1196" y="1490" type="line"/>
      <point x="824" y="1490" type="line"/>
      <point x="824" y="414" type="line"/>
      <point x="824" y="99"/>
      <point x="972" y="-20"/>
      <point x="1204" y="-20" type="curve" smooth="yes"/>
      <point x="1475" y="-20"/>
      <point x="1638" y="204"/>
      <point x="1638" y="506" type="curve"/>
    </contour>
    <contour>
      <point x="872" y="504" type="line"/>
      <point x="873" y="372"/>
      <point x="817" y="280"/>
      <point x="666" y="280" type="curve" smooth="yes"/>
      <point x="573" y="280"/>
      <point x="529" y="335"/>
      <point x="530" y="414" type="curve" smooth="yes"/>
      <point x="530" y="1490" type="line"/>
      <point x="158" y="1490" type="line"/>
      <point x="158" y="414" type="line" smooth="yes"/>
      <point x="158" y="102"/>
      <point x="273" y="-20"/>
      <point x="538" y="-20" type="curve" smooth="yes"/>
      <point x="820" y="-20"/>
      <point x="977" y="195"/>
      <point x="978" y="506" type="curve"/>
    </contour>
  </outline>
</glyph>
<glyph name="Ohorn" format="2">
  <advance width="1628"/>
  <unicode hex="01A0"/>
  <anchor x="794" y="0" name="bottom"/>
  <anchor x="794" y="745" name="center"/>
  <anchor x="1518" y="744" name="ogonek"/>
  <anchor x="208" y="1490" name="tonos"/>
  <anchor x="794" y="1490" name="top"/>
  <anchor x="794" y="1510" name="tophorn"/>
  <outline>
    <contour>
      <point x="814" y="1270" type="line"/>
      <point x="969" y="1270"/>
      <point x="1125" y="1266"/>
      <point x="1280" y="1266" type="curve" smooth="yes"/>
      <point x="1424" y="1266"/>
      <point x="1538" y="1324"/>
      <point x="1538" y="1490" type="curve" smooth="yes"/>
      <point x="1538" y="1698" type="line"/>
      <point x="1190" y="1698" type="line"/>
      <point x="1190" y="1522" type="line" smooth="yes"/>
      <point x="1190" y="1501"/>
      <point x="1179" y="1490"/>
      <point x="1158" y="1490" type="curve" smooth="yes"/>
      <point x="987" y="1490"/>
      <point x="929" y="1510"/>
      <point x="814" y="1510" type="curve"/>
    </contour>
    <component base="O"/>
  </outline>
</glyph>
<glyph name="ohorn" format="2">
  <advance width="1280"/>
  <unicode hex="01A1"/>
  <anchor x="640" y="0" name="bottom"/>
  <anchor x="640" y="559" name="center"/>
  <anchor x="1218" y="556" name="ogonek"/>
  <anchor x="640" y="1118" name="top"/>
  <anchor x="640" y="1132" name="tophorn"/>
  <outline>
    <contour>
      <point x="640" y="942" type="line"/>
      <point x="750" y="942"/>
      <point x="890" y="942"/>
      <point x="1000" y="942" type="curve" smooth="yes"/>
      <point x="1184" y="942"/>
      <point x="1300" y="1044"/>
      <point x="1300" y="1206" type="curve" smooth="yes"/>
      <point x="1300" y="1366" type="line"/>
      <point x="1000" y="1366" type="line"/>
      <point x="1000" y="1174" type="line" smooth="yes"/>
      <point x="1000" y="1138"/>
      <point x="977" y="1118"/>
      <point x="936" y="1118" type="curve" smooth="yes"/>
      <point x="883" y="1118"/>
      <point x="709" y="1132"/>
      <point x="640" y="1132" type="curve"/>
    </contour>
    <component base="o"/>
  </outline>
</glyph>
<glyph name="OI" format="2">
  <advance width="2010"/>
  <unicode hex="01A2"/>
  <outline>
    <contour>
      <point x="1378" y="966" type="line"/>
      <point x="1000" y="966" type="line"/>
      <point x="1000" y="340" type="line"/>
      <point x="965" y="317"/>
      <point x="895" y="290"/>
      <point x="800" y="290" type="curve" smooth="yes"/>
      <point x="558" y="290"/>
      <point x="489" y="451"/>
      <point x="488" y="690" type="curve" smooth="yes"/>
      <point x="488" y="776" type="line"/>
      <point x="90" y="774" type="line"/>
      <point x="90" y="690" type="line" smooth="yes"/>
      <point x="90" y="241"/>
      <point x="347" y="-20"/>
      <point x="786" y="-20" type="curve" smooth="yes"/>
      <point x="1083" y="-20"/>
      <point x="1297" y="96"/>
      <point x="1378" y="178" type="curve"/>
    </contour>
    <contour>
      <point x="1378" y="1312" type="line"/>
      <point x="1297" y="1396"/>
      <point x="1086" y="1510"/>
      <point x="786" y="1510" type="curve" smooth="yes"/>
      <point x="347" y="1510"/>
      <point x="90" y="1251"/>
      <point x="90" y="800" type="curve" smooth="yes"/>
      <point x="90" y="698" type="line"/>
      <point x="488" y="696" type="line"/>
      <point x="488" y="800" type="line" smooth="yes"/>
      <point x="488" y="1053"/>
      <point x="546" y="1198"/>
      <point x="802" y="1198" type="curve" smooth="yes"/>
      <point x="875" y="1198"/>
      <point x="953" y="1187"/>
      <point x="1000" y="1152" type="curve"/>
      <point x="1000" y="530" type="line"/>
      <point x="1378" y="536" type="line"/>
    </contour>
    <contour>
      <point x="1914" y="1490" type="line"/>
      <point x="1634" y="1490" type="line"/>
      <point x="1164" y="1266" type="line"/>
      <point x="1164" y="832" type="line"/>
      <point x="1542" y="1016" type="line"/>
      <point x="1542" y="-418" type="line"/>
      <point x="1914" y="-418" type="line"/>
    </contour>
  </outline>
</glyph>
<glyph name="oi" format="2">
  <advance width="1676"/>
  <unicode hex="01A3"/>
  <outline>
    <contour>
      <point x="616" y="282" type="curve" smooth="yes"/>
      <point x="462" y="282"/>
      <point x="462" y="416"/>
      <point x="462" y="532" type="curve" smooth="yes"/>
      <point x="462" y="550" type="line" smooth="yes"/>
      <point x="462" y="710"/>
      <point x="473" y="832"/>
      <point x="610" y="832" type="curve"/>
      <point x="677" y="832"/>
      <point x="715" y="809"/>
      <point x="742" y="766" type="curve"/>
      <point x="742" y="638" type="line"/>
      <point x="1118" y="602" type="line"/>
      <point x="1118" y="824" type="line"/>
      <point x="1064" y="943"/>
      <point x="889" y="1132"/>
      <point x="626" y="1132" type="curve" smooth="yes"/>
      <point x="267" y="1132"/>
      <point x="90" y="899"/>
      <point x="90" y="550" type="curve" smooth="yes"/>
      <point x="90" y="532" type="line" smooth="yes"/>
      <point x="90" y="209"/>
      <point x="267" y="-20"/>
      <point x="626" y="-20" type="curve"/>
      <point x="919" y="-20"/>
      <point x="1044" y="105"/>
      <point x="1118" y="248" type="curve"/>
      <point x="1118" y="686" type="line"/>
      <point x="742" y="686" type="line"/>
      <point x="742" y="328" type="line"/>
      <point x="718" y="297"/>
      <point x="674" y="282"/>
    </contour>
    <contour>
      <point x="1588" y="1118" type="line"/>
      <point x="1344" y="1118" type="line"/>
      <point x="958" y="962" type="line"/>
      <point x="958" y="646" type="line"/>
      <point x="1210" y="718" type="line"/>
      <point x="1210" y="-418" type="line"/>
      <point x="1588" y="-418" type="line"/>
    </contour>
  </outline>
</glyph>
<glyph name="YR" format="2">
  <advance width="1618"/>
  <unicode hex="01A6"/>
  <outline>
    <contour>
      <point x="94" y="1388" type="line"/>
      <point x="482" y="1388" type="line"/>
      <point x="482" y="1592" type="line"/>
      <point x="94" y="1592" type="line"/>
    </contour>
    <contour>
      <point x="94" y="1490" type="line" name="hr01"/>
      <point x="94" y="0" type="line"/>
      <point x="486" y="0" type="line"/>
      <point x="486" y="1176" type="line"/>
      <point x="710" y="1176" type="line" smooth="yes"/>
      <point x="832" y="1176"/>
      <point x="904" y="1111"/>
      <point x="904" y="1000" type="curve" smooth="yes"/>
      <point x="904" y="890"/>
      <point x="835" y="829"/>
      <point x="710" y="830" type="curve" smooth="yes"/>
      <point x="332" y="830" type="line"/>
      <point x="334" y="518" type="line"/>
      <point x="844" y="518" type="line"/>
      <point x="978" y="600" type="line"/>
      <point x="1164" y="675"/>
      <point x="1294" y="777"/>
      <point x="1294" y="1048" type="curve" smooth="yes"/>
      <point x="1294" y="1335"/>
      <point x="1062" y="1489"/>
      <point x="710" y="1490" type="curve" smooth="yes"/>
    </contour>
    <contour>
      <point x="1106" y="-344" type="line"/>
      <point x="1524" y="-344" type="line"/>
      <point x="1524" y="-328" type="line"/>
      <point x="1004" y="640" type="line"/>
      <point x="590" y="640" type="line"/>
    </contour>
  </outline>
</glyph>
<glyph name="tonetwo" format="2">
  <advance width="1204"/>
  <unicode hex="01A8"/>
  <anchor x="600" y="0" name="bottom"/>
  <anchor x="590" y="0" name="cedilla"/>
  <anchor x="600" y="1118" name="top"/>
  <outline>
    <contour>
      <point x="82" y="754" type="curve"/>
      <point x="450" y="754" type="line"/>
      <point x="456" y="822"/>
      <point x="523" y="864"/>
      <point x="602" y="864" type="curve" smooth="yes"/>
      <point x="671" y="864"/>
      <point x="726" y="838"/>
      <point x="726" y="792" type="curve" smooth="yes"/>
      <point x="726" y="759"/>
      <point x="704" y="727"/>
      <point x="620" y="712" type="curve" smooth="yes"/>
      <point x="392" y="672" type="line" smooth="yes"/>
      <point x="164" y="632"/>
      <point x="52" y="535"/>
      <point x="52" y="370" type="curve" smooth="yes"/>
      <point x="52" y="130"/>
      <point x="281" y="-20"/>
      <point x="590" y="-20" type="curve" smooth="yes"/>
      <point x="932" y="-20"/>
      <point x="1130" y="132"/>
      <point x="1152" y="360" type="curve"/>
      <point x="754" y="360" type="line"/>
      <point x="742" y="289"/>
      <point x="678" y="250"/>
      <point x="588" y="250" type="curve" smooth="yes"/>
      <point x="514" y="250"/>
      <point x="460" y="276"/>
      <point x="460" y="322" type="curve" smooth="yes"/>
      <point x="460" y="365"/>
      <point x="500" y="388"/>
      <point x="588" y="404" type="curve" smooth="yes"/>
      <point x="786" y="440" type="line" smooth="yes"/>
      <point x="1013" y="481"/>
      <point x="1126" y="592"/>
      <point x="1126" y="768" type="curve" smooth="yes"/>
      <point x="1126" y="1001"/>
      <point x="930" y="1132"/>
      <point x="610" y="1132" type="curve" smooth="yes"/>
      <point x="288" y="1132"/>
      <point x="91" y="990"/>
    </contour>
  </outline>
</glyph>
<glyph name="eshlooprev" format="2">
  <advance width="1490"/>
  <unicode hex="01AA"/>
  <outline>
    <contour>
      <point x="712" y="896" type="line"/>
      <point x="712" y="8" type="line" smooth="yes"/>
      <point x="712" y="-282"/>
      <point x="889" y="-442"/>
      <point x="1166" y="-442" type="curve" smooth="yes"/>
      <point x="1232" y="-442"/>
      <point x="1284" y="-439"/>
      <point x="1342" y="-428" type="curve"/>
      <point x="1342" y="-134" type="line"/>
      <point x="1296" y="-140"/>
      <point x="1267" y="-142"/>
      <point x="1234" y="-142" type="curve" smooth="yes"/>
      <point x="1142" y="-142"/>
      <point x="1088" y="-87"/>
      <point x="1088" y="8" type="curve" smooth="yes"/>
      <point x="1088" y="1100" type="line"/>
    </contour>
    <contour>
      <point x="148" y="1100" type="curve" smooth="yes"/>
      <point x="150" y="847"/>
      <point x="359" y="642"/>
      <point x="616" y="642" type="curve" smooth="yes"/>
      <point x="874" y="642"/>
      <point x="1088" y="849"/>
      <point x="1088" y="1100" type="curve" smooth="yes"/>
      <point x="1088" y="1347"/>
      <point x="874" y="1556"/>
      <point x="616" y="1556" type="curve" smooth="yes"/>
      <point x="356" y="1556"/>
      <point x="147" y="1347"/>
    </contour>
    <contour>
      <point x="620" y="954" type="curve" smooth="yes"/>
      <point x="531" y="954"/>
      <point x="470" y="1004"/>
      <point x="472" y="1102" type="curve" smooth="yes"/>
      <point x="472" y="1196"/>
      <point x="531" y="1246"/>
      <point x="620" y="1246" type="curve" smooth="yes"/>
      <point x="694" y="1246"/>
      <point x="762" y="1199"/>
      <point x="762" y="1102" type="curve" smooth="yes"/>
      <point x="764" y="1004"/>
      <point x="697" y="954"/>
    </contour>
  </outline>
</glyph>
<glyph name="thook" format="2">
  <advance width="818"/>
  <unicode hex="01AD"/>
  <anchor x="564" y="1118" name="_topr"/>
  <anchor x="452" y="0" name="bottom"/>
  <anchor x="405" y="1490" name="top"/>
  <outline>
    <contour>
      <point x="162" y="1118" type="line"/>
      <point x="162" y="322" type="line" smooth="yes"/>
      <point x="162" y="99"/>
      <point x="290" y="-17"/>
      <point x="541" y="-17" type="curve" smooth="yes"/>
      <point x="613" y="-17"/>
      <point x="684" y="-7"/>
      <point x="776" y="18" type="curve"/>
      <point x="718" y="302" type="line"/>
      <point x="703" y="297"/>
      <point x="664" y="290"/>
      <point x="640" y="290" type="curve" smooth="yes"/>
      <point x="587" y="290"/>
      <point x="564" y="313"/>
      <point x="564" y="360" type="curve" smooth="yes"/>
      <point x="564" y="1118" type="line"/>
    </contour>
    <contour>
      <point x="756" y="1118" type="line"/>
      <point x="20" y="1118" type="line"/>
      <point x="20" y="826" type="line"/>
      <point x="756" y="826" type="line"/>
    </contour>
    <component base="_part.top_r_hook" xOffset="64"/>
  </outline>
</glyph>
<glyph name="Uhorn" format="2">
  <advance width="1478"/>
  <unicode hex="01AF"/>
  <anchor x="738" y="0" name="bottom"/>
  <anchor x="1382" y="536" name="ogonek"/>
  <anchor x="866" y="0" name="right"/>
  <anchor x="978" y="1490" name="rtophorn"/>
  <anchor x="738" y="1490" name="top"/>
  <outline>
    <contour>
      <point x="978" y="1250" type="line"/>
      <point x="1290" y="1250" type="line" smooth="yes"/>
      <point x="1434" y="1250"/>
      <point x="1548" y="1324"/>
      <point x="1548" y="1490" type="curve" smooth="yes"/>
      <point x="1548" y="1698" type="line"/>
      <point x="1200" y="1698" type="line"/>
      <point x="1200" y="1522" type="line" smooth="yes"/>
      <point x="1200" y="1501"/>
      <point x="1189" y="1490"/>
      <point x="1168" y="1490" type="curve" smooth="yes"/>
      <point x="978" y="1490" type="line"/>
    </contour>
    <component base="U"/>
  </outline>
</glyph>
<glyph name="uhorn" format="2">
  <advance width="1420"/>
  <unicode hex="01B0"/>
  <anchor x="681" y="0" name="bottom"/>
  <anchor x="1228" y="0" name="ogonek"/>
  <anchor x="826" y="1118" name="rtophorn"/>
  <anchor x="666" y="1118" name="top"/>
  <outline>
    <contour>
      <point x="994" y="878" type="line"/>
      <point x="1130" y="878" type="line" smooth="yes"/>
      <point x="1274" y="878"/>
      <point x="1388" y="952"/>
      <point x="1388" y="1118" type="curve" smooth="yes"/>
      <point x="1388" y="1366" type="line"/>
      <point x="1088" y="1366" type="line"/>
      <point x="1088" y="1150" type="line" smooth="yes"/>
      <point x="1088" y="1129"/>
      <point x="1077" y="1118"/>
      <point x="1056" y="1118" type="curve" smooth="yes"/>
      <point x="994" y="1118" type="line"/>
    </contour>
    <component base="u"/>
  </outline>
</glyph>
<glyph name="Upsilon2" format="2">
  <advance width="1618"/>
  <unicode hex="01B1"/>
  <outline>
    <contour>
      <point x="72" y="666" type="curve" smooth="yes"/>
      <point x="73" y="265"/>
      <point x="378" y="-20"/>
      <point x="808" y="-20" type="curve" smooth="yes"/>
      <point x="1239" y="-20"/>
      <point x="1544" y="265"/>
      <point x="1544" y="666" type="curve"/>
      <point x="1544" y="893"/>
      <point x="1446" y="1053"/>
      <point x="1288" y="1152" type="curve"/>
      <point x="1288" y="1164" type="line"/>
      <point x="1544" y="1164" type="line"/>
      <point x="1544" y="1490" type="line"/>
      <point x="914" y="1490" type="line"/>
      <point x="914" y="1082" type="line"/>
      <point x="1047" y="1030"/>
      <point x="1132" y="881"/>
      <point x="1132" y="706" type="curve" smooth="yes"/>
      <point x="1132" y="489"/>
      <point x="998" y="334"/>
      <point x="808" y="334" type="curve" smooth="yes"/>
      <point x="620" y="334"/>
      <point x="486" y="489"/>
      <point x="486" y="706" type="curve"/>
      <point x="486" y="881"/>
      <point x="570" y="1030"/>
      <point x="704" y="1082" type="curve"/>
      <point x="704" y="1490" type="line"/>
      <point x="72" y="1490" type="line"/>
      <point x="72" y="1164" type="line"/>
      <point x="328" y="1164" type="line"/>
      <point x="328" y="1152" type="line"/>
      <point x="172" y="1053"/>
      <point x="73" y="893"/>
    </contour>
  </outline>
</glyph>
<glyph name="Vcursive" format="2">
  <advance width="1420"/>
  <unicode hex="01B2"/>
  <outline>
    <contour>
      <point x="712" y="-20" type="curve" smooth="yes"/>
      <point x="1086" y="-20"/>
      <point x="1321" y="177"/>
      <point x="1320" y="520" type="curve" smooth="yes"/>
      <point x="1320" y="1058" type="line" smooth="yes"/>
      <point x="1320" y="1350"/>
      <point x="1160" y="1510"/>
      <point x="866" y="1510" type="curve" smooth="yes"/>
      <point x="808" y="1510"/>
      <point x="763" y="1505"/>
      <point x="702" y="1492" type="curve"/>
      <point x="702" y="1182" type="line"/>
      <point x="743" y="1187"/>
      <point x="775" y="1190"/>
      <point x="806" y="1190" type="curve" smooth="yes"/>
      <point x="905" y="1190"/>
      <point x="925" y="1161"/>
      <point x="926" y="1058" type="curve" smooth="yes"/>
      <point x="926" y="520" type="line" smooth="yes"/>
      <point x="926" y="378"/>
      <point x="873" y="290"/>
      <point x="712" y="290" type="curve" smooth="yes"/>
      <point x="551" y="290"/>
      <point x="492" y="378"/>
      <point x="492" y="520" type="curve" smooth="yes"/>
      <point x="492" y="1490" type="line"/>
      <point x="102" y="1490" type="line"/>
      <point x="102" y="520" type="line" smooth="yes"/>
      <point x="102" y="175"/>
      <point x="350" y="-20"/>
    </contour>
  </outline>
</glyph>
<glyph name="yhook" format="2">
  <advance width="1529"/>
  <unicode hex="01B4"/>
  <anchor x="1034" y="0" name="bottom"/>
  <anchor x="865" y="0" name="ogonek"/>
  <anchor x="655" y="1118" name="top"/>
  <outline>
    <contour>
      <point x="874" y="1118" type="line"/>
      <point x="1290" y="1118" type="line"/>
      <point x="1297" y="1136" type="line" smooth="yes"/>
      <point x="1319" y="1192"/>
      <point x="1326" y="1216"/>
      <point x="1404" y="1216" type="curve" smooth="yes"/>
      <point x="1443" y="1216"/>
      <point x="1479" y="1212"/>
      <point x="1519" y="1207" type="curve"/>
      <point x="1519" y="1480" type="line"/>
      <point x="1460" y="1496"/>
      <point x="1394" y="1504"/>
      <point x="1321" y="1504" type="curve" smooth="yes"/>
      <point x="1040" y="1504"/>
      <point x="957" y="1368"/>
      <point x="880" y="1136" type="curve" smooth="yes"/>
    </contour>
    <component base="y"/>
  </outline>
</glyph>
<glyph name="Ezh" format="2">
  <advance width="1412"/>
  <unicode hex="01B7"/>
  <anchor x="706" y="1490" name="top"/>
  <outline>
    <contour>
      <point x="56" y="136" type="line"/>
      <point x="61" y="-199"/>
      <point x="333" y="-442"/>
      <point x="704" y="-442" type="curve" smooth="yes"/>
      <point x="1087" y="-442"/>
      <point x="1364" y="-164"/>
      <point x="1364" y="222" type="curve" smooth="yes"/>
      <point x="1364" y="534"/>
      <point x="1170" y="759"/>
      <point x="870" y="792" type="curve"/>
      <point x="870" y="806" type="line"/>
      <point x="1326" y="1198" type="line"/>
      <point x="1326" y="1490" type="line"/>
      <point x="136" y="1490" type="line"/>
      <point x="136" y="1158" type="line"/>
      <point x="840" y="1158" type="line"/>
      <point x="840" y="1146" type="line"/>
      <point x="480" y="832" type="line"/>
      <point x="480" y="552" type="line"/>
      <point x="674" y="552" type="line" smooth="yes"/>
      <point x="828" y="552"/>
      <point x="940" y="425"/>
      <point x="940" y="214" type="curve" smooth="yes"/>
      <point x="940" y="26"/>
      <point x="853" y="-108"/>
      <point x="698" y="-108" type="curve" smooth="yes"/>
      <point x="566" y="-108"/>
      <point x="468" y="-9"/>
      <point x="462" y="136" type="curve"/>
    </contour>
  </outline>
</glyph>
<glyph name="Ezhreversed" format="2">
  <advance width="1414"/>
  <unicode hex="01B8"/>
  <anchor x="706" y="1490" name="top"/>
  <outline>
    <contour>
      <point x="1358" y="136" type="curve"/>
      <point x="950" y="136" type="line"/>
      <point x="945" y="-9"/>
      <point x="847" y="-108"/>
      <point x="714" y="-108" type="curve" smooth="yes"/>
      <point x="560" y="-108"/>
      <point x="474" y="26"/>
      <point x="474" y="214" type="curve" smooth="yes"/>
      <point x="474" y="425"/>
      <point x="585" y="553"/>
      <point x="738" y="552" type="curve" smooth="yes"/>
      <point x="932" y="552" type="line"/>
      <point x="932" y="832" type="line"/>
      <point x="572" y="1146" type="line"/>
      <point x="572" y="1158" type="line"/>
      <point x="1276" y="1158" type="line"/>
      <point x="1276" y="1490" type="line"/>
      <point x="86" y="1490" type="line"/>
      <point x="86" y="1198" type="line"/>
      <point x="544" y="806" type="line"/>
      <point x="544" y="792" type="line"/>
      <point x="243" y="759"/>
      <point x="48" y="534"/>
      <point x="48" y="222" type="curve" smooth="yes"/>
      <point x="48" y="-164"/>
      <point x="326" y="-442"/>
      <point x="708" y="-442" type="curve" smooth="yes"/>
      <point x="1080" y="-442"/>
      <point x="1352" y="-199"/>
    </contour>
  </outline>
</glyph>
<glyph name="ezhreversed" format="2">
  <advance width="1370"/>
  <unicode hex="01B9"/>
  <anchor x="680" y="1118" name="top"/>
  <outline>
    <contour>
      <point x="686" y="-392" type="curve" smooth="yes"/>
      <point x="1054" y="-392"/>
      <point x="1290" y="-195"/>
      <point x="1294" y="82" type="curve"/>
      <point x="888" y="82" type="line"/>
      <point x="884" y="-5"/>
      <point x="798" y="-66"/>
      <point x="686" y="-66" type="curve" smooth="yes"/>
      <point x="570" y="-66"/>
      <point x="498" y="2"/>
      <point x="498" y="90" type="curve" smooth="yes"/>
      <point x="498" y="188"/>
      <point x="586" y="244"/>
      <point x="710" y="244" type="curve" smooth="yes"/>
      <point x="898" y="244" type="line"/>
      <point x="898" y="512" type="line"/>
      <point x="596" y="786" type="line"/>
      <point x="596" y="794" type="line"/>
      <point x="1218" y="794" type="line"/>
      <point x="1218" y="1118" type="line"/>
      <point x="116" y="1118" type="line"/>
      <point x="116" y="826" type="line"/>
      <point x="518" y="474" type="line"/>
      <point x="518" y="462" type="line"/>
      <point x="166" y="419"/>
      <point x="70" y="221"/>
      <point x="70" y="56" type="curve" smooth="yes"/>
      <point x="70" y="-216"/>
      <point x="339" y="-392"/>
    </contour>
  </outline>
</glyph>
<glyph name="ezhtail" format="2">
  <advance width="1228"/>
  <unicode hex="01BA"/>
  <outline>
    <contour>
      <point x="172" y="1118" type="line" name="hr00"/>
      <point x="172" y="818" type="line"/>
      <point x="524" y="818" type="line"/>
      <point x="334" y="664" type="line"/>
      <point x="334" y="454" type="line"/>
      <point x="556" y="454" type="line"/>
      <point x="1096" y="906" type="line"/>
      <point x="1096" y="1118" type="line"/>
    </contour>
    <contour>
      <point x="478" y="-116" type="curve" smooth="yes"/>
      <point x="478" y="-73"/>
      <point x="526" y="-42"/>
      <point x="664" y="-10" type="curve" smooth="yes"/>
      <point x="887" y="42"/>
      <point x="1094" y="140"/>
      <point x="1094" y="350" type="curve" smooth="yes"/>
      <point x="1094" y="535"/>
      <point x="924" y="698"/>
      <point x="622" y="698" type="curve" smooth="yes"/>
      <point x="446" y="698" type="line"/>
      <point x="446" y="454" type="line"/>
      <point x="622" y="454" type="line" smooth="yes"/>
      <point x="689" y="454"/>
      <point x="738" y="423"/>
      <point x="738" y="368" type="curve" smooth="yes"/>
      <point x="738" y="297"/>
      <point x="657" y="272"/>
      <point x="540" y="252" type="curve" smooth="yes"/>
      <point x="241" y="199"/>
      <point x="114" y="93"/>
      <point x="114" y="-94" type="curve" smooth="yes"/>
      <point x="114" y="-300"/>
      <point x="313" y="-442"/>
      <point x="622" y="-442" type="curve" smooth="yes"/>
      <point x="950" y="-442"/>
      <point x="1127" y="-244"/>
      <point x="1128" y="-72" type="curve"/>
      <point x="780" y="-72" type="line"/>
      <point x="775" y="-166"/>
      <point x="694" y="-192"/>
      <point x="610" y="-192" type="curve" smooth="yes"/>
      <point x="540" y="-192"/>
      <point x="478" y="-172"/>
    </contour>
  </outline>
</glyph>
<glyph name="Tonefive" format="2">
  <advance width="1346"/>
  <unicode hex="01BC"/>
  <outline>
    <contour>
      <point x="378" y="1490" type="line"/>
      <point x="56" y="1490" type="line"/>
      <point x="56" y="1166" type="line"/>
      <point x="378" y="1166" type="line"/>
    </contour>
    <component base="five" xOffset="22"/>
  </outline>
</glyph>
<glyph name="tonefive" format="2">
  <advance width="1498"/>
  <unicode hex="01BD"/>
  <outline>
    <contour>
      <point x="652" y="454" type="line" name="hr00"/>
      <point x="671" y="463"/>
      <point x="718" y="466"/>
      <point x="788" y="466" type="curve" smooth="yes"/>
      <point x="881" y="466"/>
      <point x="940" y="431"/>
      <point x="940" y="378" type="curve" smooth="yes"/>
      <point x="940" y="317"/>
      <point x="892" y="286"/>
      <point x="798" y="286" type="curve" smooth="yes"/>
      <point x="700" y="286"/>
      <point x="642" y="297"/>
      <point x="632" y="346" type="curve"/>
      <point x="256" y="334" type="line"/>
      <point x="256" y="84"/>
      <point x="505" y="-18"/>
      <point x="798" y="-18" type="curve" smooth="yes"/>
      <point x="1163" y="-18"/>
      <point x="1314" y="134"/>
      <point x="1314" y="344" type="curve" smooth="yes"/>
      <point x="1314" y="564"/>
      <point x="1163" y="696"/>
      <point x="904" y="696" type="curve" smooth="yes"/>
      <point x="796" y="696"/>
      <point x="718" y="675"/>
      <point x="672" y="654" type="curve"/>
      <point x="698" y="798" type="line"/>
      <point x="1224" y="798" type="line"/>
      <point x="1224" y="1082" type="line"/>
      <point x="396" y="1082" type="line"/>
      <point x="306" y="466" type="line"/>
    </contour>
    <contour>
      <point x="512" y="1082" type="line"/>
      <point x="184" y="1082" type="line"/>
      <point x="184" y="798" type="line"/>
      <point x="512" y="798" type="line"/>
    </contour>
  </outline>
</glyph>
<glyph name="glottalstopbarinv" format="2">
  <advance width="1228"/>
  <unicode hex="01BE"/>
  <outline>
    <contour>
      <point x="760" y="312" type="curve" smooth="yes" name="hr00"/>
      <point x="761" y="253"/>
      <point x="705" y="230"/>
      <point x="626" y="230" type="curve" smooth="yes"/>
      <point x="545" y="230"/>
      <point x="464" y="259"/>
      <point x="456" y="350" type="curve"/>
      <point x="108" y="350" type="line"/>
      <point x="108" y="183"/>
      <point x="287" y="-20"/>
      <point x="616" y="-20" type="curve" smooth="yes"/>
      <point x="927" y="-20"/>
      <point x="1120" y="125"/>
      <point x="1120" y="318" type="curve" smooth="yes"/>
      <point x="1120" y="663"/>
      <point x="752" y="532"/>
      <point x="750" y="838" type="curve" smooth="yes"/>
      <point x="750" y="1358" type="line"/>
      <point x="372" y="1358" type="line"/>
      <point x="372" y="846" type="line" smooth="yes"/>
      <point x="374" y="416"/>
      <point x="761" y="454"/>
    </contour>
    <contour>
      <point x="934" y="1082" type="line"/>
      <point x="238" y="1082" type="line"/>
      <point x="238" y="814" type="line"/>
      <point x="934" y="814" type="line"/>
    </contour>
  </outline>
</glyph>
<glyph name="wynn" format="2">
  <advance width="1440"/>
  <unicode hex="01BF"/>
  <outline>
    <contour>
      <point x="564" y="910" type="line"/>
      <point x="542" y="1118" type="line"/>
      <point x="186" y="1118" type="line"/>
      <point x="186" y="-416" type="line"/>
      <point x="564" y="-416" type="line"/>
    </contour>
    <contour>
      <point x="542" y="574" type="line"/>
      <point x="529" y="762"/>
      <point x="572" y="834"/>
      <point x="718" y="834" type="curve" smooth="yes"/>
      <point x="846" y="834"/>
      <point x="876" y="721"/>
      <point x="876" y="588" type="curve" smooth="yes"/>
      <point x="876" y="532" type="line" smooth="yes"/>
      <point x="876" y="256"/>
      <point x="680" y="90"/>
      <point x="392" y="82" type="curve"/>
      <point x="436" y="-212" type="line"/>
      <point x="965" y="-99"/>
      <point x="1254" y="105"/>
      <point x="1254" y="532" type="curve" smooth="yes"/>
      <point x="1254" y="588" type="line" smooth="yes"/>
      <point x="1254" y="913"/>
      <point x="1096" y="1132"/>
      <point x="812" y="1132" type="curve" smooth="yes"/>
      <point x="535" y="1132"/>
      <point x="439" y="867"/>
      <point x="392" y="570" type="curve"/>
    </contour>
  </outline>
</glyph>
<glyph name="uni01F6" format="2">
  <advance width="2312"/>
  <unicode hex="01F6"/>
  <outline>
    <contour>
      <point x="1624" y="-20" type="curve" smooth="yes"/>
      <point x="1990" y="-20"/>
      <point x="2211" y="186"/>
      <point x="2210" y="520" type="curve" smooth="yes"/>
      <point x="2210" y="1068" type="line"/>
      <point x="1806" y="1068" type="line"/>
      <point x="1806" y="520" type="line" smooth="yes"/>
      <point x="1806" y="390"/>
      <point x="1737" y="312"/>
      <point x="1624" y="312" type="curve" smooth="yes"/>
      <point x="1510" y="312"/>
      <point x="1440" y="390"/>
      <point x="1440" y="520" type="curve" smooth="yes"/>
      <point x="1440" y="1490" type="line"/>
      <point x="1036" y="1490" type="line"/>
      <point x="1036" y="908" type="line"/>
      <point x="500" y="908" type="line"/>
      <point x="500" y="1490" type="line"/>
      <point x="96" y="1490" type="line"/>
      <point x="96" y="0" type="line"/>
      <point x="500" y="0" type="line"/>
      <point x="500" y="582" type="line"/>
      <point x="1036" y="582" type="line"/>
      <point x="1036" y="520" type="line" smooth="yes"/>
      <point x="1036" y="186"/>
      <point x="1260" y="-20"/>
    </contour>
  </outline>
</glyph>
<glyph name="uni01F7" format="2">
  <advance width="1694"/>
  <unicode hex="01F7"/>
  <outline>
    <contour>
      <point x="596" y="1490" type="line"/>
      <point x="210" y="1490" type="line"/>
      <point x="210" y="-418" type="line"/>
      <point x="596" y="-418" type="line"/>
    </contour>
    <contour>
      <point x="434" y="-192" type="line"/>
      <point x="1145" y="29"/>
      <point x="1488" y="358"/>
      <point x="1490" y="774" type="curve" smooth="yes"/>
      <point x="1490" y="826" type="line" smooth="yes"/>
      <point x="1490" y="1263"/>
      <point x="1220" y="1510"/>
      <point x="850" y="1510" type="curve" smooth="yes"/>
      <point x="673" y="1510"/>
      <point x="543" y="1452"/>
      <point x="486" y="1376" type="curve"/>
      <point x="486" y="962" type="line"/>
      <point x="534" y="1091"/>
      <point x="695" y="1198"/>
      <point x="854" y="1198" type="curve" smooth="yes"/>
      <point x="1079" y="1198"/>
      <point x="1088" y="980"/>
      <point x="1088" y="830" type="curve" smooth="yes"/>
      <point x="1088" y="774" type="line" smooth="yes"/>
      <point x="1088" y="468"/>
      <point x="863" y="282"/>
      <point x="434" y="126" type="curve"/>
    </contour>
  </outline>
</glyph>
<glyph name="uni021C" format="2">
  <advance width="1426"/>
  <unicode hex="021C"/>
  <outline>
    <contour>
      <point x="248" y="306" type="line"/>
      <point x="1017" y="495"/>
      <point x="1280" y="706"/>
      <point x="1280" y="1062" type="curve" smooth="yes"/>
      <point x="1280" y="1370"/>
      <point x="1061" y="1510"/>
      <point x="696" y="1510" type="curve" smooth="yes"/>
      <point x="361" y="1510"/>
      <point x="125" y="1335"/>
      <point x="126" y="1088" type="curve"/>
      <point x="514" y="1088" type="line"/>
      <point x="514" y="1157"/>
      <point x="583" y="1198"/>
      <point x="696" y="1198" type="curve" smooth="yes"/>
      <point x="832" y="1198"/>
      <point x="894" y="1145"/>
      <point x="894" y="1006" type="curve" smooth="yes"/>
      <point x="894" y="827"/>
      <point x="779" y="755"/>
      <point x="248" y="600" type="curve"/>
    </contour>
    <contour>
      <point x="722" y="504" type="line"/>
      <point x="865" y="524"/>
      <point x="910" y="495"/>
      <point x="910" y="366" type="curve" smooth="yes"/>
      <point x="910" y="133"/>
      <point x="663" y="-52"/>
      <point x="248" y="-128" type="curve"/>
      <point x="248" y="-436" type="line"/>
      <point x="881" y="-373"/>
      <point x="1300" y="-56"/>
      <point x="1300" y="358" type="curve" smooth="yes"/>
      <point x="1300" y="612"/>
      <point x="1080" y="759"/>
      <point x="760" y="734" type="curve"/>
    </contour>
  </outline>
</glyph>
<glyph name="uni021D" format="2">
  <advance width="1230"/>
  <unicode hex="021D"/>
  <outline>
    <contour>
      <point x="264" y="120" type="line"/>
      <point x="843" y="290"/>
      <point x="1092" y="488"/>
      <point x="1092" y="774" type="curve" smooth="yes"/>
      <point x="1092" y="1012"/>
      <point x="932" y="1132"/>
      <point x="612" y="1132" type="curve" smooth="yes"/>
      <point x="299" y="1132"/>
      <point x="115" y="994"/>
      <point x="116" y="762" type="curve"/>
      <point x="494" y="762" type="line"/>
      <point x="494" y="823"/>
      <point x="534" y="858"/>
      <point x="606" y="858" type="curve" smooth="yes"/>
      <point x="683" y="858"/>
      <point x="718" y="821"/>
      <point x="718" y="738" type="curve" smooth="yes"/>
      <point x="718" y="593"/>
      <point x="608" y="509"/>
      <point x="264" y="386" type="curve"/>
    </contour>
    <contour>
      <point x="588" y="360" type="line"/>
      <point x="670" y="379"/>
      <point x="734" y="324"/>
      <point x="734" y="216" type="curve" smooth="yes"/>
      <point x="734" y="79"/>
      <point x="625" y="-17"/>
      <point x="264" y="-166" type="curve"/>
      <point x="264" y="-436" type="line"/>
      <point x="825" y="-303"/>
      <point x="1112" y="-88"/>
      <point x="1112" y="196" type="curve" smooth="yes"/>
      <point x="1112" y="418"/>
      <point x="937" y="528"/>
      <point x="620" y="504" type="curve"/>
    </contour>
  </outline>
</glyph>
<glyph name="uni0220" format="2">
  <advance width="1432"/>
  <unicode hex="0220"/>
  <outline>
    <contour>
      <point x="1282" y="-416" type="line"/>
      <point x="1282" y="1088" type="line" smooth="yes"/>
      <point x="1282" y="1340"/>
      <point x="1079" y="1510"/>
      <point x="800" y="1510" type="curve" smooth="yes"/>
      <point x="581" y="1510"/>
      <point x="387" y="1405"/>
      <point x="238" y="1218" type="curve"/>
      <point x="238" y="862" type="line"/>
      <point x="395" y="1091"/>
      <point x="564" y="1214"/>
      <point x="742" y="1214" type="curve" smooth="yes"/>
      <point x="844" y="1214"/>
      <point x="902" y="1173"/>
      <point x="902" y="1088" type="curve" smooth="yes"/>
      <point x="902" y="-416" type="line"/>
    </contour>
    <contour>
      <point x="530" y="1490" type="line"/>
      <point x="152" y="1490" type="line"/>
      <point x="152" y="0" type="line"/>
      <point x="530" y="0" type="line"/>
    </contour>
  </outline>
</glyph>
<glyph name="uni0222" format="2">
  <advance width="1428"/>
  <unicode hex="0222"/>
  <outline>
    <contour>
      <point x="706" y="954" type="line"/>
      <point x="335" y="954"/>
      <point x="122" y="782"/>
      <point x="122" y="482" type="curve" smooth="yes"/>
      <point x="122" y="178"/>
      <point x="352" y="-20"/>
      <point x="706" y="-20" type="curve" smooth="yes"/>
      <point x="728" y="-20" type="line" smooth="yes"/>
      <point x="1079" y="-20"/>
      <point x="1306" y="178"/>
      <point x="1306" y="486" type="curve" smooth="yes"/>
      <point x="1306" y="783"/>
      <point x="1093" y="954"/>
      <point x="728" y="954" type="curve" smooth="yes"/>
    </contour>
    <contour>
      <point x="728" y="684" type="line"/>
      <point x="838" y="684"/>
      <point x="908" y="608"/>
      <point x="908" y="486" type="curve" smooth="yes"/>
      <point x="908" y="361"/>
      <point x="839" y="285"/>
      <point x="728" y="286" type="curve" smooth="yes"/>
      <point x="706" y="286" type="line" smooth="yes"/>
      <point x="594" y="286"/>
      <point x="520" y="364"/>
      <point x="520" y="482" type="curve" smooth="yes"/>
      <point x="520" y="605"/>
      <point x="593" y="684"/>
      <point x="706" y="684" type="curve" smooth="yes"/>
    </contour>
    <contour>
      <point x="704" y="998" type="line"/>
      <point x="572" y="998"/>
      <point x="520" y="1018"/>
      <point x="520" y="1114" type="curve" smooth="yes"/>
      <point x="520" y="1170"/>
      <point x="538" y="1198"/>
      <point x="594" y="1208" type="curve"/>
      <point x="594" y="1510" type="line"/>
      <point x="290" y="1516"/>
      <point x="122" y="1365"/>
      <point x="122" y="1114" type="curve" smooth="yes"/>
      <point x="122" y="859"/>
      <point x="330" y="730"/>
      <point x="704" y="730" type="curve" smooth="yes"/>
      <point x="724" y="730" type="line" smooth="yes"/>
      <point x="1097" y="730"/>
      <point x="1312" y="861"/>
      <point x="1312" y="1114" type="curve" smooth="yes"/>
      <point x="1312" y="1363"/>
      <point x="1139" y="1516"/>
      <point x="838" y="1510" type="curve"/>
      <point x="838" y="1208" type="line"/>
      <point x="892" y="1197"/>
      <point x="914" y="1169"/>
      <point x="914" y="1114" type="curve" smooth="yes"/>
      <point x="914" y="1021"/>
      <point x="857" y="998"/>
      <point x="724" y="998" type="curve" smooth="yes"/>
    </contour>
  </outline>
</glyph>
<glyph name="uni0223" format="2">
  <advance width="1426"/>
  <unicode hex="0223"/>
  <outline>
    <contour>
      <point x="704" y="928" type="line" name="hr00"/>
      <point x="367" y="928"/>
      <point x="130" y="800"/>
      <point x="130" y="474" type="curve" smooth="yes"/>
      <point x="130" y="157"/>
      <point x="367" y="-20"/>
      <point x="704" y="-20" type="curve" smooth="yes"/>
      <point x="724" y="-20" type="line" smooth="yes"/>
      <point x="1059" y="-20"/>
      <point x="1294" y="157"/>
      <point x="1294" y="474" type="curve" smooth="yes"/>
      <point x="1294" y="800"/>
      <point x="1056" y="928"/>
      <point x="724" y="928" type="curve" smooth="yes"/>
    </contour>
    <contour>
      <point x="724" y="666" type="line"/>
      <point x="858" y="666"/>
      <point x="916" y="582"/>
      <point x="916" y="474" type="curve" smooth="yes"/>
      <point x="916" y="367"/>
      <point x="858" y="282"/>
      <point x="724" y="282" type="curve" smooth="yes"/>
      <point x="704" y="282" type="line" smooth="yes"/>
      <point x="576" y="282"/>
      <point x="510" y="367"/>
      <point x="510" y="474" type="curve" smooth="yes"/>
      <point x="510" y="582"/>
      <point x="576" y="666"/>
      <point x="704" y="666" type="curve" smooth="yes"/>
    </contour>
    <contour>
      <point x="722" y="966" type="curve" smooth="yes"/>
      <point x="704" y="966" type="line" smooth="yes"/>
      <point x="561" y="966"/>
      <point x="510" y="1018"/>
      <point x="510" y="1134" type="curve" smooth="yes"/>
      <point x="510" y="1216"/>
      <point x="550" y="1257"/>
      <point x="590" y="1266" type="curve"/>
      <point x="590" y="1556" type="line"/>
      <point x="311" y="1559"/>
      <point x="130" y="1420"/>
      <point x="130" y="1144" type="curve" smooth="yes"/>
      <point x="130" y="823"/>
      <point x="367" y="707"/>
      <point x="704" y="706" type="curve" smooth="yes"/>
      <point x="722" y="706" type="line" smooth="yes"/>
      <point x="1062" y="706"/>
      <point x="1294" y="823"/>
      <point x="1294" y="1144" type="curve" smooth="yes"/>
      <point x="1294" y="1425"/>
      <point x="1111" y="1559"/>
      <point x="834" y="1556" type="curve"/>
      <point x="834" y="1266" type="line"/>
      <point x="876" y="1257"/>
      <point x="922" y="1216"/>
      <point x="922" y="1134" type="curve" smooth="yes"/>
      <point x="922" y="1021"/>
      <point x="867" y="966"/>
    </contour>
  </outline>
</glyph>
<glyph name="zhook" format="2">
  <advance width="1208"/>
  <unicode hex="0225"/>
  <outline>
    <contour>
      <point x="858" y="-296" type="line"/>
      <point x="1184" y="-296" type="line"/>
      <point x="1184" y="-142" type="line" smooth="yes"/>
      <point x="1184" y="145"/>
      <point x="1048" y="306"/>
      <point x="804" y="306" type="curve" smooth="yes"/>
      <point x="632" y="306" type="line"/>
      <point x="632" y="312" type="line"/>
      <point x="1076" y="872" type="line"/>
      <point x="1076" y="1118" type="line"/>
      <point x="130" y="1118" type="line"/>
      <point x="130" y="812" type="line"/>
      <point x="602" y="812" type="line"/>
      <point x="602" y="806" type="line"/>
      <point x="114" y="222" type="line"/>
      <point x="114" y="0" type="line"/>
      <point x="724" y="0" type="line" smooth="yes"/>
      <point x="817" y="0"/>
      <point x="858" y="-43"/>
      <point x="858" y="-142" type="curve" smooth="yes"/>
    </contour>
  </outline>
</glyph>
<glyph name="jdotless" format="2">
  <advance width="606"/>
  <unicode hex="0237"/>
  <anchor x="448" y="0" name="_right"/>
  <anchor x="244" y="-398" name="bottom"/>
  <anchor x="302" y="686" name="cross"/>
  <anchor x="303" y="1118" name="top"/>
  <outline>
    <contour>
      <point x="102" y="1118" type="line"/>
      <point x="102" y="-30" type="line" smooth="yes"/>
      <point x="102" y="-94"/>
      <point x="73" y="-122"/>
      <point x="-24" y="-122" type="curve" smooth="yes"/>
      <point x="-70" y="-122" type="line"/>
      <point x="-70" y="-418" type="line"/>
      <point x="12" y="-418" type="line" smooth="yes"/>
      <point x="306" y="-418"/>
      <point x="504" y="-332"/>
      <point x="504" y="-38" type="curve" smooth="yes"/>
      <point x="504" y="1118" type="line"/>
    </contour>
  </outline>
</glyph>
<glyph name="uni0238" format="2">
  <advance width="2018"/>
  <unicode hex="0238"/>
  <outline>
    <contour>
      <point x="1888" y="564" type="line" smooth="yes"/>
      <point x="1888" y="905"/>
      <point x="1725" y="1132"/>
      <point x="1464" y="1132" type="curve" smooth="yes"/>
      <point x="1178" y="1132"/>
      <point x="1071" y="870"/>
      <point x="1024" y="546" type="curve"/>
      <point x="1024" y="542" type="line"/>
      <point x="1071" y="247"/>
      <point x="1178" y="-20"/>
      <point x="1466" y="-20" type="curve" smooth="yes"/>
      <point x="1725" y="-20"/>
      <point x="1888" y="212"/>
      <point x="1888" y="544" type="curve"/>
    </contour>
    <contour>
      <point x="1510" y="544" type="line" smooth="yes"/>
      <point x="1510" y="399"/>
      <point x="1489" y="280"/>
      <point x="1350" y="280" type="curve" smooth="yes"/>
      <point x="1231" y="280"/>
      <point x="1167" y="369"/>
      <point x="1166" y="536" type="curve" smooth="yes"/>
      <point x="1166" y="556" type="line" smooth="yes"/>
      <point x="1166" y="740"/>
      <point x="1231" y="834"/>
      <point x="1350" y="834" type="curve" smooth="yes"/>
      <point x="1472" y="834"/>
      <point x="1510" y="733"/>
      <point x="1510" y="564" type="curve"/>
    </contour>
    <contour>
      <point x="820" y="262" type="line"/>
      <point x="858" y="0" type="line"/>
      <point x="1198" y="0" type="line"/>
      <point x="1198" y="1490" type="line"/>
      <point x="820" y="1490" type="line"/>
    </contour>
    <contour>
      <point x="130" y="544" type="line"/>
      <point x="131" y="212"/>
      <point x="294" y="-20"/>
      <point x="552" y="-20" type="curve" smooth="yes"/>
      <point x="841" y="-20"/>
      <point x="948" y="247"/>
      <point x="994" y="542" type="curve"/>
      <point x="994" y="546" type="line"/>
      <point x="948" y="870"/>
      <point x="841" y="1132"/>
      <point x="556" y="1132" type="curve" smooth="yes"/>
      <point x="294" y="1132"/>
      <point x="131" y="905"/>
      <point x="130" y="564" type="curve" smooth="yes"/>
    </contour>
    <contour>
      <point x="510" y="564" type="line"/>
      <point x="509" y="733"/>
      <point x="547" y="834"/>
      <point x="670" y="834" type="curve" smooth="yes"/>
      <point x="788" y="834"/>
      <point x="852" y="740"/>
      <point x="852" y="556" type="curve" smooth="yes"/>
      <point x="852" y="536" type="line" smooth="yes"/>
      <point x="852" y="369"/>
      <point x="788" y="280"/>
      <point x="670" y="280" type="curve" smooth="yes"/>
      <point x="529" y="280"/>
      <point x="509" y="399"/>
      <point x="510" y="544" type="curve" smooth="yes"/>
    </contour>
  </outline>
</glyph>
<glyph name="uni023A" format="2">
  <advance width="1628"/>
  <unicode hex="023A"/>
  <anchor x="810" y="0" name="bottom"/>
  <anchor x="1582" y="0" name="ogonek"/>
  <anchor x="476" y="1490" name="tonos"/>
  <anchor x="810" y="1490" name="top"/>
  <outline>
    <contour>
      <point x="1160" y="1678" type="line"/>
      <point x="1082" y="1678" type="line"/>
      <point x="518" y="-190" type="line"/>
      <point x="596" y="-190" type="line"/>
    </contour>
    <component base="A"/>
  </outline>
</glyph>
<glyph name="Cstroke" format="2">
  <advance width="1531"/>
  <unicode hex="023B"/>
  <anchor x="780" y="6" name="cedilla"/>
  <anchor x="784" y="745" name="center"/>
  <anchor x="788" y="1490" name="top"/>
  <anchor x="1464" y="946" name="topr"/>
  <outline>
    <contour>
      <point x="404" y="-190" type="line"/>
      <point x="610" y="-190" type="line"/>
      <point x="1176" y="1678" type="line"/>
      <point x="968" y="1678" type="line"/>
    </contour>
    <component base="C"/>
  </outline>
</glyph>
<glyph name="cstroke" format="2">
  <advance width="1235"/>
  <unicode hex="023C"/>
  <anchor x="640" y="0" name="bottom"/>
  <anchor x="640" y="0" name="cedilla"/>
  <anchor x="640" y="559" name="center"/>
  <anchor x="640" y="1118" name="top"/>
  <anchor x="1175" y="707" name="topr"/>
  <outline>
    <contour>
      <point x="277" y="-418" type="line"/>
      <point x="409" y="-418" type="line"/>
      <point x="993" y="1490" type="line"/>
      <point x="859" y="1490" type="line"/>
    </contour>
    <component base="c"/>
  </outline>
</glyph>
<glyph name="uni023E" format="2">
  <advance width="1406"/>
  <unicode hex="023E"/>
  <anchor x="703" y="0" name="bottom"/>
  <anchor x="905" y="0" name="bottomr"/>
  <anchor x="704" y="0" name="cedilla"/>
  <anchor x="703" y="666" name="cross"/>
  <anchor x="905" y="0" name="cyrtic"/>
  <anchor x="856" y="0" name="right"/>
  <anchor x="703" y="1490" name="top"/>
  <outline>
    <contour>
      <point x="209" y="-209" type="line"/>
      <point x="341" y="-209" type="line"/>
      <point x="1216" y="1699" type="line"/>
      <point x="1082" y="1699" type="line"/>
    </contour>
    <component base="T"/>
  </outline>
</glyph>
<glyph name="uni023F" format="2">
  <advance width="1204"/>
  <unicode hex="023F"/>
  <anchor x="601" y="0" name="bottom"/>
  <anchor x="608" y="0" name="cedilla"/>
  <anchor x="52" y="335" name="rthook"/>
  <anchor x="597" y="1118" name="top"/>
  <outline>
    <contour>
      <point x="349" y="305" type="curve"/>
      <point x="96" y="218" type="line"/>
      <point x="290" y="-108" type="line" smooth="yes"/>
      <point x="373" y="-247"/>
      <point x="484" y="-418"/>
      <point x="702" y="-418" type="curve" smooth="yes"/>
      <point x="860" y="-418"/>
      <point x="967" y="-335"/>
      <point x="1050" y="-268" type="curve"/>
      <point x="940" y="-76" type="line"/>
      <point x="887" y="-119"/>
      <point x="820" y="-162"/>
      <point x="718" y="-162" type="curve" smooth="yes"/>
      <point x="621" y="-162"/>
      <point x="558" y="-123"/>
    </contour>
    <component base="s"/>
  </outline>
</glyph>
<glyph name="uni0240" format="2">
  <advance width="1208"/>
  <unicode hex="0240"/>
  <outline>
    <contour>
      <point x="114" y="0" type="line"/>
      <point x="632" y="0" type="line"/>
      <point x="632" y="312" type="line"/>
      <point x="1076" y="872" type="line"/>
      <point x="1076" y="1118" type="line"/>
      <point x="130" y="1118" type="line"/>
      <point x="130" y="812" type="line"/>
      <point x="602" y="812" type="line"/>
      <point x="602" y="806" type="line"/>
      <point x="114" y="222" type="line"/>
    </contour>
    <contour>
      <point x="1215" y="-420" type="curve" smooth="yes"/>
      <point x="1330" y="-420"/>
      <point x="1427" y="-389"/>
      <point x="1526" y="-335" type="curve"/>
      <point x="1393" y="-58" type="line"/>
      <point x="1335" y="-89"/>
      <point x="1262" y="-116"/>
      <point x="1215" y="-116" type="curve" smooth="yes"/>
      <point x="1108" y="-116"/>
      <point x="1047" y="-58"/>
      <point x="1007" y="83" type="curve" smooth="yes"/>
      <point x="964" y="233"/>
      <point x="832" y="306"/>
      <point x="722" y="306" type="curve" smooth="yes"/>
      <point x="568" y="306" type="line"/>
      <point x="568" y="0" type="line"/>
      <point x="657" y="0" type="line" smooth="yes"/>
      <point x="687" y="0"/>
      <point x="707" y="-16"/>
      <point x="722" y="-53" type="curve" smooth="yes"/>
      <point x="825" y="-310"/>
      <point x="963" y="-420"/>
    </contour>
  </outline>
</glyph>
<glyph name="uni0241" format="2">
  <advance width="1228"/>
  <unicode hex="0241"/>
  <outline>
    <contour>
      <point x="448" y="552" type="line" name="hr00"/>
      <point x="448" y="238" type="line"/>
      <point x="588" y="238" type="line" smooth="yes"/>
      <point x="941" y="238"/>
      <point x="1146" y="468"/>
      <point x="1146" y="788" type="curve" smooth="yes"/>
      <point x="1146" y="952" type="line" smooth="yes"/>
      <point x="1146" y="1277"/>
      <point x="938" y="1510"/>
      <point x="590" y="1510" type="curve" smooth="yes"/>
      <point x="307" y="1510"/>
      <point x="77" y="1335"/>
      <point x="82" y="1044" type="curve"/>
      <point x="456" y="1044" type="line"/>
      <point x="452" y="1123"/>
      <point x="496" y="1192"/>
      <point x="600" y="1192" type="curve" smooth="yes"/>
      <point x="746" y="1192"/>
      <point x="748" y="1039"/>
      <point x="748" y="952" type="curve" smooth="yes"/>
      <point x="748" y="788" type="line" smooth="yes"/>
      <point x="748" y="640"/>
      <point x="723" y="553"/>
      <point x="600" y="552" type="curve" smooth="yes"/>
    </contour>
    <contour>
      <point x="812" y="552" type="line"/>
      <point x="418" y="552" type="line"/>
      <point x="418" y="0" type="line"/>
      <point x="812" y="0" type="line"/>
    </contour>
  </outline>
</glyph>
<glyph name="uni0242" format="2">
  <advance width="1230"/>
  <unicode hex="0242"/>
  <outline>
    <contour>
      <point x="122" y="680" type="curve" name="hr00"/>
      <point x="500" y="680" type="line"/>
      <point x="500" y="788"/>
      <point x="532" y="832"/>
      <point x="616" y="832" type="curve" smooth="yes"/>
      <point x="696" y="832"/>
      <point x="730" y="788"/>
      <point x="730" y="696" type="curve" smooth="yes"/>
      <point x="730" y="571"/>
      <point x="671" y="518"/>
      <point x="552" y="518" type="curve" smooth="yes"/>
      <point x="472" y="518" type="line"/>
      <point x="472" y="322" type="line"/>
      <point x="698" y="322" type="line" smooth="yes"/>
      <point x="955" y="322"/>
      <point x="1108" y="464"/>
      <point x="1108" y="702" type="curve" smooth="yes"/>
      <point x="1108" y="965"/>
      <point x="915" y="1132"/>
      <point x="610" y="1132" type="curve" smooth="yes"/>
      <point x="318" y="1132"/>
      <point x="121" y="951"/>
    </contour>
    <contour>
      <point x="424" y="518" type="line"/>
      <point x="424" y="0" type="line"/>
      <point x="802" y="0" type="line"/>
      <point x="802" y="518" type="line"/>
    </contour>
  </outline>
</glyph>
<glyph name="uni0244" format="2">
  <advance width="1582"/>
  <unicode hex="0244"/>
  <anchor x="800" y="0" name="bottom"/>
  <anchor x="1444" y="536" name="ogonek"/>
  <anchor x="928" y="0" name="right"/>
  <anchor x="1040" y="1490" name="rtophorn"/>
  <anchor x="800" y="1490" name="top"/>
  <outline>
    <contour>
      <point x="1594" y="834" type="line"/>
      <point x="-12" y="834" type="line"/>
      <point x="-12" y="614" type="line"/>
      <point x="1594" y="614" type="line"/>
    </contour>
    <component base="U" xOffset="62"/>
  </outline>
</glyph>
<glyph name="uni0245" format="2">
  <advance width="1618"/>
  <unicode hex="0245"/>
  <outline>
    <contour>
      <point x="1094" y="0" type="line"/>
      <point x="1530" y="0" type="line"/>
      <point x="1024" y="1490" type="line"/>
      <point x="742" y="1490" type="line"/>
      <point x="794" y="1100" type="line"/>
    </contour>
    <contour>
      <point x="824" y="1100" type="line"/>
      <point x="872" y="1490" type="line"/>
      <point x="590" y="1490" type="line"/>
      <point x="84" y="0" type="line"/>
      <point x="520" y="0" type="line"/>
    </contour>
  </outline>
</glyph>
<glyph name="uni0246" format="2">
  <advance width="1255"/>
  <unicode hex="0246"/>
  <anchor x="633" y="0" name="bottom"/>
  <anchor x="635" y="0" name="cedilla"/>
  <anchor x="1166" y="0" name="ogonek"/>
  <anchor x="96" y="1490" name="tonos"/>
  <anchor x="633" y="1490" name="top"/>
  <outline>
    <contour>
      <point x="322" y="-190" type="line"/>
      <point x="488" y="-190" type="line"/>
      <point x="1026" y="1678" type="line"/>
      <point x="862" y="1678" type="line"/>
    </contour>
    <component base="E"/>
  </outline>
</glyph>
<glyph name="uni0247" format="2">
  <advance width="1242"/>
  <unicode hex="0247"/>
  <anchor x="622" y="0" name="bottom"/>
  <anchor x="628" y="0" name="cedilla"/>
  <anchor x="1168" y="307" name="ogonek"/>
  <anchor x="622" y="1118" name="top"/>
  <outline>
    <contour>
      <point x="236" y="-418" type="line"/>
      <point x="440" y="-418" type="line"/>
      <point x="1024" y="1490" type="line"/>
      <point x="818" y="1490" type="line"/>
    </contour>
    <component base="e"/>
  </outline>
</glyph>
<glyph name="uni024C" format="2">
  <advance width="1422"/>
  <unicode hex="024C"/>
  <anchor x="742" y="0" name="bottom"/>
  <anchor x="718" y="1490" name="top"/>
  <outline>
    <contour>
      <point x="382" y="526" type="line"/>
      <point x="382" y="812" type="line"/>
      <point x="12" y="812" type="line"/>
      <point x="12" y="526" type="line"/>
    </contour>
    <component base="R" xOffset="44"/>
  </outline>
</glyph>
<glyph name="uni024E" format="2">
  <advance width="1566"/>
  <unicode hex="024E"/>
  <anchor x="799" y="0" name="bottom"/>
  <anchor x="800" y="323" name="cross"/>
  <anchor x="1003" y="0" name="ogonek"/>
  <anchor x="46" y="1490" name="tonos"/>
  <anchor x="794" y="1490" name="top"/>
  <outline>
    <contour>
      <point x="1538" y="1176" type="line"/>
      <point x="26" y="1176" type="line"/>
      <point x="26" y="986" type="line"/>
      <point x="1538" y="986" type="line"/>
    </contour>
    <component base="Y"/>
  </outline>
</glyph>
<glyph name="uni024F" format="2">
  <advance width="1302"/>
  <unicode hex="024F"/>
  <anchor x="1034" y="0" name="bottom"/>
  <anchor x="865" y="0" name="ogonek"/>
  <anchor x="655" y="1118" name="top"/>
  <outline>
    <contour>
      <point x="1269" y="724" type="line" name="hr00"/>
      <point x="33" y="724" type="line"/>
      <point x="33" y="552" type="line"/>
      <point x="1269" y="552" type="line"/>
    </contour>
    <component base="y"/>
  </outline>
</glyph>
<glyph name="bhook" format="2">
  <advance width="1322"/>
  <unicode hex="0253"/>
  <anchor x="504" y="1118" name="_topr"/>
  <anchor x="638" y="0" name="bottom"/>
  <anchor x="470" y="1490" name="top"/>
  <outline>
    <contour>
      <point x="820" y="-14" type="curve" smooth="yes"/>
      <point x="1059" y="-14"/>
      <point x="1260" y="172"/>
      <point x="1260" y="550" type="curve" smooth="yes"/>
      <point x="1260" y="944"/>
      <point x="1045" y="1108"/>
      <point x="824" y="1108" type="curve" smooth="yes"/>
      <point x="658" y="1108"/>
      <point x="553" y="1014"/>
      <point x="510" y="904" type="curve"/>
      <point x="504" y="904" type="line"/>
      <point x="504" y="1118" type="line"/>
      <point x="102" y="1118" type="line"/>
      <point x="102" y="0" type="line"/>
      <point x="500" y="0" type="line"/>
      <point x="500" y="184" type="line"/>
      <point x="510" y="184" type="line"/>
      <point x="556" y="70"/>
      <point x="663" y="-14"/>
    </contour>
    <contour>
      <point x="672" y="294" type="curve" smooth="yes"/>
      <point x="562" y="294"/>
      <point x="494" y="393"/>
      <point x="494" y="550" type="curve" smooth="yes"/>
      <point x="494" y="711"/>
      <point x="562" y="809"/>
      <point x="672" y="809" type="curve" smooth="yes"/>
      <point x="783" y="809"/>
      <point x="846" y="711"/>
      <point x="846" y="550" type="curve" smooth="yes"/>
      <point x="846" y="390"/>
      <point x="783" y="294"/>
    </contour>
    <component base="_part.top_r_hook" xOffset="4"/>
  </outline>
</glyph>
<glyph name="erev" format="2">
  <advance width="1222"/>
  <unicode hex="0258"/>
  <outline>
    <contour>
      <point x="562" y="-20" type="curve" smooth="yes"/>
      <point x="935" y="-20"/>
      <point x="1153" y="233"/>
      <point x="1152" y="520" type="curve" smooth="yes"/>
      <point x="1152" y="558" type="line" smooth="yes"/>
      <point x="1152" y="870"/>
      <point x="972" y="1132"/>
      <point x="594" y="1132" type="curve" smooth="yes"/>
      <point x="274" y="1132"/>
      <point x="73" y="934"/>
      <point x="72" y="590" type="curve" smooth="yes"/>
      <point x="72" y="434" type="line"/>
      <point x="1012" y="434" type="line"/>
      <point x="1012" y="664" type="line"/>
      <point x="436" y="664" type="line"/>
      <point x="436" y="678" type="line" smooth="yes"/>
      <point x="436" y="782"/>
      <point x="500" y="832"/>
      <point x="592" y="832" type="curve" smooth="yes"/>
      <point x="769" y="832"/>
      <point x="774" y="652"/>
      <point x="774" y="558" type="curve" smooth="yes"/>
      <point x="774" y="520" type="line" smooth="yes"/>
      <point x="774" y="364"/>
      <point x="681" y="282"/>
      <point x="520" y="282" type="curve" smooth="yes"/>
      <point x="440" y="282"/>
      <point x="341" y="303"/>
      <point x="274" y="378" type="curve"/>
      <point x="104" y="162" type="line"/>
      <point x="178" y="73"/>
      <point x="338" y="-20"/>
    </contour>
  </outline>
</glyph>
<glyph name="schwahook" format="2">
  <advance width="1762"/>
  <unicode hex="025A"/>
  <outline>
    <contour>
      <point x="614" y="-20" type="curve" smooth="yes"/>
      <point x="960" y="-20"/>
      <point x="1180" y="210"/>
      <point x="1180" y="556" type="curve" smooth="yes"/>
      <point x="1180" y="918"/>
      <point x="963" y="1132"/>
      <point x="604" y="1132" type="curve" smooth="yes"/>
      <point x="319" y="1132"/>
      <point x="131" y="1006"/>
      <point x="74" y="805" type="curve"/>
      <point x="428" y="753" type="line"/>
      <point x="452" y="815"/>
      <point x="514" y="850"/>
      <point x="596" y="850" type="curve" smooth="yes"/>
      <point x="711" y="850"/>
      <point x="786" y="780"/>
      <point x="786" y="632" type="curve" smooth="yes"/>
      <point x="786" y="472" type="line" smooth="yes"/>
      <point x="786" y="337"/>
      <point x="726" y="262"/>
      <point x="610" y="262" type="curve" smooth="yes"/>
      <point x="494" y="262"/>
      <point x="434" y="337"/>
      <point x="434" y="472" type="curve"/>
      <point x="246" y="403" type="line"/>
      <point x="1056" y="528" type="line"/>
      <point x="1056" y="750" type="line"/>
      <point x="58" y="597" type="line"/>
      <point x="58" y="554" type="line" smooth="yes"/>
      <point x="58" y="198"/>
      <point x="276" y="-20"/>
    </contour>
    <contour>
      <point x="1554" y="180" type="curve" smooth="yes"/>
      <point x="1637" y="180"/>
      <point x="1695" y="207"/>
      <point x="1742" y="240" type="curve"/>
      <point x="1670" y="462" type="line"/>
      <point x="1642" y="454"/>
      <point x="1620" y="450"/>
      <point x="1601" y="450" type="curve" smooth="yes"/>
      <point x="1530" y="450"/>
      <point x="1504" y="514"/>
      <point x="1458" y="808" type="curve"/>
      <point x="1087" y="752" type="line"/>
      <point x="1087" y="530" type="line"/>
      <point x="1231" y="552" type="line"/>
      <point x="1284" y="294"/>
      <point x="1383" y="180"/>
    </contour>
  </outline>
</glyph>
<glyph name="epsilon1revhook" format="2">
  <advance width="1698"/>
  <unicode hex="025D"/>
  <anchor x="572" y="1118" name="top"/>
  <outline>
    <contour>
      <point x="1490" y="340" type="curve" smooth="yes"/>
      <point x="1573" y="340"/>
      <point x="1631" y="367"/>
      <point x="1678" y="400" type="curve"/>
      <point x="1606" y="622" type="line"/>
      <point x="1578" y="614"/>
      <point x="1556" y="608"/>
      <point x="1537" y="608" type="curve" smooth="yes"/>
      <point x="1466" y="608"/>
      <point x="1424" y="698"/>
      <point x="1378" y="992" type="curve"/>
      <point x="983" y="838" type="line"/>
      <point x="983" y="616" type="line"/>
      <point x="1167" y="699" type="line"/>
      <point x="1212" y="449"/>
      <point x="1319" y="340"/>
    </contour>
    <component base="epsilon1rev"/>
  </outline>
</glyph>
